<svg width="89" height="80" viewBox="0 0 89 80" fill="none" xmlns="http://www.w3.org/2000/svg">
<path d="M70.0532 38.3369C80.5016 38.3369 88.9717 29.8668 88.9717 19.4185C88.9717 8.97008 80.5016 0.5 70.0532 0.5C59.6048 0.5 51.1348 8.97008 51.1348 19.4185C51.1348 29.8668 59.6048 38.3369 70.0532 38.3369Z" fill="url(#paint0_linear_8200_28725)"/>
<path d="M18.9888 38.3369C29.4372 38.3369 37.9072 29.8668 37.9072 19.4185C37.9072 8.97008 29.4372 0.5 18.9888 0.5C8.54039 0.5 0.0703125 8.97008 0.0703125 19.4185C0.0703125 29.8668 8.54039 38.3369 18.9888 38.3369Z" fill="url(#paint1_linear_8200_28725)"/>
<g filter="url(#filter0_b_8200_28725)">
<path d="M68.9597 64.6131C74.941 58.4682 78.6309 50.0765 78.6309 40.8218C78.6309 21.9777 63.3578 6.70459 44.5137 6.70459C25.6696 6.70459 10.3965 21.9777 10.3965 40.8218C10.3965 50.0765 14.0864 58.4682 20.0677 64.6131L16.6307 71.807C15.2693 74.6563 16.4745 78.071 19.3238 79.4399C22.1731 80.8013 25.5878 79.5961 26.9567 76.7468L29.486 71.4574C34.0241 73.6892 39.1201 74.9465 44.5137 74.9465C49.9073 74.9465 55.0033 73.6892 59.5414 71.4574L62.0707 76.7468C63.4322 79.5961 66.8469 80.8013 69.7036 79.4399C72.5529 78.0785 73.7581 74.6638 72.3967 71.807L68.9597 64.6131Z" fill="url(#paint2_linear_8200_28725)"/>
<path d="M68.4222 64.09L68.0575 64.4647L68.2829 64.9364L71.7196 72.1297C71.7197 72.1298 71.7197 72.13 71.7198 72.1301C72.9033 74.6141 71.8549 77.5803 69.3809 78.7629C66.8966 79.9468 63.9298 78.8981 62.7475 76.4235L62.7474 76.4233L60.218 71.1338L59.8908 70.4497L59.2104 70.7844C54.7724 72.967 49.7894 74.1965 44.5137 74.1965C39.238 74.1965 34.255 72.967 29.817 70.7844L29.1366 70.4497L28.8094 71.1338L26.2806 76.4221C26.2804 76.4225 26.2802 76.4229 26.28 76.4233C25.0897 78.8993 22.123 79.9454 19.6484 78.7638C17.1712 77.5736 16.1248 74.6056 17.3075 72.1304L16.6307 71.807L17.3075 72.1304L20.7445 64.9364L20.9699 64.4647L20.6052 64.09C14.7544 58.0792 11.1465 49.873 11.1465 40.8218C11.1465 22.392 26.0838 7.45459 44.5137 7.45459C62.9436 7.45459 77.8809 22.392 77.8809 40.8218C77.8809 49.873 74.273 58.0792 68.4222 64.09Z" stroke="url(#paint3_linear_8200_28725)" stroke-width="1.5"/>
</g>
<path d="M47.3043 20.1248C47.3043 18.5635 46.0387 17.2979 44.4774 17.2979C42.9161 17.2979 41.6504 18.5635 41.6504 20.1248V41.3793C41.6504 42.9406 42.9161 44.2063 44.4774 44.2063C46.0387 44.2063 47.3043 42.9406 47.3043 41.3793V20.1248Z" fill="white"/>
<path d="M57.6144 44.2136C59.1757 44.2136 60.4414 42.9478 60.4414 41.3865C60.4414 39.8252 59.1757 38.5596 57.6144 38.5596H44.4838C42.9225 38.5596 41.6568 39.8252 41.6568 41.3865C41.6568 42.9478 42.9225 44.2136 44.4838 44.2136H57.6144Z" fill="white"/>
<defs>
<filter id="filter0_b_8200_28725" x="-7.60352" y="-11.2954" width="104.234" height="109.295" filterUnits="userSpaceOnUse" color-interpolation-filters="sRGB">
<feFlood flood-opacity="0" result="BackgroundImageFix"/>
<feGaussianBlur in="BackgroundImageFix" stdDeviation="9"/>
<feComposite in2="SourceAlpha" operator="in" result="effect1_backgroundBlur_8200_28725"/>
<feBlend mode="normal" in="SourceGraphic" in2="effect1_backgroundBlur_8200_28725" result="shape"/>
</filter>
<linearGradient id="paint0_linear_8200_28725" x1="3.50754" y1="32.9508" x2="93.1378" y2="14.7242" gradientUnits="userSpaceOnUse">
<stop stop-color="#3B3BF9"/>
<stop offset="0.51" stop-color="#10E0F9"/>
<stop offset="1" stop-color="#92FFFF"/>
</linearGradient>
<linearGradient id="paint1_linear_8200_28725" x1="1.4838" y1="22.982" x2="91.114" y2="4.75536" gradientUnits="userSpaceOnUse">
<stop stop-color="#3B3BF9"/>
<stop offset="0.51" stop-color="#10E0F9"/>
<stop offset="1" stop-color="#92FFFF"/>
</linearGradient>
<linearGradient id="paint2_linear_8200_28725" x1="14.2487" y1="75.8621" x2="79.1022" y2="15.4868" gradientUnits="userSpaceOnUse">
<stop stop-color="#D2CBFF" stop-opacity="0.2"/>
<stop offset="1" stop-color="#78FFF7" stop-opacity="0.49"/>
</linearGradient>
<linearGradient id="paint3_linear_8200_28725" x1="15.2131" y1="12.4691" x2="76.6178" y2="73.5915" gradientUnits="userSpaceOnUse">
<stop stop-color="#CED0FF"/>
<stop offset="1" stop-color="#D6D7FD"/>
</linearGradient>
</defs>
</svg>
