<svg width="91" height="92" viewBox="0 0 91 92" fill="none" xmlns="http://www.w3.org/2000/svg">
<g filter="url(#filter0_di_8199_28581)">
<path d="M61.9558 72.9098C62.3805 71.7779 63.2761 70.8823 64.408 70.4576L70.4005 68.2104C72.631 67.3735 74.4346 65.6326 75.3447 63.4336C76.2549 61.2303 76.2152 58.7258 75.2276 56.5581L72.5828 50.733C72.0807 49.6282 72.0786 48.3666 72.5828 47.2639L75.2276 41.4388C76.2151 39.2711 76.2549 36.7666 75.3447 34.5633C74.4387 32.3684 72.631 30.6234 70.4005 29.7865L64.408 27.5393C63.2719 27.1146 62.3763 26.219 61.9558 25.0871L59.7065 19.0925C58.8738 16.862 57.1287 15.0543 54.9297 14.1483C52.7285 13.236 50.2219 13.2779 48.0542 14.2654L42.2291 16.9102C41.1264 17.4144 39.8627 17.4144 38.76 16.9102L32.9349 14.2654C30.7672 13.2779 28.2606 13.236 26.0594 14.1483C23.8604 15.0584 22.1195 16.862 21.2826 19.0925L19.0354 25.085C18.6107 26.2169 17.7152 27.1125 16.5832 27.5372L10.5907 29.7844C8.36026 30.6213 6.55665 32.3622 5.64648 34.5612C4.73631 36.7645 4.77606 39.269 5.76365 41.4367L8.40838 47.2618C8.91054 48.3666 8.91264 49.6282 8.40838 50.7309L5.76365 56.556C4.77606 58.7237 4.73631 61.2282 5.64648 63.4315C6.08169 64.4818 6.72195 65.4318 7.51704 66.2268C8.38118 67.091 9.42735 67.7731 10.5907 68.2083L16.5832 70.4555C17.7193 70.8802 18.6149 71.7758 19.0354 72.9077L21.2826 78.9002C22.1154 81.1307 23.8625 82.9364 26.0594 83.8444C28.2627 84.7546 30.7672 84.7148 32.9349 83.7273L38.76 81.0825C39.8648 80.5804 41.1265 80.5783 42.2291 81.0825L48.0542 83.7273C50.2219 84.7148 52.7264 84.7546 54.9297 83.8444C57.1287 82.9343 58.8696 81.1307 59.7065 78.9002L61.9558 72.9098Z" fill="url(#paint0_linear_8199_28581)"/>
</g>
<g filter="url(#filter1_b_8199_28581)">
<path d="M61.9558 72.9098C62.3805 71.7779 63.2761 70.8823 64.408 70.4576L70.4005 68.2104C72.631 67.3735 74.4346 65.6326 75.3447 63.4336C76.2549 61.2303 76.2152 58.7258 75.2276 56.5581L72.5828 50.733C72.0807 49.6282 72.0786 48.3666 72.5828 47.2639L75.2276 41.4388C76.2151 39.2711 76.2549 36.7666 75.3447 34.5633C74.4387 32.3684 72.631 30.6234 70.4005 29.7865L64.408 27.5393C63.2719 27.1146 62.3763 26.219 61.9558 25.0871L59.7065 19.0925C58.8738 16.862 57.1287 15.0543 54.9297 14.1483C52.7285 13.236 50.2219 13.2779 48.0542 14.2654L42.2291 16.9102C41.1264 17.4144 39.8627 17.4144 38.76 16.9102L32.9349 14.2654C30.7672 13.2779 28.2606 13.236 26.0594 14.1483C23.8604 15.0584 22.1195 16.862 21.2826 19.0925L19.0354 25.085C18.6107 26.2169 17.7152 27.1125 16.5832 27.5372L10.5907 29.7844C8.36026 30.6213 6.55665 32.3622 5.64648 34.5612C4.73631 36.7645 4.77606 39.269 5.76365 41.4367L8.40838 47.2618C8.91054 48.3666 8.91264 49.6282 8.40838 50.7309L5.76365 56.556C4.77606 58.7237 4.73631 61.2282 5.64648 63.4315C6.08169 64.4818 6.72195 65.4318 7.51704 66.2268C8.38118 67.091 9.42735 67.7731 10.5907 68.2083L16.5832 70.4555C17.7193 70.8802 18.6149 71.7758 19.0354 72.9077L21.2826 78.9002C22.1154 81.1307 23.8625 82.9364 26.0594 83.8444C28.2627 84.7546 30.7672 84.7148 32.9349 83.7273L38.76 81.0825C39.8648 80.5804 41.1265 80.5783 42.2291 81.0825L48.0542 83.7273C50.2219 84.7148 52.7264 84.7546 54.9297 83.8444C57.1287 82.9343 58.8696 81.1307 59.7065 78.9002L61.9558 72.9098Z" fill="url(#paint1_linear_8199_28581)"/>
</g>
<path d="M19.7971 37.9634L22.7189 40.9156L19.7971 43.8678L16.8145 40.9156L19.7971 37.9634ZM28.5929 53.8201L31.5147 56.7723L28.5929 59.7245L25.6102 56.7723L28.5929 53.8201ZM26.3407 37.2938H30.2364L21.6232 60.0593H17.7884L26.3407 37.2938Z" fill="white"/>
<path d="M36.7139 59.1463C36.7341 58.5984 36.7443 57.7868 36.7443 56.7114C36.7443 53.4447 36.5718 50.4925 36.2269 47.8548C35.7805 44.5475 35.0196 41.6562 33.9442 39.1808L37.3226 37.1416C37.8907 38.2981 38.3776 39.617 38.7834 41.0982C39.0472 41.8895 39.3617 42.5895 39.7269 43.1982C39.869 42.1228 40.2545 41.1185 40.8835 40.1851C41.5125 39.2518 42.3038 38.5112 43.2574 37.9634C44.2314 37.4155 45.2661 37.1416 46.3618 37.1416C48.1879 37.1416 50.0648 37.9228 51.9923 39.4851L50.4706 42.5895C49.0706 42.0011 47.8329 41.7069 46.7575 41.7069C45.6618 41.7069 44.7488 41.9504 44.0183 42.4373C43.3082 42.904 42.9531 43.5127 42.9531 44.2634C42.9531 44.8924 43.298 45.4403 43.9879 45.9069C44.698 46.3736 45.6415 46.607 46.8183 46.607C48.1981 46.607 49.7604 46.2417 51.5054 45.5113L52.4489 49.4983C51.5561 49.965 50.5619 50.3403 49.4662 50.6244C48.3908 50.8882 47.2952 51.0201 46.1792 51.0201C43.8256 51.0201 41.7864 50.3809 40.0617 49.1026C40.2038 50.8882 40.2748 52.9375 40.2748 55.2506C40.2748 56.1027 40.2545 57.4013 40.2139 59.1463H36.7139Z" fill="white"/>
<path d="M60.2569 58.2636C59.3033 58.2636 58.4207 58.0202 57.6091 57.5332C56.7974 57.0462 56.1482 56.397 55.6612 55.5853C55.1742 54.7737 54.9308 53.8911 54.9308 52.9375C54.9308 51.9838 55.1742 51.1012 55.6612 50.2896C56.1482 49.4577 56.7974 48.8084 57.6091 48.3418C58.4207 47.8548 59.3033 47.6113 60.2569 47.6113C61.2308 47.6113 62.1236 47.8548 62.9352 48.3418C63.7671 48.8084 64.4265 49.4476 64.9135 50.2592C65.4005 51.0708 65.644 51.9636 65.644 52.9375C65.644 53.8911 65.4005 54.7737 64.9135 55.5853C64.4265 56.397 63.7671 57.0462 62.9352 57.5332C62.1236 58.0202 61.2308 58.2636 60.2569 58.2636ZM60.2569 54.9462C60.8048 54.9462 61.2613 54.7535 61.6265 54.3679C62.012 53.9824 62.2048 53.5056 62.2048 52.9375C62.2048 52.3694 62.012 51.9027 61.6265 51.5375C61.2613 51.1519 60.8048 50.9592 60.2569 50.9592C59.7294 50.9592 59.2728 51.1519 58.8873 51.5375C58.5221 51.923 58.3395 52.3896 58.3395 52.9375C58.3395 53.5056 58.5221 53.9824 58.8873 54.3679C59.2728 54.7535 59.7294 54.9462 60.2569 54.9462Z" fill="white"/>
<defs>
<filter id="filter0_di_8199_28581" x="-5.00781" y="0.493164" width="96.0078" height="94.0054" filterUnits="userSpaceOnUse" color-interpolation-filters="sRGB">
<feFlood flood-opacity="0" result="BackgroundImageFix"/>
<feColorMatrix in="SourceAlpha" type="matrix" values="0 0 0 0 0 0 0 0 0 0 0 0 0 0 0 0 0 0 127 0" result="hardAlpha"/>
<feOffset dx="5" dy="-3"/>
<feGaussianBlur stdDeviation="5"/>
<feColorMatrix type="matrix" values="0 0 0 0 1 0 0 0 0 0.173096 0 0 0 0 0.502901 0 0 0 0.4 0"/>
<feBlend mode="normal" in2="BackgroundImageFix" result="effect1_dropShadow_8199_28581"/>
<feBlend mode="normal" in="SourceGraphic" in2="effect1_dropShadow_8199_28581" result="shape"/>
<feColorMatrix in="SourceAlpha" type="matrix" values="0 0 0 0 0 0 0 0 0 0 0 0 0 0 0 0 0 0 127 0" result="hardAlpha"/>
<feOffset dx="-10" dy="10"/>
<feGaussianBlur stdDeviation="10"/>
<feComposite in2="hardAlpha" operator="arithmetic" k2="-1" k3="1"/>
<feColorMatrix type="matrix" values="0 0 0 0 1 0 0 0 0 1 0 0 0 0 1 0 0 0 0.24 0"/>
<feBlend mode="normal" in2="shape" result="effect2_innerShadow_8199_28581"/>
</filter>
<filter id="filter1_b_8199_28581" x="-8.00781" y="0.493164" width="97.0078" height="97.0054" filterUnits="userSpaceOnUse" color-interpolation-filters="sRGB">
<feFlood flood-opacity="0" result="BackgroundImageFix"/>
<feGaussianBlur in="BackgroundImageFix" stdDeviation="6.5"/>
<feComposite in2="SourceAlpha" operator="in" result="effect1_backgroundBlur_8199_28581"/>
<feBlend mode="normal" in="SourceGraphic" in2="effect1_backgroundBlur_8199_28581" result="shape"/>
</filter>
<linearGradient id="paint0_linear_8199_28581" x1="4.99219" y1="48.9959" x2="75.999" y2="48.9959" gradientUnits="userSpaceOnUse">
<stop stop-color="#FF6A6A"/>
<stop offset="1" stop-color="#FF247B"/>
<stop offset="1" stop-color="#FE5196"/>
</linearGradient>
<linearGradient id="paint1_linear_8199_28581" x1="40.8301" y1="56.0558" x2="-24.7397" y2="33.3886" gradientUnits="userSpaceOnUse">
<stop stop-color="#FF5295"/>
<stop offset="1" stop-color="#DC1906"/>
</linearGradient>
</defs>
</svg>
