<svg width="79" height="84" viewBox="0 0 79 84" fill="none" xmlns="http://www.w3.org/2000/svg">
<path d="M47.3311 0H23.873C18.6125 0 14.3516 4.23689 14.3516 9.46769V61.5258C14.3516 66.7566 18.6125 70.9936 23.873 70.9936H59.5656C64.8261 70.9936 69.0871 66.7566 69.0871 61.5258V21.6331C69.0871 19.1228 68.0818 16.7147 66.2997 14.937L54.0652 2.77159C52.2774 0.993913 49.8557 0 47.3311 0Z" fill="url(#paint0_linear_8201_28873)"/>
<path d="M45.1651 0H21.707C16.4465 0 12.1855 4.23689 12.1855 9.46769V61.5258C12.1855 66.7566 16.4465 70.9936 21.707 70.9936H57.3996C62.6601 70.9936 66.921 66.7566 66.921 61.5258V21.6331C66.921 19.1228 65.9158 16.7147 64.1337 14.937L51.8992 2.77159C50.1114 0.993913 47.6896 0 45.1651 0Z" fill="url(#paint1_linear_8201_28873)"/>
<g filter="url(#filter0_b_8201_28873)">
<path d="M44.4275 40.6219V36.0558C44.4275 32.9052 41.8578 30.3481 38.6917 30.3481H5.99753C2.83136 30.3481 0.261719 32.9052 0.261719 36.0558V76.5912C0.261719 80.6836 3.59423 83.9998 7.70681 83.9998H71.3973C75.5099 83.9998 78.8424 80.6836 78.8424 76.5912V48.0303C78.8424 43.938 75.5099 40.6219 71.3973 40.6219H44.4275Z" fill="url(#paint2_linear_8201_28873)"/>
<path d="M43.6775 40.6219V41.3719H44.4275H71.3973C75.0991 41.3719 78.0924 44.3557 78.0924 48.0303V76.5912C78.0924 80.2659 75.0991 83.2498 71.3973 83.2498H7.70681C4.00495 83.2498 1.01172 80.2659 1.01172 76.5912V36.0558C1.01172 33.3229 3.24209 31.0981 5.99753 31.0981H38.6917C41.4471 31.0981 43.6775 33.3229 43.6775 36.0558V40.6219Z" stroke="url(#paint3_linear_8201_28873)" stroke-width="1.5"/>
</g>
<defs>
<filter id="filter0_b_8201_28873" x="-17.7383" y="12.3481" width="114.58" height="89.6519" filterUnits="userSpaceOnUse" color-interpolation-filters="sRGB">
<feFlood flood-opacity="0" result="BackgroundImageFix"/>
<feGaussianBlur in="BackgroundImageFix" stdDeviation="9"/>
<feComposite in2="SourceAlpha" operator="in" result="effect1_backgroundBlur_8201_28873"/>
<feBlend mode="normal" in="SourceGraphic" in2="effect1_backgroundBlur_8201_28873" result="shape"/>
</filter>
<linearGradient id="paint0_linear_8201_28873" x1="16.185" y1="5.25352" x2="61.0275" y2="69.7723" gradientUnits="userSpaceOnUse">
<stop stop-color="#FFDC7C"/>
<stop offset="1" stop-color="#F78D1E"/>
</linearGradient>
<linearGradient id="paint1_linear_8201_28873" x1="14.019" y1="5.25352" x2="58.8615" y2="69.7723" gradientUnits="userSpaceOnUse">
<stop stop-color="#FFDC7C"/>
<stop offset="1" stop-color="#F78D1E"/>
</linearGradient>
<linearGradient id="paint2_linear_8201_28873" x1="4.69805" y1="80.9708" x2="49.0248" y2="16.0478" gradientUnits="userSpaceOnUse">
<stop stop-color="white" stop-opacity="0.2"/>
<stop offset="1" stop-color="white" stop-opacity="0.49"/>
</linearGradient>
<linearGradient id="paint3_linear_8201_28873" x1="5.80863" y1="34.5677" x2="46.5854" y2="98.4261" gradientUnits="userSpaceOnUse">
<stop stop-color="#FFE600"/>
<stop offset="1" stop-color="#FFCC9D"/>
</linearGradient>
</defs>
</svg>
