<svg width="150" height="42" viewBox="0 0 150 42" fill="none" xmlns="http://www.w3.org/2000/svg">
<path d="M19.2038 2.06299V18.7859H16.9574V6.68051L11.7908 12.1966H11.1917L5.90029 6.68051V18.7859H3.65393V2.06299H4.3528L11.4912 9.72558L18.5049 2.06299H19.2038Z" fill="#1242E0"/>
<path d="M29.2125 6.05652C30.4938 6.05652 31.5587 6.32276 32.4074 6.85523C33.256 7.3877 33.8883 8.11153 34.3043 9.02671C34.7369 9.9419 34.9532 10.9736 34.9532 12.1217V13.3447H25.3688C25.4686 14.0436 25.7099 14.6842 26.0926 15.2666C26.4753 15.849 26.9745 16.3149 27.5902 16.6643C28.2058 16.9971 28.913 17.1635 29.7117 17.1635C30.6103 17.1635 31.4506 16.9389 32.2327 16.4896C33.0147 16.0237 33.672 15.5162 34.2045 14.9671L34.1795 17.1885C33.9465 17.4714 33.5971 17.7709 33.1312 18.087C32.6819 18.3866 32.1578 18.6362 31.5587 18.8358C30.9764 19.0521 30.3607 19.1603 29.7117 19.1603C28.4471 19.1603 27.3239 18.8608 26.3422 18.2618C25.3604 17.6627 24.5867 16.8723 24.021 15.8906C23.4718 14.8922 23.1973 13.8023 23.1973 12.6209C23.1973 11.4395 23.4552 10.3496 23.971 9.35119C24.4869 8.3528 25.1941 7.5541 26.0926 6.95507C27.0078 6.35604 28.0478 6.05652 29.2125 6.05652ZM29.2125 8.05329C28.1809 8.05329 27.3323 8.40272 26.6667 9.10159C26.0011 9.78382 25.5851 10.6158 25.4187 11.5975H32.9315C32.8483 10.7822 32.6154 10.1166 32.2327 9.60078C31.8666 9.08495 31.4173 8.70224 30.8848 8.45264C30.3524 8.18641 29.7949 8.05329 29.2125 8.05329Z" fill="#1242E0"/>
<path d="M41.7672 2.71194V6.30612H45.4113V8.22801H41.7672V15.5412C41.7672 16.057 41.9003 16.4647 42.1666 16.7642C42.4328 17.0637 42.8405 17.2135 43.3896 17.2135C43.8888 17.2135 44.3048 17.1552 44.6376 17.0387C44.9704 16.9056 45.2616 16.7642 45.5112 16.6144V18.2867C45.1784 18.553 44.8206 18.761 44.4379 18.9107C44.0718 19.0771 43.5726 19.1603 42.9403 19.1603C41.8754 19.1603 41.0683 18.8441 40.5192 18.2118C39.9868 17.5629 39.7205 16.7059 39.7205 15.641V8.22801H37.3244V7.62898C38.1398 7.2629 38.822 6.66387 39.3711 5.83189C39.9202 4.98326 40.4028 3.94328 40.8188 2.71194H41.7672Z" fill="#1242E0"/>
<path d="M54.272 6.05652C54.9875 6.05652 55.7113 6.23124 56.4435 6.58067C57.1922 6.91347 57.8329 7.37938 58.3653 7.97841V6.30612H60.412V18.7859H58.3653V16.6643C57.9327 17.3299 57.342 17.9123 56.5932 18.4115C55.8611 18.9107 55.0208 19.1603 54.0723 19.1603C53.0073 19.1603 52.0339 18.8941 51.152 18.3616C50.2701 17.8125 49.5629 17.0554 49.0305 16.0903C48.5146 15.1252 48.2567 14.0103 48.2567 12.7457C48.2567 11.3646 48.5146 10.1749 49.0305 9.17647C49.5629 8.17809 50.2868 7.41266 51.2019 6.88019C52.1171 6.33108 53.1405 6.05652 54.272 6.05652ZM54.6464 8.05329C53.7478 8.05329 52.9824 8.27792 52.3501 8.7272C51.7178 9.17647 51.2269 9.75886 50.8775 10.4744C50.5447 11.1732 50.3783 11.9303 50.3783 12.7457C50.3783 13.5444 50.5447 14.2849 50.8775 14.9671C51.2103 15.6327 51.6762 16.1652 52.2752 16.5645C52.8909 16.9639 53.5981 17.1635 54.3968 17.1635C55.1622 17.1635 55.8444 16.9639 56.4435 16.5645C57.0425 16.1652 57.5167 15.616 57.8661 14.9172C58.2156 14.2017 58.382 13.403 58.3653 12.5211L58.3404 10.1249C57.8245 9.47598 57.2671 8.96847 56.6681 8.6024C56.0857 8.23633 55.4118 8.05329 54.6464 8.05329Z" fill="#1242E0"/>
<path d="M67.4054 2.16836V10.9608L75.0488 2.16836H78.1961L71.1772 9.8867L78.9455 18.9039H75.8232L69.5536 11.6852L67.4054 14.0331V18.9039H65.1573V2.16836H67.4054Z" fill="white"/>
<path d="M87.4381 6.16491C88.2874 6.16491 89.0617 6.35641 89.7611 6.73942C90.4605 7.10577 91.0184 7.67195 91.4347 8.43795C91.851 9.18731 92.0592 10.1365 92.0592 11.2855V18.9039H90.0109L89.9859 11.4853C89.9859 10.4029 89.7445 9.57863 89.2616 9.01246C88.7953 8.44628 88.0709 8.16319 87.0884 8.16319C86.4224 8.16319 85.7563 8.41297 85.0902 8.91254C84.4407 9.39546 83.8662 9.96164 83.3667 10.6111V18.9039H81.3184V0.919434H83.3667V8.38799C83.6331 8.05495 83.9745 7.7219 84.3908 7.38886C84.8071 7.03916 85.2733 6.74774 85.7896 6.51461C86.3224 6.28148 86.872 6.16491 87.4381 6.16491Z" fill="white"/>
<path d="M101.576 6.16491C102.842 6.16491 103.966 6.46465 104.948 7.06414C105.931 7.66362 106.697 8.46293 107.246 9.46207C107.812 10.4612 108.095 11.5519 108.095 12.7342C108.095 13.9166 107.812 15.0073 107.246 16.0064C106.697 16.9889 105.931 17.7799 104.948 18.3794C103.966 18.9789 102.842 19.2786 101.576 19.2786C100.31 19.2786 99.1863 18.9789 98.2039 18.3794C97.2214 17.7799 96.447 16.9889 95.8809 16.0064C95.3313 15.0073 95.0566 13.9166 95.0566 12.7342C95.0566 11.5519 95.3313 10.4612 95.8809 9.46207C96.447 8.46293 97.2214 7.66362 98.2039 7.06414C99.1863 6.46465 100.31 6.16491 101.576 6.16491ZM101.576 8.16319C100.693 8.16319 99.9191 8.37967 99.253 8.81263C98.5869 9.22894 98.0706 9.78679 97.7043 10.4862C97.3546 11.1689 97.1797 11.9183 97.1797 12.7342C97.1797 13.5336 97.3546 14.2829 97.7043 14.9823C98.0706 15.6651 98.5869 16.2229 99.253 16.6559C99.9191 17.0722 100.693 17.2803 101.576 17.2803C102.475 17.2803 103.25 17.0722 103.899 16.6559C104.565 16.2229 105.073 15.6651 105.423 14.9823C105.789 14.2829 105.972 13.5336 105.972 12.7342C105.972 11.9183 105.789 11.1689 105.423 10.4862C105.073 9.78679 104.565 9.22894 103.899 8.81263C103.25 8.37967 102.475 8.16319 101.576 8.16319Z" fill="white"/>
<path d="M122.758 0.919434V18.9039H120.709V16.7808C120.277 17.4468 119.685 18.0297 118.936 18.5293C118.203 19.0288 117.362 19.2786 116.413 19.2786C115.347 19.2786 114.373 19.0122 113.491 18.4793C112.608 17.9298 111.9 17.1721 111.368 16.2063C110.851 15.2404 110.593 14.1247 110.593 12.8591C110.593 11.477 110.851 10.2864 111.368 9.28722C111.9 8.28808 112.625 7.52207 113.541 6.9892C114.457 6.43967 115.481 6.16491 116.613 6.16491C117.329 6.16491 118.053 6.33976 118.786 6.68946C119.535 7.0225 120.177 7.48877 120.709 8.08825V0.919434H122.758ZM116.988 8.21314C116.088 8.21314 115.322 8.43795 114.69 8.88756C114.057 9.32052 113.566 9.8867 113.216 10.5861C112.883 11.2855 112.716 12.0432 112.716 12.8591C112.716 13.6585 112.883 14.3995 113.216 15.0822C113.549 15.7483 114.015 16.2812 114.615 16.6808C115.231 17.0805 115.939 17.2803 116.738 17.2803C117.504 17.2803 118.187 17.0805 118.786 16.6808C119.386 16.2812 119.86 15.7317 120.21 15.0323C120.56 14.3162 120.726 13.5169 120.709 12.6343L120.684 10.2364C120.168 9.58696 119.61 9.08739 119.011 8.73769C118.428 8.38799 117.754 8.21314 116.988 8.21314Z" fill="white"/>
<path d="M129.052 6.4147V8.91254C129.535 8.07993 130.118 7.41383 130.801 6.91426C131.484 6.4147 132.183 6.16491 132.899 6.16491C133.382 6.16491 133.815 6.24817 134.198 6.4147V8.78765C133.665 8.47126 133.132 8.31306 132.599 8.31306C131.75 8.31306 131.059 8.6128 130.526 9.21228C130.01 9.81177 129.519 10.5278 129.052 11.3604V18.9039H127.004V6.4147H129.052Z" fill="white"/>
<path d="M142.466 6.16491C143.731 6.16491 144.855 6.46465 145.838 7.06414C146.82 7.66362 147.586 8.46293 148.136 9.46207C148.702 10.4612 148.985 11.5519 148.985 12.7342C148.985 13.9166 148.702 15.0073 148.136 16.0064C147.586 16.9889 146.82 17.7799 145.838 18.3794C144.855 18.9789 143.731 19.2786 142.466 19.2786C141.2 19.2786 140.076 18.9789 139.094 18.3794C138.111 17.7799 137.337 16.9889 136.771 16.0064C136.221 15.0073 135.946 13.9166 135.946 12.7342C135.946 11.5519 136.221 10.4612 136.771 9.46207C137.337 8.46293 138.111 7.66362 139.094 7.06414C140.076 6.46465 141.2 6.16491 142.466 6.16491ZM142.466 8.16319C141.583 8.16319 140.809 8.37967 140.143 8.81263C139.477 9.22894 138.96 9.78679 138.594 10.4862C138.244 11.1689 138.069 11.9183 138.069 12.7342C138.069 13.5336 138.244 14.2829 138.594 14.9823C138.96 15.6651 139.477 16.2229 140.143 16.6559C140.809 17.0722 141.583 17.2803 142.466 17.2803C143.365 17.2803 144.139 17.0722 144.789 16.6559C145.455 16.2229 145.963 15.6651 146.312 14.9823C146.679 14.2829 146.862 13.5336 146.862 12.7342C146.862 11.9183 146.679 11.1689 146.312 10.4862C145.963 9.78679 145.455 9.22894 144.789 8.81263C144.139 8.37967 143.365 8.16319 142.466 8.16319Z" fill="white"/>
<path d="M1.32485 39.4335C2.49435 39.4335 3.47797 39.3444 4.2757 39.1663C5.07344 38.9881 5.70466 38.7132 6.16937 38.3414C6.57211 38.0161 6.86642 37.6018 7.0523 37.0984C7.24592 36.5949 7.34274 35.9676 7.34274 35.2163H5.20511C4.66296 35.2163 4.11306 35.135 3.55542 34.9723C2.99777 34.8097 2.49047 34.5425 2.03352 34.1707C1.5843 33.799 1.21642 33.3149 0.929849 32.7185C0.643283 32.1144 0.5 31.3786 0.5 30.5112C0.5 30 0.542598 29.5392 0.627793 29.1287C0.720733 28.7105 0.833036 28.3387 0.964702 28.0134C1.10411 27.6881 1.25514 27.4054 1.41779 27.1653C1.58043 26.9253 1.73921 26.72 1.89411 26.5496C2.32008 26.1236 2.80802 25.7945 3.35792 25.5621C3.90782 25.3298 4.49644 25.2136 5.12379 25.2136C5.67368 25.2136 6.18873 25.2988 6.66892 25.4692C7.14911 25.6396 7.57896 25.8952 7.95847 26.2359C9.00405 27.2118 9.52684 28.7415 9.52684 30.8249V35.2163C9.52684 36.3161 9.36419 37.261 9.0389 38.051C8.72135 38.8487 8.22567 39.5148 7.55185 40.0492C6.87029 40.5836 6.02221 40.9786 5.00761 41.2342C4.00076 41.4975 2.77317 41.6292 1.32485 41.6292V39.4335ZM5.12379 27.4093C4.35703 27.4093 3.76066 27.6804 3.33468 28.2225C2.90871 28.7647 2.69572 29.5276 2.69572 30.5112C2.69572 31.5103 2.99777 32.2035 3.60189 32.5907C3.74904 32.6837 3.90007 32.7611 4.05497 32.8231C4.20987 32.8773 4.3609 32.9199 4.50806 32.9509C4.65521 32.9741 4.78688 32.9935 4.90305 33.009C5.02697 33.0167 5.12766 33.0206 5.20511 33.0206H7.34274V30.8249C7.34274 30.2595 7.30014 29.7832 7.21494 29.3959C7.12975 29.0009 7.02132 28.6756 6.88965 28.42C6.75799 28.1645 6.60696 27.9708 6.43657 27.8392C6.27392 27.6998 6.11128 27.5991 5.94863 27.5371C5.78599 27.4751 5.63109 27.4403 5.48393 27.4325C5.33677 27.4171 5.21673 27.4093 5.12379 27.4093Z" fill="white"/>
<path d="M10.9884 41.664V39.4683H12.5916C13.3893 39.4683 14.0786 39.3715 14.6595 39.1779C15.2481 38.992 15.7322 38.7016 16.1117 38.3066C16.499 37.9116 16.7817 37.4082 16.9598 36.7963C17.1457 36.1844 17.2386 35.4564 17.2386 34.6122V27.3628H19.4343V34.6122C19.4343 35.7197 19.2872 36.7072 18.9929 37.5747C18.7063 38.4499 18.2765 39.1895 17.7033 39.7936C17.1302 40.3977 16.4138 40.8586 15.5541 41.1761C14.7021 41.5014 13.7146 41.664 12.5916 41.664H10.9884Z" fill="white"/>
<path d="M26.8812 35.3906C26.4862 35.3906 26.0873 35.3712 25.6846 35.3325C25.2818 35.3015 24.8868 35.2512 24.4996 35.1815C24.1201 35.104 23.7522 35.0072 23.3959 34.891C23.0474 34.7671 22.7299 34.6199 22.4433 34.4496L21.479 33.9035L22.5711 31.9866L23.5353 32.5327C23.8064 32.6876 24.1395 32.8153 24.5344 32.916C24.9294 33.009 25.3477 33.0748 25.7891 33.1135C26.1686 33.1523 26.5482 33.1716 26.9277 33.1716C26.9974 33.1716 27.16 33.1716 27.4156 33.1716C27.6712 33.1639 27.9887 33.1329 28.3682 33.0787C28.8174 33.009 29.1853 32.9122 29.4719 32.7882C29.7662 32.6566 29.9521 32.5094 30.0295 32.3468C30.0605 32.2693 30.076 32.1841 30.076 32.0912C30.076 31.9595 30.0373 31.7775 29.9598 31.5452C29.8824 31.3051 29.7197 30.9991 29.4719 30.6274L25.2664 24.2726L27.1252 23.0644C27.2258 23.2193 27.3304 23.3819 27.4388 23.5523C27.5473 23.7149 27.6751 23.9086 27.8222 24.1332C27.9694 24.35 28.1398 24.6095 28.3334 24.9115C28.527 25.2059 28.7632 25.5621 29.0421 25.9804C29.3209 26.3986 29.6462 26.8865 30.0179 27.4442C30.3897 28.0018 30.8234 28.6524 31.3191 29.3959C31.5127 29.6902 31.687 30 31.8419 30.3253C31.9968 30.6429 32.113 30.9643 32.1904 31.2896C32.2601 31.5839 32.295 31.8782 32.295 32.1725C32.295 32.2035 32.2911 32.3119 32.2834 32.4978C32.2756 32.6759 32.1982 32.9238 32.051 33.2413C31.5631 34.3334 30.44 35.0072 28.6819 35.2628C28.4108 35.3015 28.1243 35.3325 27.8222 35.3557C27.5202 35.379 27.2065 35.3906 26.8812 35.3906Z" fill="white"/>
<path d="M35.4975 39.4335C36.667 39.4335 37.6506 39.3444 38.4484 39.1663C39.2461 38.9881 39.8773 38.7132 40.342 38.3414C40.7448 38.0161 41.0391 37.6018 41.225 37.0984C41.4186 36.5949 41.5154 35.9676 41.5154 35.2163H39.3778C38.8356 35.2163 38.2857 35.135 37.7281 34.9723C37.1704 34.8097 36.6631 34.5425 36.2062 34.1707C35.757 33.799 35.3891 33.3149 35.1025 32.7185C34.8159 32.1144 34.6727 31.3786 34.6727 30.5112C34.6727 30 34.7153 29.5392 34.8005 29.1287C34.8934 28.7105 35.0057 28.3387 35.1374 28.0134C35.2768 27.6881 35.4278 27.4054 35.5905 27.1653C35.7531 26.9253 35.9119 26.72 36.0668 26.5496C36.4928 26.1236 36.9807 25.7945 37.5306 25.5621C38.0805 25.3298 38.6691 25.2136 39.2965 25.2136C39.8464 25.2136 40.3614 25.2988 40.8416 25.4692C41.3218 25.6396 41.7516 25.8952 42.1311 26.2359C43.1767 27.2118 43.6995 28.7415 43.6995 30.8249V33.0206H45.4421V35.2163H43.6995C43.6995 36.3161 43.5369 37.261 43.2116 38.051C42.894 38.8487 42.3983 39.5148 41.7245 40.0492C41.043 40.5836 40.1949 40.9786 39.1803 41.2342C38.1734 41.4975 36.9458 41.6292 35.4975 41.6292V39.4335ZM39.1803 27.4093C38.4135 27.4093 37.8172 27.6804 37.3912 28.2225C36.9652 28.7647 36.7522 29.5276 36.7522 30.5112C36.7522 31.5103 37.0543 32.2035 37.6584 32.5907C37.8055 32.6837 37.9566 32.7611 38.1115 32.8231C38.2664 32.8773 38.4174 32.9199 38.5645 32.9509C38.7117 32.9741 38.8434 32.9935 38.9595 33.009C39.0835 33.0167 39.1842 33.0206 39.2616 33.0206H41.3992V30.8249C41.3992 30.2595 41.3566 29.7832 41.2714 29.3959C41.1862 29.0009 41.0778 28.6756 40.9461 28.42C40.8145 28.1645 40.6635 27.9708 40.4931 27.8392C40.3304 27.6998 40.1678 27.5991 40.0051 27.5371C39.8425 27.4751 39.6876 27.4403 39.5404 27.4325C39.3933 27.4171 39.2732 27.4093 39.1803 27.4093Z" fill="white"/>
<path d="M50.0641 33.0206C50.1493 33.0206 50.1919 33.0516 50.1919 33.1135V35.1001C50.1919 35.1776 50.1493 35.2163 50.0641 35.2163H45.0918C45.0143 35.2163 44.9756 35.1776 44.9756 35.1001V33.1135C44.9756 33.0516 45.0143 33.0206 45.0918 33.0206H50.0641Z" fill="white"/>
<path d="M54.8064 33.0206C54.8916 33.0206 54.9342 33.0516 54.9342 33.1135V35.1001C54.9342 35.1776 54.8916 35.2163 54.8064 35.2163H49.8341C49.7567 35.2163 49.7179 35.1776 49.7179 35.1001V33.1135C49.7179 33.0516 49.7567 33.0206 49.8341 33.0206H54.8064Z" fill="white"/>
<path d="M59.5487 33.0206C59.6339 33.0206 59.6765 33.0516 59.6765 33.1135V35.1001C59.6765 35.1776 59.6339 35.2163 59.5487 35.2163H54.5764C54.499 35.2163 54.4603 35.1776 54.4603 35.1001V33.1135C54.4603 33.0516 54.499 33.0206 54.5764 33.0206H59.5487Z" fill="white"/>
<path d="M64.2911 33.0206C64.3763 33.0206 64.4189 33.0516 64.4189 33.1135V35.1001C64.4189 35.1776 64.3763 35.2163 64.2911 35.2163H59.3188C59.2413 35.2163 59.2026 35.1776 59.2026 35.1001V33.1135C59.2026 33.0516 59.2413 33.0206 59.3188 33.0206H64.2911Z" fill="white"/>
<path d="M69.0334 33.0206C69.1186 33.0206 69.1612 33.0516 69.1612 33.1135V35.1001C69.1612 35.1776 69.1186 35.2163 69.0334 35.2163H64.0611C63.9836 35.2163 63.9449 35.1776 63.9449 35.1001V33.1135C63.9449 33.0516 63.9836 33.0206 64.0611 33.0206H69.0334Z" fill="white"/>
<path d="M73.7757 33.0206C73.8609 33.0206 73.9035 33.0516 73.9035 33.1135V35.1001C73.9035 35.1776 73.8609 35.2163 73.7757 35.2163H68.8034C68.726 35.2163 68.6872 35.1776 68.6872 35.1001V33.1135C68.6872 33.0516 68.726 33.0206 68.8034 33.0206H73.7757Z" fill="white"/>
<path d="M78.518 33.0206C78.6032 33.0206 78.6458 33.0516 78.6458 33.1135V35.1001C78.6458 35.1776 78.6032 35.2163 78.518 35.2163H73.5457C73.4683 35.2163 73.4295 35.1776 73.4295 35.1001V33.1135C73.4295 33.0516 73.4683 33.0206 73.5457 33.0206H78.518Z" fill="white"/>
<path d="M83.2604 33.0206C83.3456 33.0206 83.3881 33.0516 83.3881 33.1135V35.1001C83.3881 35.1776 83.3456 35.2163 83.2604 35.2163H78.288C78.2106 35.2163 78.1719 35.1776 78.1719 35.1001V33.1135C78.1719 33.0516 78.2106 33.0206 78.288 33.0206H83.2604Z" fill="white"/>
<path d="M88.0027 33.0206C88.0879 33.0206 88.1305 33.0516 88.1305 33.1135V35.1001C88.1305 35.1776 88.0879 35.2163 88.0027 35.2163H83.0304C82.9529 35.2163 82.9142 35.1776 82.9142 35.1001V33.1135C82.9142 33.0516 82.9529 33.0206 83.0304 33.0206H88.0027Z" fill="white"/>
<path d="M92.745 33.0206C92.8302 33.0206 92.8728 33.0516 92.8728 33.1135V35.1001C92.8728 35.1776 92.8302 35.2163 92.745 35.2163H87.7727C87.6952 35.2163 87.6565 35.1776 87.6565 35.1001V33.1135C87.6565 33.0516 87.6952 33.0206 87.7727 33.0206H92.745Z" fill="white"/>
<path d="M97.4873 33.0206C97.5725 33.0206 97.6151 33.0516 97.6151 33.1135V35.1001C97.6151 35.1776 97.5725 35.2163 97.4873 35.2163H92.515C92.4376 35.2163 92.3988 35.1776 92.3988 35.1001V33.1135C92.3988 33.0516 92.4376 33.0206 92.515 33.0206H97.4873Z" fill="white"/>
<path d="M102.23 33.0206C102.315 33.0206 102.357 33.0516 102.357 33.1135V35.1001C102.357 35.1776 102.315 35.2163 102.23 35.2163H97.2573C97.1799 35.2163 97.1412 35.1776 97.1412 35.1001V33.1135C97.1412 33.0516 97.1799 33.0206 97.2573 33.0206H102.23Z" fill="white"/>
<path d="M117.544 30.5693C117.497 30.6003 117.296 30.7358 116.94 30.9759C116.584 31.216 116.107 31.5103 115.511 31.8588C114.922 32.1996 114.233 32.5675 113.443 32.9625C112.653 33.3575 111.801 33.7215 110.887 34.0546C109.981 34.3876 109.032 34.6664 108.041 34.891C107.049 35.1079 106.058 35.2163 105.067 35.2163H101.883V33.0206H105.067C105.934 33.0206 106.809 32.9199 107.692 32.7185C108.583 32.5094 109.439 32.2538 110.26 31.9518C111.081 31.642 111.851 31.3089 112.572 30.9527C113.292 30.5887 113.923 30.2479 114.465 29.9303C113.714 29.6283 112.963 29.334 112.211 29.0474C111.468 28.7608 110.786 28.5091 110.167 28.2922C109.547 28.0676 109.013 27.8856 108.564 27.7462C108.122 27.6068 107.828 27.5255 107.681 27.5023C107.549 27.5023 107.41 27.5139 107.262 27.5371C107.123 27.5603 106.984 27.63 106.844 27.7462C106.705 27.8624 106.569 28.0444 106.438 28.2922C106.306 28.5323 106.182 28.8731 106.066 29.3146L103.94 28.757C104.536 26.4644 105.791 25.3182 107.704 25.3182C107.75 25.3182 107.812 25.322 107.89 25.3298C107.967 25.3298 108.079 25.3491 108.227 25.3879C108.374 25.4188 108.571 25.4731 108.819 25.5505C109.067 25.6202 109.381 25.7209 109.76 25.8526C110.147 25.9842 110.616 26.1546 111.166 26.3637C111.716 26.5651 112.374 26.8168 113.141 27.1189L117.253 28.6408L117.544 30.5693ZM105.206 20.5666L107.181 18.5684L109.203 20.5898L107.204 22.588L105.206 20.5666Z" fill="white"/>
<path d="M125.753 35.2163C124.94 35.2086 124.266 35.1543 123.732 35.0537C123.205 34.9452 122.756 34.7942 122.384 34.6006C122.02 34.3992 121.726 34.1514 121.501 33.8571C121.284 33.555 121.114 33.2065 120.99 32.8115C120.866 32.4087 120.785 31.9595 120.746 31.4638C120.707 30.9682 120.688 30.4183 120.688 29.8141V18.6381H122.884V29.8141C122.884 30.488 122.903 31.034 122.942 31.4522C122.988 31.8705 123.101 32.1957 123.279 32.4281C123.465 32.6527 123.74 32.8076 124.104 32.8928C124.475 32.9702 125.025 33.0128 125.753 33.0206V35.2163Z" fill="white"/>
<path d="M137.982 33.0206V35.2163H135.949C135.244 35.2163 134.621 35.1156 134.078 34.9143C133.544 34.7129 133.114 34.4108 132.789 34.0081C131.983 34.8136 130.791 35.2163 129.211 35.2163H125.261V33.0206H129.211C129.768 33.0206 130.21 32.9664 130.535 32.8579C130.86 32.7418 131.104 32.6024 131.267 32.4397C131.437 32.2693 131.546 32.0834 131.592 31.8821C131.646 31.673 131.674 31.4755 131.674 31.2896V27.3628H133.858V31.2083C133.858 31.4948 133.9 31.7388 133.985 31.9402C134.078 32.1415 134.191 32.3119 134.322 32.4513C134.454 32.583 134.601 32.6876 134.764 32.765C134.934 32.8425 135.097 32.9005 135.252 32.9393C135.407 32.978 135.546 33.0012 135.67 33.009C135.794 33.0167 135.887 33.0206 135.949 33.0206H137.982ZM134.218 24.5282L132.382 22.6694L134.195 20.7873L136.077 22.6694L134.218 24.5282ZM129.768 24.5049L127.933 22.6461L129.745 20.7641L131.627 22.6461L129.768 24.5049Z" fill="white"/>
<path d="M145.899 33.5782C145.953 33.5782 146.026 33.5744 146.119 33.5666C146.22 33.5589 146.325 33.5279 146.433 33.4737C146.549 33.4195 146.661 33.3381 146.77 33.2297C146.886 33.1135 146.987 32.9548 147.072 32.7534C147.165 32.5443 147.238 32.2809 147.293 31.9634C147.355 31.6381 147.386 31.2431 147.386 30.7784C147.386 30.6932 147.378 30.5577 147.362 30.3718C147.347 30.1859 147.312 29.9807 147.258 29.7561C147.204 29.5237 147.122 29.2875 147.014 29.0474C146.913 28.8073 146.774 28.5866 146.596 28.3852C146.417 28.1838 146.201 28.0212 145.945 27.8973C145.689 27.7656 145.38 27.6998 145.016 27.6998C144.675 27.6998 144.384 27.7617 144.144 27.8856C143.912 28.0018 143.714 28.1645 143.552 28.3736C143.389 28.5827 143.254 28.8305 143.145 29.1171C143.037 29.3959 142.936 29.7018 142.843 30.0349C142.75 30.3602 142.657 30.7048 142.564 31.0688C142.471 31.4251 142.363 31.7814 142.239 32.1377C142.642 32.339 143.014 32.5288 143.354 32.7069C143.695 32.8851 144.013 33.04 144.307 33.1716C144.601 33.2955 144.876 33.3962 145.132 33.4737C145.395 33.5434 145.651 33.5782 145.899 33.5782ZM145.016 25.5157C145.775 25.5157 146.433 25.6628 146.991 25.9571C147.556 26.2437 148.025 26.6309 148.396 27.1189C148.768 27.6068 149.043 28.1683 149.221 28.8034C149.407 29.4385 149.5 30.0968 149.5 30.7784C149.5 31.5297 149.434 32.1764 149.303 32.7185C149.179 33.2607 149.012 33.7176 148.803 34.0894C148.594 34.4534 148.358 34.7477 148.094 34.9723C147.839 35.1969 147.575 35.3673 147.304 35.4835C147.041 35.5997 146.785 35.6771 146.538 35.7159C146.29 35.7546 146.077 35.774 145.899 35.774C145.519 35.774 145.155 35.7352 144.807 35.6578C144.458 35.5803 144.102 35.468 143.738 35.3209C143.374 35.1815 142.99 35.0072 142.588 34.7981C142.193 34.589 141.755 34.3527 141.275 34.0894C140.64 34.8407 139.823 35.2163 138.823 35.2163H137.487V33.0206H138.823C139.118 33.0206 139.358 32.9122 139.544 32.6953C139.737 32.4784 139.904 32.1957 140.043 31.8472C140.183 31.4987 140.311 31.0998 140.427 30.6506C140.543 30.2014 140.675 29.7406 140.822 29.2681C140.977 28.7957 141.159 28.3348 141.368 27.8856C141.577 27.4364 141.84 27.0376 142.158 26.689C142.483 26.3405 142.874 26.0578 143.331 25.8409C143.796 25.6241 144.357 25.5157 145.016 25.5157Z" fill="white"/>
<mask id="mask0_364_1398" style="mask-type:alpha" maskUnits="userSpaceOnUse" x="0" y="18" width="150" height="24">
<path d="M1.32485 39.4335C2.49435 39.4335 3.47797 39.3444 4.2757 39.1663C5.07344 38.9881 5.70466 38.7132 6.16937 38.3414C6.57211 38.0161 6.86642 37.6018 7.0523 37.0984C7.24592 36.5949 7.34274 35.9676 7.34274 35.2163H5.20511C4.66296 35.2163 4.11306 35.135 3.55542 34.9723C2.99777 34.8097 2.49047 34.5425 2.03352 34.1707C1.5843 33.799 1.21642 33.3149 0.929849 32.7185C0.643283 32.1144 0.5 31.3786 0.5 30.5112C0.5 30 0.542598 29.5392 0.627793 29.1287C0.720733 28.7105 0.833036 28.3387 0.964702 28.0134C1.10411 27.6881 1.25514 27.4054 1.41779 27.1653C1.58043 26.9253 1.73921 26.72 1.89411 26.5496C2.32008 26.1236 2.80802 25.7945 3.35792 25.5621C3.90782 25.3298 4.49644 25.2136 5.12379 25.2136C5.67368 25.2136 6.18873 25.2988 6.66892 25.4692C7.14911 25.6396 7.57896 25.8952 7.95847 26.2359C9.00405 27.2118 9.52684 28.7415 9.52684 30.8249V35.2163C9.52684 36.3161 9.36419 37.261 9.0389 38.051C8.72135 38.8487 8.22567 39.5148 7.55185 40.0492C6.87029 40.5836 6.02221 40.9786 5.00761 41.2342C4.00076 41.4975 2.77317 41.6292 1.32485 41.6292V39.4335ZM5.12379 27.4093C4.35703 27.4093 3.76066 27.6804 3.33468 28.2225C2.90871 28.7647 2.69572 29.5276 2.69572 30.5112C2.69572 31.5103 2.99777 32.2035 3.60189 32.5907C3.74904 32.6837 3.90007 32.7611 4.05497 32.8231C4.20987 32.8773 4.3609 32.9199 4.50806 32.9509C4.65521 32.9741 4.78688 32.9935 4.90305 33.009C5.02697 33.0167 5.12766 33.0206 5.20511 33.0206H7.34274V30.8249C7.34274 30.2595 7.30014 29.7832 7.21494 29.3959C7.12975 29.0009 7.02132 28.6756 6.88965 28.42C6.75799 28.1645 6.60696 27.9708 6.43657 27.8392C6.27392 27.6998 6.11128 27.5991 5.94863 27.5371C5.78599 27.4751 5.63109 27.4403 5.48393 27.4325C5.33677 27.4171 5.21673 27.4093 5.12379 27.4093Z" fill="#1B2430"/>
<path d="M10.9884 41.664V39.4683H12.5916C13.3893 39.4683 14.0786 39.3715 14.6595 39.1779C15.2481 38.992 15.7322 38.7016 16.1117 38.3066C16.499 37.9116 16.7817 37.4082 16.9598 36.7963C17.1457 36.1844 17.2386 35.4564 17.2386 34.6122V27.3628H19.4343V34.6122C19.4343 35.7197 19.2872 36.7072 18.9929 37.5747C18.7063 38.4499 18.2765 39.1895 17.7033 39.7936C17.1302 40.3977 16.4138 40.8586 15.5541 41.1761C14.7021 41.5014 13.7146 41.664 12.5916 41.664H10.9884Z" fill="#1B2430"/>
<path d="M26.8812 35.3906C26.4862 35.3906 26.0873 35.3712 25.6846 35.3325C25.2818 35.3015 24.8868 35.2512 24.4996 35.1815C24.1201 35.104 23.7522 35.0072 23.3959 34.891C23.0474 34.7671 22.7299 34.6199 22.4433 34.4496L21.479 33.9035L22.5711 31.9866L23.5353 32.5327C23.8064 32.6876 24.1395 32.8153 24.5344 32.916C24.9294 33.009 25.3477 33.0748 25.7891 33.1135C26.1686 33.1523 26.5482 33.1716 26.9277 33.1716C26.9974 33.1716 27.16 33.1716 27.4156 33.1716C27.6712 33.1639 27.9887 33.1329 28.3682 33.0787C28.8174 33.009 29.1853 32.9122 29.4719 32.7882C29.7662 32.6566 29.9521 32.5094 30.0295 32.3468C30.0605 32.2693 30.076 32.1841 30.076 32.0912C30.076 31.9595 30.0373 31.7775 29.9598 31.5452C29.8824 31.3051 29.7197 30.9991 29.4719 30.6274L25.2664 24.2726L27.1252 23.0644C27.2258 23.2193 27.3304 23.3819 27.4388 23.5523C27.5473 23.7149 27.6751 23.9086 27.8222 24.1332C27.9694 24.35 28.1398 24.6095 28.3334 24.9115C28.527 25.2059 28.7632 25.5621 29.0421 25.9804C29.3209 26.3986 29.6462 26.8865 30.0179 27.4442C30.3897 28.0018 30.8234 28.6524 31.3191 29.3959C31.5127 29.6902 31.687 30 31.8419 30.3253C31.9968 30.6429 32.113 30.9643 32.1904 31.2896C32.2601 31.5839 32.295 31.8782 32.295 32.1725C32.295 32.2035 32.2911 32.3119 32.2834 32.4978C32.2756 32.6759 32.1982 32.9238 32.051 33.2413C31.5631 34.3334 30.44 35.0072 28.6819 35.2628C28.4108 35.3015 28.1243 35.3325 27.8222 35.3557C27.5202 35.379 27.2065 35.3906 26.8812 35.3906Z" fill="#1B2430"/>
<path d="M35.4975 39.4335C36.667 39.4335 37.6506 39.3444 38.4484 39.1663C39.2461 38.9881 39.8773 38.7132 40.342 38.3414C40.7448 38.0161 41.0391 37.6018 41.225 37.0984C41.4186 36.5949 41.5154 35.9676 41.5154 35.2163H39.3778C38.8356 35.2163 38.2857 35.135 37.7281 34.9723C37.1704 34.8097 36.6631 34.5425 36.2062 34.1707C35.757 33.799 35.3891 33.3149 35.1025 32.7185C34.8159 32.1144 34.6727 31.3786 34.6727 30.5112C34.6727 30 34.7153 29.5392 34.8005 29.1287C34.8934 28.7105 35.0057 28.3387 35.1374 28.0134C35.2768 27.6881 35.4278 27.4054 35.5905 27.1653C35.7531 26.9253 35.9119 26.72 36.0668 26.5496C36.4928 26.1236 36.9807 25.7945 37.5306 25.5621C38.0805 25.3298 38.6691 25.2136 39.2965 25.2136C39.8464 25.2136 40.3614 25.2988 40.8416 25.4692C41.3218 25.6396 41.7516 25.8952 42.1311 26.2359C43.1767 27.2118 43.6995 28.7415 43.6995 30.8249V33.0206H45.4421V35.2163H43.6995C43.6995 36.3161 43.5369 37.261 43.2116 38.051C42.894 38.8487 42.3983 39.5148 41.7245 40.0492C41.043 40.5836 40.1949 40.9786 39.1803 41.2342C38.1734 41.4975 36.9458 41.6292 35.4975 41.6292V39.4335ZM39.1803 27.4093C38.4135 27.4093 37.8172 27.6804 37.3912 28.2225C36.9652 28.7647 36.7522 29.5276 36.7522 30.5112C36.7522 31.5103 37.0543 32.2035 37.6584 32.5907C37.8055 32.6837 37.9566 32.7611 38.1115 32.8231C38.2664 32.8773 38.4174 32.9199 38.5645 32.9509C38.7117 32.9741 38.8434 32.9935 38.9595 33.009C39.0835 33.0167 39.1842 33.0206 39.2616 33.0206H41.3992V30.8249C41.3992 30.2595 41.3566 29.7832 41.2714 29.3959C41.1862 29.0009 41.0778 28.6756 40.9461 28.42C40.8145 28.1645 40.6635 27.9708 40.4931 27.8392C40.3304 27.6998 40.1678 27.5991 40.0051 27.5371C39.8425 27.4751 39.6876 27.4403 39.5404 27.4325C39.3933 27.4171 39.2732 27.4093 39.1803 27.4093Z" fill="#1B2430"/>
<path d="M50.0641 33.0206C50.1493 33.0206 50.1919 33.0516 50.1919 33.1135V35.1001C50.1919 35.1776 50.1493 35.2163 50.0641 35.2163H45.0918C45.0143 35.2163 44.9756 35.1776 44.9756 35.1001V33.1135C44.9756 33.0516 45.0143 33.0206 45.0918 33.0206H50.0641Z" fill="#1B2430"/>
<path d="M54.8064 33.0206C54.8916 33.0206 54.9342 33.0516 54.9342 33.1135V35.1001C54.9342 35.1776 54.8916 35.2163 54.8064 35.2163H49.8341C49.7567 35.2163 49.7179 35.1776 49.7179 35.1001V33.1135C49.7179 33.0516 49.7567 33.0206 49.8341 33.0206H54.8064Z" fill="#1B2430"/>
<path d="M59.5487 33.0206C59.6339 33.0206 59.6765 33.0516 59.6765 33.1135V35.1001C59.6765 35.1776 59.6339 35.2163 59.5487 35.2163H54.5764C54.499 35.2163 54.4603 35.1776 54.4603 35.1001V33.1135C54.4603 33.0516 54.499 33.0206 54.5764 33.0206H59.5487Z" fill="#1B2430"/>
<path d="M64.2911 33.0206C64.3763 33.0206 64.4189 33.0516 64.4189 33.1135V35.1001C64.4189 35.1776 64.3763 35.2163 64.2911 35.2163H59.3188C59.2413 35.2163 59.2026 35.1776 59.2026 35.1001V33.1135C59.2026 33.0516 59.2413 33.0206 59.3188 33.0206H64.2911Z" fill="#1B2430"/>
<path d="M69.0334 33.0206C69.1186 33.0206 69.1612 33.0516 69.1612 33.1135V35.1001C69.1612 35.1776 69.1186 35.2163 69.0334 35.2163H64.0611C63.9836 35.2163 63.9449 35.1776 63.9449 35.1001V33.1135C63.9449 33.0516 63.9836 33.0206 64.0611 33.0206H69.0334Z" fill="#1B2430"/>
<path d="M73.7757 33.0206C73.8609 33.0206 73.9035 33.0516 73.9035 33.1135V35.1001C73.9035 35.1776 73.8609 35.2163 73.7757 35.2163H68.8034C68.726 35.2163 68.6872 35.1776 68.6872 35.1001V33.1135C68.6872 33.0516 68.726 33.0206 68.8034 33.0206H73.7757Z" fill="#1B2430"/>
<path d="M78.518 33.0206C78.6032 33.0206 78.6458 33.0516 78.6458 33.1135V35.1001C78.6458 35.1776 78.6032 35.2163 78.518 35.2163H73.5457C73.4683 35.2163 73.4295 35.1776 73.4295 35.1001V33.1135C73.4295 33.0516 73.4683 33.0206 73.5457 33.0206H78.518Z" fill="#1B2430"/>
<path d="M83.2604 33.0206C83.3456 33.0206 83.3881 33.0516 83.3881 33.1135V35.1001C83.3881 35.1776 83.3456 35.2163 83.2604 35.2163H78.288C78.2106 35.2163 78.1719 35.1776 78.1719 35.1001V33.1135C78.1719 33.0516 78.2106 33.0206 78.288 33.0206H83.2604Z" fill="#1B2430"/>
<path d="M88.0027 33.0206C88.0879 33.0206 88.1305 33.0516 88.1305 33.1135V35.1001C88.1305 35.1776 88.0879 35.2163 88.0027 35.2163H83.0304C82.9529 35.2163 82.9142 35.1776 82.9142 35.1001V33.1135C82.9142 33.0516 82.9529 33.0206 83.0304 33.0206H88.0027Z" fill="#1B2430"/>
<path d="M92.745 33.0206C92.8302 33.0206 92.8728 33.0516 92.8728 33.1135V35.1001C92.8728 35.1776 92.8302 35.2163 92.745 35.2163H87.7727C87.6952 35.2163 87.6565 35.1776 87.6565 35.1001V33.1135C87.6565 33.0516 87.6952 33.0206 87.7727 33.0206H92.745Z" fill="#1B2430"/>
<path d="M97.4873 33.0206C97.5725 33.0206 97.6151 33.0516 97.6151 33.1135V35.1001C97.6151 35.1776 97.5725 35.2163 97.4873 35.2163H92.515C92.4376 35.2163 92.3988 35.1776 92.3988 35.1001V33.1135C92.3988 33.0516 92.4376 33.0206 92.515 33.0206H97.4873Z" fill="#1B2430"/>
<path d="M102.23 33.0206C102.315 33.0206 102.357 33.0516 102.357 33.1135V35.1001C102.357 35.1776 102.315 35.2163 102.23 35.2163H97.2573C97.1799 35.2163 97.1412 35.1776 97.1412 35.1001V33.1135C97.1412 33.0516 97.1799 33.0206 97.2573 33.0206H102.23Z" fill="#1B2430"/>
<path d="M117.544 30.5693C117.497 30.6003 117.296 30.7358 116.94 30.9759C116.584 31.216 116.107 31.5103 115.511 31.8588C114.922 32.1996 114.233 32.5675 113.443 32.9625C112.653 33.3575 111.801 33.7215 110.887 34.0546C109.981 34.3876 109.032 34.6664 108.041 34.891C107.049 35.1079 106.058 35.2163 105.067 35.2163H101.883V33.0206H105.067C105.934 33.0206 106.809 32.9199 107.692 32.7185C108.583 32.5094 109.439 32.2538 110.26 31.9518C111.081 31.642 111.851 31.3089 112.572 30.9527C113.292 30.5887 113.923 30.2479 114.465 29.9303C113.714 29.6283 112.963 29.334 112.211 29.0474C111.468 28.7608 110.786 28.5091 110.167 28.2922C109.547 28.0676 109.013 27.8856 108.564 27.7462C108.122 27.6068 107.828 27.5255 107.681 27.5023C107.549 27.5023 107.41 27.5139 107.262 27.5371C107.123 27.5603 106.984 27.63 106.844 27.7462C106.705 27.8624 106.569 28.0444 106.438 28.2922C106.306 28.5323 106.182 28.8731 106.066 29.3146L103.94 28.757C104.536 26.4644 105.791 25.3182 107.704 25.3182C107.75 25.3182 107.812 25.322 107.89 25.3298C107.967 25.3298 108.079 25.3491 108.227 25.3879C108.374 25.4188 108.571 25.4731 108.819 25.5505C109.067 25.6202 109.381 25.7209 109.76 25.8526C110.147 25.9842 110.616 26.1546 111.166 26.3637C111.716 26.5651 112.374 26.8168 113.141 27.1189L117.253 28.6408L117.544 30.5693ZM105.206 20.5666L107.181 18.5684L109.203 20.5898L107.204 22.588L105.206 20.5666Z" fill="#1B2430"/>
<path d="M125.753 35.2163C124.94 35.2086 124.266 35.1543 123.732 35.0537C123.205 34.9452 122.756 34.7942 122.384 34.6006C122.02 34.3992 121.726 34.1514 121.501 33.8571C121.284 33.555 121.114 33.2065 120.99 32.8115C120.866 32.4087 120.785 31.9595 120.746 31.4638C120.707 30.9682 120.688 30.4183 120.688 29.8141V18.6381H122.884V29.8141C122.884 30.488 122.903 31.034 122.942 31.4522C122.988 31.8705 123.101 32.1957 123.279 32.4281C123.465 32.6527 123.74 32.8076 124.104 32.8928C124.475 32.9702 125.025 33.0128 125.753 33.0206V35.2163Z" fill="#1B2430"/>
<path d="M137.982 33.0206V35.2163H135.949C135.244 35.2163 134.621 35.1156 134.078 34.9143C133.544 34.7129 133.114 34.4108 132.789 34.0081C131.983 34.8136 130.791 35.2163 129.211 35.2163H125.261V33.0206H129.211C129.768 33.0206 130.21 32.9664 130.535 32.8579C130.86 32.7418 131.104 32.6024 131.267 32.4397C131.437 32.2693 131.546 32.0834 131.592 31.8821C131.646 31.673 131.674 31.4755 131.674 31.2896V27.3628H133.858V31.2083C133.858 31.4948 133.9 31.7388 133.985 31.9402C134.078 32.1415 134.191 32.3119 134.322 32.4513C134.454 32.583 134.601 32.6876 134.764 32.765C134.934 32.8425 135.097 32.9005 135.252 32.9393C135.407 32.978 135.546 33.0012 135.67 33.009C135.794 33.0167 135.887 33.0206 135.949 33.0206H137.982ZM134.218 24.5282L132.382 22.6694L134.195 20.7873L136.077 22.6694L134.218 24.5282ZM129.768 24.5049L127.933 22.6461L129.745 20.7641L131.627 22.6461L129.768 24.5049Z" fill="#1B2430"/>
<path d="M145.899 33.5782C145.953 33.5782 146.026 33.5744 146.119 33.5666C146.22 33.5589 146.325 33.5279 146.433 33.4737C146.549 33.4195 146.661 33.3381 146.77 33.2297C146.886 33.1135 146.987 32.9548 147.072 32.7534C147.165 32.5443 147.238 32.2809 147.293 31.9634C147.355 31.6381 147.386 31.2431 147.386 30.7784C147.386 30.6932 147.378 30.5577 147.362 30.3718C147.347 30.1859 147.312 29.9807 147.258 29.7561C147.204 29.5237 147.122 29.2875 147.014 29.0474C146.913 28.8073 146.774 28.5866 146.596 28.3852C146.417 28.1838 146.201 28.0212 145.945 27.8973C145.689 27.7656 145.38 27.6998 145.016 27.6998C144.675 27.6998 144.384 27.7617 144.144 27.8856C143.912 28.0018 143.714 28.1645 143.552 28.3736C143.389 28.5827 143.254 28.8305 143.145 29.1171C143.037 29.3959 142.936 29.7018 142.843 30.0349C142.75 30.3602 142.657 30.7048 142.564 31.0688C142.471 31.4251 142.363 31.7814 142.239 32.1377C142.642 32.339 143.014 32.5288 143.354 32.7069C143.695 32.8851 144.013 33.04 144.307 33.1716C144.601 33.2955 144.876 33.3962 145.132 33.4737C145.395 33.5434 145.651 33.5782 145.899 33.5782ZM145.016 25.5157C145.775 25.5157 146.433 25.6628 146.991 25.9571C147.556 26.2437 148.025 26.6309 148.396 27.1189C148.768 27.6068 149.043 28.1683 149.221 28.8034C149.407 29.4385 149.5 30.0968 149.5 30.7784C149.5 31.5297 149.434 32.1764 149.303 32.7185C149.179 33.2607 149.012 33.7176 148.803 34.0894C148.594 34.4534 148.358 34.7477 148.094 34.9723C147.839 35.1969 147.575 35.3673 147.304 35.4835C147.041 35.5997 146.785 35.6771 146.538 35.7159C146.29 35.7546 146.077 35.774 145.899 35.774C145.519 35.774 145.155 35.7352 144.807 35.6578C144.458 35.5803 144.102 35.468 143.738 35.3209C143.374 35.1815 142.99 35.0072 142.588 34.7981C142.193 34.589 141.755 34.3527 141.275 34.0894C140.64 34.8407 139.823 35.2163 138.823 35.2163H137.487V33.0206H138.823C139.118 33.0206 139.358 32.9122 139.544 32.6953C139.737 32.4784 139.904 32.1957 140.043 31.8472C140.183 31.4987 140.311 31.0998 140.427 30.6506C140.543 30.2014 140.675 29.7406 140.822 29.2681C140.977 28.7957 141.159 28.3348 141.368 27.8856C141.577 27.4364 141.84 27.0376 142.158 26.689C142.483 26.3405 142.874 26.0578 143.331 25.8409C143.796 25.6241 144.357 25.5157 145.016 25.5157Z" fill="#1B2430"/>
</mask>
<g mask="url(#mask0_364_1398)">
<rect x="126.876" y="18.7856" width="10.9537" height="7.30246" fill="#1242E0"/>
</g>
</svg>
