<svg width="35" height="60" viewBox="0 0 35 60" fill="none" xmlns="http://www.w3.org/2000/svg">
<path d="M15.78 40.2405C15.9483 40.23 16.1165 40.2195 16.2847 40.209C17.7544 40.2186 19.1657 40.5104 20.4667 41.0625L15.5859 0.611816L12.1167 41.2038C13.248 40.6603 14.4691 40.3393 15.78 40.2405Z" fill="black"/>
<path fill-rule="evenodd" clip-rule="evenodd" d="M25.6816 53.1282C24.7206 55.672 22.8552 57.594 20.3679 58.7245C17.8806 59.7986 15.2238 59.9116 12.68 58.8941C10.1362 57.9331 8.21425 56.1242 7.08367 53.637C6.17921 51.6019 5.95311 49.4538 6.46187 47.3623C6.53724 46.8723 6.66912 46.3824 6.85754 45.8925C7.30977 44.7243 7.93162 43.7067 8.72302 42.84C9.55211 41.8978 10.5508 41.1253 11.719 40.5223C11.8698 40.4469 12.0205 40.3715 12.1713 40.2962C13.5279 39.7309 14.9412 39.4482 16.3544 39.4482C17.5603 39.4482 18.7286 39.6744 19.8591 40.1266C21.6681 40.8049 23.1378 41.879 24.2684 43.3487C24.7206 43.9894 25.1163 44.6866 25.4555 45.4403C26.5861 47.9276 26.6426 50.5844 25.6816 53.1282ZM20.2548 48.1537C20.2172 48.0406 20.1606 47.9275 20.0853 47.8145C19.633 46.797 18.8417 46.0056 17.7676 45.6099C17.4661 45.4968 17.1458 45.4026 16.8066 45.3272C16.0152 45.2707 15.2803 45.3838 14.5455 45.6664C13.5279 46.1752 12.7931 46.9666 12.3408 48.0406C11.9451 49.0581 12.0017 50.1887 12.4539 51.2062C12.4916 51.3193 12.5481 51.4323 12.6235 51.5454C12.6988 51.6584 12.7742 51.7904 12.8496 51.9411C13.3018 52.6194 13.9802 53.1282 14.7716 53.4108C15.8456 53.8631 16.9197 53.8065 17.9937 53.3543C19.0112 52.9021 19.8026 52.0541 20.1983 51.0366C20.5375 50.0756 20.594 49.1147 20.2548 48.1537Z" fill="black"/>
</svg>
