<svg width="281" height="192" viewBox="0 0 281 192" fill="none" xmlns="http://www.w3.org/2000/svg">
<path d="M280.995 156.116C280.995 156.304 280.995 156.493 280.995 156.681H194.789C187.044 156.681 180.148 161.204 176.812 168.157C174.89 172.283 172.234 176.071 168.842 179.462C161.211 187.094 151.431 191.164 140.634 191.164C129.781 191.164 120.058 187.094 112.37 179.462C109.035 176.071 106.321 172.283 104.399 168.157C101.121 161.204 94.1675 156.681 86.4796 156.681H0.273438C0.273438 156.493 0.273438 156.304 0.273438 156.116C0.273438 152.668 0.386498 149.219 0.612613 145.771H280.656C280.882 149.219 280.995 152.668 280.995 156.116Z" fill="#1242E0"/>
<path d="M67.6572 70.7011L41.1453 44.1892C19.7774 67.2529 6.26707 97.7219 5.02344 131.356H42.5585C43.7456 108.067 53.0163 86.9249 67.6572 70.7011Z" fill="#258574"/>
<path d="M205.616 63.4655L232.128 36.9536C209.064 15.5858 178.595 2.13194 144.961 0.888306V38.3668C168.251 39.5539 189.392 48.8246 205.616 63.4655Z" fill="#EB6E02"/>
<path d="M145.52 38.3668V0.888306C108.074 2.13194 74.0323 15.5858 48.375 36.9536L77.9408 63.4655C96.0333 48.8246 119.61 39.5539 145.52 38.3668Z" fill="#EB6E02"/>
<path d="M238.716 131.356H276.194C274.951 97.7219 261.497 67.2529 240.129 44.1892L213.617 70.7011C228.202 86.9249 237.529 108.067 238.716 131.356Z" fill="#D90201"/>
<path d="M140.628 61.8262C180.141 61.8262 212.419 92.5213 215.076 131.356H221.973C219.372 88.6773 183.929 54.9297 140.628 54.9297C97.2704 54.9297 61.8834 88.6773 59.2266 131.356H66.1796C68.7799 92.5213 101.114 61.8262 140.628 61.8262Z" fill="#1242E0"/>
<path d="M118.258 160.444V166.93H117.387V162.235L115.383 164.374H115.15L113.098 162.235V166.93H112.227V160.444H112.498L115.267 163.416L117.987 160.444H118.258Z" fill="white"/>
<path d="M122.141 161.993C122.638 161.993 123.051 162.096 123.38 162.302C123.709 162.509 123.954 162.79 124.116 163.145C124.283 163.5 124.367 163.9 124.367 164.345V164.82H120.65C120.688 165.091 120.782 165.339 120.93 165.565C121.079 165.791 121.272 165.972 121.511 166.107C121.75 166.236 122.024 166.301 122.334 166.301C122.683 166.301 123.009 166.214 123.312 166.04C123.615 165.859 123.87 165.662 124.077 165.449L124.067 166.311C123.977 166.42 123.841 166.537 123.661 166.659C123.486 166.775 123.283 166.872 123.051 166.95C122.825 167.034 122.586 167.076 122.334 167.076C121.844 167.076 121.408 166.959 121.027 166.727C120.646 166.495 120.346 166.188 120.127 165.807C119.914 165.42 119.807 164.997 119.807 164.539C119.807 164.081 119.907 163.658 120.107 163.271C120.308 162.883 120.582 162.574 120.93 162.341C121.285 162.109 121.689 161.993 122.141 161.993ZM122.141 162.767C121.74 162.767 121.411 162.903 121.153 163.174C120.895 163.438 120.734 163.761 120.669 164.142H123.583C123.551 163.826 123.46 163.568 123.312 163.367C123.17 163.167 122.996 163.019 122.789 162.922C122.583 162.819 122.366 162.767 122.141 162.767Z" fill="white"/>
<path d="M127.01 160.695V162.089H128.424V162.835H127.01V165.672C127.01 165.872 127.062 166.03 127.165 166.146C127.269 166.262 127.427 166.32 127.64 166.32C127.833 166.32 127.995 166.298 128.124 166.253C128.253 166.201 128.366 166.146 128.463 166.088V166.737C128.334 166.84 128.195 166.921 128.046 166.979C127.904 167.043 127.711 167.076 127.465 167.076C127.052 167.076 126.739 166.953 126.526 166.708C126.32 166.456 126.217 166.124 126.217 165.71V162.835H125.287V162.603C125.603 162.461 125.868 162.228 126.081 161.906C126.294 161.576 126.481 161.173 126.643 160.695H127.01Z" fill="white"/>
<path d="M131.861 161.993C132.138 161.993 132.419 162.06 132.703 162.196C132.994 162.325 133.242 162.506 133.449 162.738V162.089H134.243V166.93H133.449V166.107C133.281 166.366 133.052 166.591 132.761 166.785C132.477 166.979 132.151 167.076 131.783 167.076C131.37 167.076 130.993 166.972 130.651 166.766C130.309 166.553 130.034 166.259 129.828 165.885C129.628 165.51 129.528 165.078 129.528 164.587C129.528 164.052 129.628 163.59 129.828 163.203C130.034 162.816 130.315 162.519 130.67 162.312C131.025 162.099 131.422 161.993 131.861 161.993ZM132.006 162.767C131.658 162.767 131.361 162.854 131.115 163.029C130.87 163.203 130.68 163.429 130.544 163.706C130.415 163.977 130.351 164.271 130.351 164.587C130.351 164.897 130.415 165.184 130.544 165.449C130.673 165.707 130.854 165.914 131.086 166.069C131.325 166.224 131.6 166.301 131.909 166.301C132.206 166.301 132.471 166.224 132.703 166.069C132.936 165.914 133.12 165.701 133.255 165.43C133.391 165.152 133.455 164.842 133.449 164.5L133.439 163.571C133.239 163.319 133.023 163.122 132.79 162.98C132.564 162.838 132.303 162.767 132.006 162.767Z" fill="white"/>
<path d="M136.958 160.484V163.895L139.923 160.484H141.144L138.421 163.478L141.434 166.976H140.223L137.791 164.176L136.958 165.087V166.976H136.086V160.484H136.958Z" fill="#F9F9F9"/>
<path d="M144.728 162.035C145.058 162.035 145.358 162.109 145.63 162.258C145.901 162.4 146.117 162.619 146.279 162.916C146.44 163.207 146.521 163.575 146.521 164.021V166.976H145.726L145.717 164.098C145.717 163.679 145.623 163.359 145.436 163.139C145.255 162.92 144.974 162.81 144.593 162.81C144.334 162.81 144.076 162.907 143.818 163.1C143.566 163.288 143.343 163.507 143.149 163.759V166.976H142.355V160H143.149V162.897C143.253 162.768 143.385 162.639 143.546 162.509C143.708 162.374 143.889 162.261 144.089 162.17C144.296 162.08 144.509 162.035 144.728 162.035Z" fill="#F9F9F9"/>
<path d="M150.212 162.035C150.703 162.035 151.139 162.151 151.52 162.383C151.902 162.616 152.199 162.926 152.412 163.314C152.631 163.701 152.741 164.124 152.741 164.583C152.741 165.041 152.631 165.465 152.412 165.852C152.199 166.233 151.902 166.54 151.52 166.773C151.139 167.005 150.703 167.121 150.212 167.121C149.722 167.121 149.286 167.005 148.904 166.773C148.523 166.54 148.223 166.233 148.003 165.852C147.79 165.465 147.684 165.041 147.684 164.583C147.684 164.124 147.79 163.701 148.003 163.314C148.223 162.926 148.523 162.616 148.904 162.383C149.286 162.151 149.722 162.035 150.212 162.035ZM150.212 162.81C149.87 162.81 149.57 162.894 149.311 163.062C149.053 163.223 148.853 163.44 148.711 163.711C148.575 163.976 148.507 164.266 148.507 164.583C148.507 164.893 148.575 165.184 148.711 165.455C148.853 165.72 149.053 165.936 149.311 166.104C149.57 166.266 149.87 166.346 150.212 166.346C150.561 166.346 150.862 166.266 151.114 166.104C151.372 165.936 151.569 165.72 151.705 165.455C151.847 165.184 151.918 164.893 151.918 164.583C151.918 164.266 151.847 163.976 151.705 163.711C151.569 163.44 151.372 163.223 151.114 163.062C150.862 162.894 150.561 162.81 150.212 162.81Z" fill="#F9F9F9"/>
<path d="M158.429 160V166.976H157.634V166.152C157.466 166.411 157.237 166.637 156.946 166.831C156.662 167.025 156.336 167.121 155.968 167.121C155.554 167.121 155.176 167.018 154.834 166.811C154.492 166.598 154.217 166.304 154.011 165.93C153.81 165.555 153.71 165.122 153.71 164.631C153.71 164.095 153.81 163.633 154.011 163.246C154.217 162.858 154.498 162.561 154.853 162.354C155.209 162.141 155.606 162.035 156.045 162.035C156.323 162.035 156.604 162.103 156.888 162.238C157.179 162.367 157.428 162.548 157.634 162.781V160H158.429ZM156.191 162.829C155.842 162.829 155.545 162.916 155.299 163.091C155.054 163.259 154.863 163.478 154.728 163.75C154.598 164.021 154.534 164.315 154.534 164.631C154.534 164.941 154.598 165.229 154.728 165.494C154.857 165.752 155.038 165.959 155.27 166.114C155.509 166.269 155.784 166.346 156.094 166.346C156.391 166.346 156.656 166.269 156.888 166.114C157.121 165.959 157.305 165.746 157.44 165.474C157.576 165.197 157.641 164.886 157.634 164.544L157.625 163.614C157.424 163.362 157.208 163.168 156.975 163.033C156.749 162.897 156.488 162.829 156.191 162.829Z" fill="#F9F9F9"/>
<path d="M160.87 162.132V163.1C161.058 162.778 161.284 162.519 161.549 162.325C161.813 162.132 162.085 162.035 162.362 162.035C162.55 162.035 162.718 162.067 162.866 162.132V163.052C162.66 162.929 162.453 162.868 162.246 162.868C161.917 162.868 161.649 162.984 161.442 163.217C161.242 163.449 161.051 163.727 160.87 164.05V166.976H160.076V162.132H160.87Z" fill="#F9F9F9"/>
<path d="M166.073 162.035C166.564 162.035 167 162.151 167.381 162.383C167.762 162.616 168.06 162.926 168.273 163.314C168.492 163.701 168.602 164.124 168.602 164.583C168.602 165.041 168.492 165.465 168.273 165.852C168.06 166.233 167.762 166.54 167.381 166.773C167 167.005 166.564 167.121 166.073 167.121C165.582 167.121 165.146 167.005 164.765 166.773C164.384 166.54 164.084 166.233 163.864 165.852C163.651 165.465 163.544 165.041 163.544 164.583C163.544 164.124 163.651 163.701 163.864 163.314C164.084 162.926 164.384 162.616 164.765 162.383C165.146 162.151 165.582 162.035 166.073 162.035ZM166.073 162.81C165.731 162.81 165.431 162.894 165.172 163.062C164.914 163.223 164.714 163.44 164.572 163.711C164.436 163.976 164.368 164.266 164.368 164.583C164.368 164.893 164.436 165.184 164.572 165.455C164.714 165.72 164.914 165.936 165.172 166.104C165.431 166.266 165.731 166.346 166.073 166.346C166.422 166.346 166.722 166.266 166.974 166.104C167.233 165.936 167.43 165.72 167.565 165.455C167.708 165.184 167.779 164.893 167.779 164.583C167.779 164.266 167.708 163.976 167.565 163.711C167.43 163.44 167.233 163.223 166.974 163.062C166.722 162.894 166.422 162.81 166.073 162.81Z" fill="#F9F9F9"/>
<path d="M111.32 174.94C111.774 174.94 112.155 174.905 112.465 174.836C112.774 174.767 113.019 174.66 113.199 174.516C113.355 174.39 113.469 174.229 113.542 174.034C113.617 173.839 113.654 173.595 113.654 173.304H112.825C112.615 173.304 112.401 173.272 112.185 173.209C111.969 173.146 111.772 173.042 111.595 172.898C111.421 172.754 111.278 172.566 111.167 172.335C111.056 172.101 111 171.815 111 171.479C111 171.28 111.017 171.102 111.05 170.942C111.086 170.78 111.129 170.636 111.18 170.51C111.234 170.384 111.293 170.274 111.356 170.181C111.419 170.088 111.481 170.008 111.541 169.942C111.706 169.777 111.895 169.649 112.109 169.559C112.322 169.469 112.55 169.424 112.794 169.424C113.007 169.424 113.207 169.457 113.393 169.523C113.579 169.589 113.746 169.688 113.893 169.82C114.299 170.199 114.501 170.792 114.501 171.6V173.304C114.501 173.73 114.438 174.097 114.312 174.403C114.189 174.713 113.997 174.971 113.735 175.178C113.471 175.386 113.142 175.539 112.748 175.638C112.358 175.74 111.882 175.791 111.32 175.791V174.94ZM112.794 170.276C112.496 170.276 112.265 170.381 112.1 170.591C111.934 170.801 111.852 171.097 111.852 171.479C111.852 171.866 111.969 172.135 112.203 172.285C112.26 172.321 112.319 172.351 112.379 172.376C112.439 172.397 112.498 172.413 112.555 172.425C112.612 172.434 112.663 172.442 112.708 172.448C112.756 172.451 112.795 172.452 112.825 172.452H113.654V171.6C113.654 171.381 113.638 171.196 113.605 171.046C113.572 170.893 113.53 170.767 113.479 170.668C113.427 170.568 113.369 170.493 113.303 170.442C113.24 170.388 113.177 170.349 113.113 170.325C113.05 170.301 112.99 170.288 112.933 170.285C112.876 170.279 112.83 170.276 112.794 170.276Z" fill="#F9F9F9"/>
<path d="M115.068 175.805V174.953H115.69C116 174.953 116.267 174.916 116.492 174.84C116.721 174.768 116.908 174.656 117.056 174.503C117.206 174.349 117.316 174.154 117.385 173.917C117.457 173.679 117.493 173.397 117.493 173.069V170.258H118.344V173.069C118.344 173.499 118.287 173.882 118.173 174.219C118.062 174.558 117.895 174.845 117.673 175.079C117.451 175.314 117.173 175.492 116.839 175.616C116.509 175.742 116.126 175.805 115.69 175.805H115.068Z" fill="#F9F9F9"/>
<path d="M121.233 173.371C121.08 173.371 120.925 173.364 120.769 173.349C120.613 173.337 120.459 173.317 120.309 173.29C120.162 173.26 120.019 173.223 119.881 173.178C119.746 173.13 119.623 173.072 119.512 173.006L119.138 172.795L119.561 172.051L119.935 172.263C120.04 172.323 120.17 172.372 120.323 172.412C120.476 172.448 120.638 172.473 120.809 172.488C120.957 172.503 121.104 172.511 121.251 172.511C121.278 172.511 121.341 172.511 121.44 172.511C121.54 172.508 121.663 172.496 121.81 172.475C121.984 172.448 122.127 172.41 122.238 172.362C122.352 172.311 122.424 172.254 122.454 172.191C122.466 172.161 122.472 172.128 122.472 172.092C122.472 172.041 122.457 171.97 122.427 171.88C122.397 171.787 122.334 171.668 122.238 171.524L120.607 169.059L121.328 168.59C121.367 168.65 121.407 168.713 121.449 168.779C121.491 168.843 121.541 168.918 121.598 169.005C121.655 169.089 121.721 169.19 121.796 169.307C121.871 169.421 121.963 169.559 122.071 169.721C122.179 169.883 122.306 170.073 122.45 170.289C122.594 170.505 122.762 170.758 122.955 171.046C123.03 171.16 123.097 171.28 123.157 171.407C123.217 171.53 123.262 171.654 123.292 171.781C123.32 171.895 123.333 172.009 123.333 172.123C123.333 172.135 123.332 172.177 123.329 172.249C123.326 172.318 123.295 172.415 123.238 172.538C123.049 172.961 122.614 173.223 121.932 173.322C121.826 173.337 121.715 173.349 121.598 173.358C121.481 173.367 121.359 173.371 121.233 173.371Z" fill="#F9F9F9"/>
<path d="M124.575 174.94C125.029 174.94 125.41 174.905 125.72 174.836C126.029 174.767 126.274 174.66 126.454 174.516C126.611 174.39 126.725 174.229 126.797 174.034C126.872 173.839 126.91 173.595 126.91 173.304H126.08C125.87 173.304 125.657 173.272 125.441 173.209C125.224 173.146 125.027 173.042 124.85 172.898C124.676 172.754 124.533 172.566 124.422 172.335C124.311 172.101 124.255 171.815 124.255 171.479C124.255 171.28 124.272 171.102 124.305 170.942C124.341 170.78 124.385 170.636 124.436 170.51C124.49 170.384 124.548 170.274 124.611 170.181C124.674 170.088 124.736 170.008 124.796 169.942C124.961 169.777 125.151 169.649 125.364 169.559C125.577 169.469 125.806 169.424 126.049 169.424C126.262 169.424 126.462 169.457 126.648 169.523C126.834 169.589 127.001 169.688 127.148 169.82C127.554 170.199 127.757 170.792 127.757 171.6V172.452H128.433V173.304H127.757C127.757 173.73 127.694 174.097 127.568 174.403C127.444 174.713 127.252 174.971 126.991 175.178C126.726 175.386 126.397 175.539 126.004 175.638C125.613 175.74 125.137 175.791 124.575 175.791V174.94ZM126.004 170.276C125.706 170.276 125.475 170.381 125.31 170.591C125.145 170.801 125.062 171.097 125.062 171.479C125.062 171.866 125.179 172.135 125.413 172.285C125.471 172.321 125.529 172.351 125.589 172.376C125.649 172.397 125.708 172.413 125.765 172.425C125.822 172.434 125.873 172.442 125.918 172.448C125.966 172.451 126.005 172.452 126.035 172.452H126.865V171.6C126.865 171.381 126.848 171.196 126.815 171.046C126.782 170.893 126.74 170.767 126.689 170.668C126.638 170.568 126.579 170.493 126.513 170.442C126.45 170.388 126.387 170.349 126.324 170.325C126.261 170.301 126.201 170.288 126.143 170.285C126.086 170.279 126.04 170.276 126.004 170.276Z" fill="#F9F9F9"/>
<path d="M130.226 172.452C130.259 172.452 130.275 172.464 130.275 172.488V173.259C130.275 173.289 130.259 173.304 130.226 173.304H128.297C128.267 173.304 128.252 173.289 128.252 173.259V172.488C128.252 172.464 128.267 172.452 128.297 172.452H130.226Z" fill="#F9F9F9"/>
<path d="M132.065 172.452C132.098 172.452 132.115 172.464 132.115 172.488V173.259C132.115 173.289 132.098 173.304 132.065 173.304H130.136C130.106 173.304 130.091 173.289 130.091 173.259V172.488C130.091 172.464 130.106 172.452 130.136 172.452H132.065Z" fill="#F9F9F9"/>
<path d="M133.905 172.452C133.938 172.452 133.954 172.464 133.954 172.488V173.259C133.954 173.289 133.938 173.304 133.905 173.304H131.976C131.946 173.304 131.931 173.289 131.931 173.259V172.488C131.931 172.464 131.946 172.452 131.976 172.452H133.905Z" fill="#F9F9F9"/>
<path d="M135.744 172.452C135.777 172.452 135.794 172.464 135.794 172.488V173.259C135.794 173.289 135.777 173.304 135.744 173.304H133.815C133.785 173.304 133.77 173.289 133.77 173.259V172.488C133.77 172.464 133.785 172.452 133.815 172.452H135.744Z" fill="#F9F9F9"/>
<path d="M137.584 172.452C137.617 172.452 137.633 172.464 137.633 172.488V173.259C137.633 173.289 137.617 173.304 137.584 173.304H135.655C135.625 173.304 135.61 173.289 135.61 173.259V172.488C135.61 172.464 135.625 172.452 135.655 172.452H137.584Z" fill="#F9F9F9"/>
<path d="M139.423 172.452C139.456 172.452 139.473 172.464 139.473 172.488V173.259C139.473 173.289 139.456 173.304 139.423 173.304H137.494C137.464 173.304 137.449 173.289 137.449 173.259V172.488C137.449 172.464 137.464 172.452 137.494 172.452H139.423Z" fill="#F9F9F9"/>
<path d="M141.263 172.452C141.296 172.452 141.312 172.464 141.312 172.488V173.259C141.312 173.289 141.296 173.304 141.263 173.304H139.334C139.304 173.304 139.289 173.289 139.289 173.259V172.488C139.289 172.464 139.304 172.452 139.334 172.452H141.263Z" fill="#F9F9F9"/>
<path d="M143.102 172.452C143.135 172.452 143.152 172.464 143.152 172.488V173.259C143.152 173.289 143.135 173.304 143.102 173.304H141.173C141.143 173.304 141.128 173.289 141.128 173.259V172.488C141.128 172.464 141.143 172.452 141.173 172.452H143.102Z" fill="#F9F9F9"/>
<path d="M144.942 172.452C144.975 172.452 144.991 172.464 144.991 172.488V173.259C144.991 173.289 144.975 173.304 144.942 173.304H143.013C142.983 173.304 142.968 173.289 142.968 173.259V172.488C142.968 172.464 142.983 172.452 143.013 172.452H144.942Z" fill="#F9F9F9"/>
<path d="M146.781 172.452C146.814 172.452 146.831 172.464 146.831 172.488V173.259C146.831 173.289 146.814 173.304 146.781 173.304H144.852C144.822 173.304 144.807 173.289 144.807 173.259V172.488C144.807 172.464 144.822 172.452 144.852 172.452H146.781Z" fill="#F9F9F9"/>
<path d="M148.621 172.452C148.654 172.452 148.67 172.464 148.67 172.488V173.259C148.67 173.289 148.654 173.304 148.621 173.304H146.692C146.662 173.304 146.647 173.289 146.647 173.259V172.488C146.647 172.464 146.662 172.452 146.692 172.452H148.621Z" fill="#F9F9F9"/>
<path d="M150.46 172.452C150.493 172.452 150.51 172.464 150.51 172.488V173.259C150.51 173.289 150.493 173.304 150.46 173.304H148.531C148.501 173.304 148.486 173.289 148.486 173.259V172.488C148.486 172.464 148.501 172.452 148.531 172.452H150.46Z" fill="#F9F9F9"/>
<path d="M156.4 171.501C156.382 171.513 156.304 171.566 156.166 171.659C156.028 171.752 155.843 171.866 155.612 172.001C155.384 172.134 155.116 172.276 154.81 172.43C154.503 172.583 154.173 172.724 153.818 172.853C153.467 172.982 153.099 173.091 152.714 173.178C152.33 173.262 151.945 173.304 151.561 173.304H150.326V172.452H151.561C151.897 172.452 152.237 172.413 152.579 172.335C152.925 172.254 153.257 172.155 153.575 172.038C153.893 171.917 154.192 171.788 154.472 171.65C154.751 171.509 154.996 171.377 155.206 171.253C154.915 171.136 154.623 171.022 154.332 170.911C154.044 170.8 153.779 170.702 153.539 170.618C153.299 170.531 153.091 170.46 152.917 170.406C152.746 170.352 152.632 170.321 152.575 170.312C152.524 170.312 152.469 170.316 152.412 170.325C152.358 170.334 152.304 170.361 152.25 170.406C152.196 170.451 152.143 170.522 152.092 170.618C152.041 170.711 151.993 170.843 151.948 171.015L151.124 170.798C151.355 169.909 151.842 169.464 152.584 169.464C152.602 169.464 152.626 169.466 152.656 169.469C152.686 169.469 152.729 169.476 152.786 169.491C152.843 169.503 152.92 169.524 153.016 169.555C153.112 169.582 153.234 169.621 153.381 169.672C153.531 169.723 153.713 169.789 153.927 169.87C154.14 169.948 154.395 170.046 154.693 170.163L156.288 170.753L156.4 171.501ZM151.615 167.621L152.381 166.846L153.165 167.63L152.39 168.405L151.615 167.621Z" fill="#F9F9F9"/>
<path d="M159.585 173.304C159.269 173.301 159.008 173.28 158.801 173.241C158.596 173.199 158.422 173.14 158.278 173.065C158.137 172.987 158.023 172.891 157.936 172.777C157.851 172.659 157.785 172.524 157.737 172.371C157.689 172.215 157.658 172.041 157.643 171.848C157.628 171.656 157.62 171.443 157.62 171.208V166.873H158.472V171.208C158.472 171.47 158.479 171.682 158.494 171.844C158.512 172.006 158.556 172.132 158.625 172.222C158.697 172.309 158.804 172.369 158.945 172.403C159.089 172.433 159.302 172.449 159.585 172.452V173.304Z" fill="#F9F9F9"/>
<path d="M164.328 172.452V173.304H163.54C163.266 173.304 163.024 173.265 162.814 173.187C162.607 173.109 162.44 172.991 162.314 172.835C162.001 173.148 161.539 173.304 160.926 173.304H159.394V172.452H160.926C161.142 172.452 161.313 172.431 161.44 172.389C161.566 172.344 161.66 172.29 161.724 172.227C161.79 172.161 161.832 172.089 161.85 172.01C161.871 171.929 161.881 171.853 161.881 171.781V170.258H162.728V171.749C162.728 171.86 162.745 171.955 162.778 172.033C162.814 172.111 162.858 172.177 162.909 172.231C162.96 172.282 163.017 172.323 163.08 172.353C163.146 172.383 163.209 172.406 163.269 172.421C163.329 172.436 163.383 172.445 163.431 172.448C163.48 172.451 163.516 172.452 163.54 172.452H164.328ZM162.868 169.158L162.156 168.437L162.859 167.707L163.589 168.437L162.868 169.158ZM161.142 169.149L160.43 168.428L161.133 167.698L161.863 168.428L161.142 169.149Z" fill="#F9F9F9"/>
<path d="M167.399 172.668C167.42 172.668 167.449 172.667 167.485 172.664C167.524 172.661 167.564 172.649 167.606 172.628C167.651 172.607 167.695 172.575 167.737 172.533C167.782 172.488 167.821 172.427 167.854 172.348C167.89 172.267 167.919 172.165 167.94 172.042C167.964 171.916 167.976 171.763 167.976 171.582C167.976 171.549 167.973 171.497 167.967 171.425C167.961 171.353 167.947 171.273 167.926 171.186C167.905 171.096 167.874 171.004 167.832 170.911C167.793 170.818 167.739 170.732 167.669 170.654C167.6 170.576 167.516 170.513 167.417 170.465C167.318 170.414 167.198 170.388 167.057 170.388C166.924 170.388 166.812 170.412 166.719 170.46C166.628 170.505 166.552 170.568 166.489 170.65C166.426 170.731 166.373 170.827 166.331 170.938C166.289 171.046 166.25 171.165 166.214 171.294C166.178 171.42 166.142 171.554 166.106 171.695C166.07 171.833 166.028 171.971 165.98 172.11C166.136 172.188 166.28 172.261 166.412 172.33C166.544 172.4 166.668 172.46 166.782 172.511C166.896 172.559 167.002 172.598 167.102 172.628C167.204 172.655 167.303 172.668 167.399 172.668ZM167.057 169.541C167.351 169.541 167.606 169.598 167.823 169.712C168.042 169.823 168.224 169.974 168.368 170.163C168.512 170.352 168.619 170.57 168.688 170.816C168.76 171.063 168.796 171.318 168.796 171.582C168.796 171.874 168.77 172.125 168.719 172.335C168.671 172.545 168.607 172.722 168.526 172.867C168.445 173.008 168.353 173.122 168.251 173.209C168.152 173.296 168.049 173.362 167.944 173.407C167.842 173.453 167.743 173.483 167.647 173.498C167.551 173.513 167.468 173.52 167.399 173.52C167.252 173.52 167.111 173.505 166.975 173.475C166.84 173.445 166.702 173.401 166.561 173.344C166.42 173.29 166.271 173.223 166.115 173.142C165.962 173.06 165.792 172.969 165.606 172.867C165.359 173.158 165.042 173.304 164.655 173.304H164.136V172.452H164.655C164.769 172.452 164.862 172.41 164.934 172.326C165.009 172.242 165.074 172.132 165.128 171.997C165.182 171.862 165.231 171.707 165.277 171.533C165.322 171.359 165.373 171.18 165.43 170.997C165.49 170.813 165.56 170.635 165.642 170.46C165.723 170.286 165.825 170.131 165.948 169.996C166.074 169.861 166.226 169.751 166.403 169.667C166.583 169.583 166.801 169.541 167.057 169.541Z" fill="#F9F9F9"/>
<mask id="mask0_2950_20405" style="mask-type:alpha" maskUnits="userSpaceOnUse" x="111" y="166" width="58" height="10">
<path d="M111.32 174.94C111.774 174.94 112.155 174.905 112.465 174.836C112.774 174.767 113.019 174.66 113.199 174.516C113.355 174.39 113.469 174.229 113.542 174.034C113.617 173.839 113.654 173.595 113.654 173.304H112.825C112.615 173.304 112.401 173.272 112.185 173.209C111.969 173.146 111.772 173.042 111.595 172.898C111.421 172.754 111.278 172.566 111.167 172.335C111.056 172.101 111 171.815 111 171.479C111 171.28 111.017 171.102 111.05 170.942C111.086 170.78 111.129 170.636 111.18 170.51C111.234 170.384 111.293 170.274 111.356 170.181C111.419 170.088 111.481 170.008 111.541 169.942C111.706 169.777 111.895 169.649 112.109 169.559C112.322 169.469 112.55 169.424 112.794 169.424C113.007 169.424 113.207 169.457 113.393 169.523C113.579 169.589 113.746 169.688 113.893 169.82C114.299 170.199 114.501 170.792 114.501 171.6V173.304C114.501 173.73 114.438 174.097 114.312 174.403C114.189 174.713 113.997 174.971 113.735 175.178C113.471 175.386 113.142 175.539 112.748 175.638C112.358 175.74 111.882 175.791 111.32 175.791V174.94ZM112.794 170.276C112.496 170.276 112.265 170.381 112.1 170.591C111.934 170.801 111.852 171.097 111.852 171.479C111.852 171.866 111.969 172.135 112.203 172.285C112.26 172.321 112.319 172.351 112.379 172.376C112.439 172.397 112.498 172.413 112.555 172.425C112.612 172.434 112.663 172.442 112.708 172.448C112.756 172.451 112.795 172.452 112.825 172.452H113.654V171.6C113.654 171.381 113.638 171.196 113.605 171.046C113.572 170.893 113.53 170.767 113.479 170.668C113.427 170.568 113.369 170.493 113.303 170.442C113.24 170.388 113.177 170.349 113.113 170.325C113.05 170.301 112.99 170.288 112.933 170.285C112.876 170.279 112.83 170.276 112.794 170.276Z" fill="#1B2430"/>
<path d="M115.068 175.805V174.953H115.69C116 174.953 116.267 174.916 116.492 174.84C116.721 174.768 116.908 174.656 117.056 174.503C117.206 174.349 117.316 174.154 117.385 173.917C117.457 173.679 117.493 173.397 117.493 173.069V170.258H118.344V173.069C118.344 173.499 118.287 173.882 118.173 174.219C118.062 174.558 117.895 174.845 117.673 175.079C117.451 175.314 117.173 175.492 116.839 175.616C116.509 175.742 116.126 175.805 115.69 175.805H115.068Z" fill="#1B2430"/>
<path d="M121.233 173.371C121.08 173.371 120.925 173.364 120.769 173.349C120.613 173.337 120.459 173.317 120.309 173.29C120.162 173.26 120.019 173.223 119.881 173.178C119.746 173.13 119.623 173.072 119.512 173.006L119.138 172.795L119.561 172.051L119.935 172.263C120.04 172.323 120.17 172.372 120.323 172.412C120.476 172.448 120.638 172.473 120.809 172.488C120.957 172.503 121.104 172.511 121.251 172.511C121.278 172.511 121.341 172.511 121.44 172.511C121.54 172.508 121.663 172.496 121.81 172.475C121.984 172.448 122.127 172.41 122.238 172.362C122.352 172.311 122.424 172.254 122.454 172.191C122.466 172.161 122.472 172.128 122.472 172.092C122.472 172.041 122.457 171.97 122.427 171.88C122.397 171.787 122.334 171.668 122.238 171.524L120.607 169.059L121.328 168.59C121.367 168.65 121.407 168.713 121.449 168.779C121.491 168.843 121.541 168.918 121.598 169.005C121.655 169.089 121.721 169.19 121.796 169.307C121.871 169.421 121.963 169.559 122.071 169.721C122.179 169.883 122.306 170.073 122.45 170.289C122.594 170.505 122.762 170.758 122.955 171.046C123.03 171.16 123.097 171.28 123.157 171.407C123.217 171.53 123.262 171.654 123.292 171.781C123.32 171.895 123.333 172.009 123.333 172.123C123.333 172.135 123.332 172.177 123.329 172.249C123.326 172.318 123.295 172.415 123.238 172.538C123.049 172.961 122.614 173.223 121.932 173.322C121.826 173.337 121.715 173.349 121.598 173.358C121.481 173.367 121.359 173.371 121.233 173.371Z" fill="#1B2430"/>
<path d="M124.575 174.94C125.029 174.94 125.41 174.905 125.72 174.836C126.029 174.767 126.274 174.66 126.454 174.516C126.611 174.39 126.725 174.229 126.797 174.034C126.872 173.839 126.91 173.595 126.91 173.304H126.08C125.87 173.304 125.657 173.272 125.441 173.209C125.224 173.146 125.027 173.042 124.85 172.898C124.676 172.754 124.533 172.566 124.422 172.335C124.311 172.101 124.255 171.815 124.255 171.479C124.255 171.28 124.272 171.102 124.305 170.942C124.341 170.78 124.385 170.636 124.436 170.51C124.49 170.384 124.548 170.274 124.611 170.181C124.674 170.088 124.736 170.008 124.796 169.942C124.961 169.777 125.151 169.649 125.364 169.559C125.577 169.469 125.806 169.424 126.049 169.424C126.262 169.424 126.462 169.457 126.648 169.523C126.834 169.589 127.001 169.688 127.148 169.82C127.554 170.199 127.757 170.792 127.757 171.6V172.452H128.433V173.304H127.757C127.757 173.73 127.694 174.097 127.568 174.403C127.444 174.713 127.252 174.971 126.991 175.178C126.726 175.386 126.397 175.539 126.004 175.638C125.613 175.74 125.137 175.791 124.575 175.791V174.94ZM126.004 170.276C125.706 170.276 125.475 170.381 125.31 170.591C125.145 170.801 125.062 171.097 125.062 171.479C125.062 171.866 125.179 172.135 125.413 172.285C125.471 172.321 125.529 172.351 125.589 172.376C125.649 172.397 125.708 172.413 125.765 172.425C125.822 172.434 125.873 172.442 125.918 172.448C125.966 172.451 126.005 172.452 126.035 172.452H126.865V171.6C126.865 171.381 126.848 171.196 126.815 171.046C126.782 170.893 126.74 170.767 126.689 170.668C126.638 170.568 126.579 170.493 126.513 170.442C126.45 170.388 126.387 170.349 126.324 170.325C126.261 170.301 126.201 170.288 126.143 170.285C126.086 170.279 126.04 170.276 126.004 170.276Z" fill="#1B2430"/>
<path d="M130.226 172.452C130.259 172.452 130.275 172.464 130.275 172.488V173.259C130.275 173.289 130.259 173.304 130.226 173.304H128.297C128.267 173.304 128.252 173.289 128.252 173.259V172.488C128.252 172.464 128.267 172.452 128.297 172.452H130.226Z" fill="#1B2430"/>
<path d="M132.065 172.452C132.098 172.452 132.115 172.464 132.115 172.488V173.259C132.115 173.289 132.098 173.304 132.065 173.304H130.136C130.106 173.304 130.091 173.289 130.091 173.259V172.488C130.091 172.464 130.106 172.452 130.136 172.452H132.065Z" fill="#1B2430"/>
<path d="M133.905 172.452C133.938 172.452 133.954 172.464 133.954 172.488V173.259C133.954 173.289 133.938 173.304 133.905 173.304H131.976C131.946 173.304 131.931 173.289 131.931 173.259V172.488C131.931 172.464 131.946 172.452 131.976 172.452H133.905Z" fill="#1B2430"/>
<path d="M135.744 172.452C135.777 172.452 135.794 172.464 135.794 172.488V173.259C135.794 173.289 135.777 173.304 135.744 173.304H133.815C133.785 173.304 133.77 173.289 133.77 173.259V172.488C133.77 172.464 133.785 172.452 133.815 172.452H135.744Z" fill="#1B2430"/>
<path d="M137.584 172.452C137.617 172.452 137.633 172.464 137.633 172.488V173.259C137.633 173.289 137.617 173.304 137.584 173.304H135.655C135.625 173.304 135.61 173.289 135.61 173.259V172.488C135.61 172.464 135.625 172.452 135.655 172.452H137.584Z" fill="#1B2430"/>
<path d="M139.423 172.452C139.456 172.452 139.473 172.464 139.473 172.488V173.259C139.473 173.289 139.456 173.304 139.423 173.304H137.494C137.464 173.304 137.449 173.289 137.449 173.259V172.488C137.449 172.464 137.464 172.452 137.494 172.452H139.423Z" fill="#1B2430"/>
<path d="M141.263 172.452C141.296 172.452 141.312 172.464 141.312 172.488V173.259C141.312 173.289 141.296 173.304 141.263 173.304H139.334C139.304 173.304 139.289 173.289 139.289 173.259V172.488C139.289 172.464 139.304 172.452 139.334 172.452H141.263Z" fill="#1B2430"/>
<path d="M143.102 172.452C143.135 172.452 143.152 172.464 143.152 172.488V173.259C143.152 173.289 143.135 173.304 143.102 173.304H141.173C141.143 173.304 141.128 173.289 141.128 173.259V172.488C141.128 172.464 141.143 172.452 141.173 172.452H143.102Z" fill="#1B2430"/>
<path d="M144.942 172.452C144.975 172.452 144.991 172.464 144.991 172.488V173.259C144.991 173.289 144.975 173.304 144.942 173.304H143.013C142.983 173.304 142.968 173.289 142.968 173.259V172.488C142.968 172.464 142.983 172.452 143.013 172.452H144.942Z" fill="#1B2430"/>
<path d="M146.781 172.452C146.814 172.452 146.831 172.464 146.831 172.488V173.259C146.831 173.289 146.814 173.304 146.781 173.304H144.852C144.822 173.304 144.807 173.289 144.807 173.259V172.488C144.807 172.464 144.822 172.452 144.852 172.452H146.781Z" fill="#1B2430"/>
<path d="M148.621 172.452C148.654 172.452 148.67 172.464 148.67 172.488V173.259C148.67 173.289 148.654 173.304 148.621 173.304H146.692C146.662 173.304 146.647 173.289 146.647 173.259V172.488C146.647 172.464 146.662 172.452 146.692 172.452H148.621Z" fill="#1B2430"/>
<path d="M150.46 172.452C150.493 172.452 150.51 172.464 150.51 172.488V173.259C150.51 173.289 150.493 173.304 150.46 173.304H148.531C148.501 173.304 148.486 173.289 148.486 173.259V172.488C148.486 172.464 148.501 172.452 148.531 172.452H150.46Z" fill="#1B2430"/>
<path d="M156.4 171.501C156.382 171.513 156.304 171.566 156.166 171.659C156.028 171.752 155.843 171.866 155.612 172.001C155.384 172.134 155.116 172.276 154.81 172.43C154.503 172.583 154.173 172.724 153.818 172.853C153.467 172.982 153.099 173.091 152.714 173.178C152.33 173.262 151.945 173.304 151.561 173.304H150.326V172.452H151.561C151.897 172.452 152.237 172.413 152.579 172.335C152.925 172.254 153.257 172.155 153.575 172.038C153.893 171.917 154.192 171.788 154.472 171.65C154.751 171.509 154.996 171.377 155.206 171.253C154.915 171.136 154.623 171.022 154.332 170.911C154.044 170.8 153.779 170.702 153.539 170.618C153.299 170.531 153.091 170.46 152.917 170.406C152.746 170.352 152.632 170.321 152.575 170.312C152.524 170.312 152.469 170.316 152.412 170.325C152.358 170.334 152.304 170.361 152.25 170.406C152.196 170.451 152.143 170.522 152.092 170.618C152.041 170.711 151.993 170.843 151.948 171.015L151.124 170.798C151.355 169.909 151.842 169.464 152.584 169.464C152.602 169.464 152.626 169.466 152.656 169.469C152.686 169.469 152.729 169.476 152.786 169.491C152.843 169.503 152.92 169.524 153.016 169.555C153.112 169.582 153.234 169.621 153.381 169.672C153.531 169.723 153.713 169.789 153.927 169.87C154.14 169.948 154.395 170.046 154.693 170.163L156.288 170.753L156.4 171.501ZM151.615 167.621L152.381 166.846L153.165 167.63L152.39 168.405L151.615 167.621Z" fill="#1B2430"/>
<path d="M159.585 173.304C159.269 173.301 159.008 173.28 158.801 173.241C158.596 173.199 158.422 173.14 158.278 173.065C158.137 172.987 158.023 172.891 157.936 172.777C157.851 172.659 157.785 172.524 157.737 172.371C157.689 172.215 157.658 172.041 157.643 171.848C157.628 171.656 157.62 171.443 157.62 171.208V166.873H158.472V171.208C158.472 171.47 158.479 171.682 158.494 171.844C158.512 172.006 158.556 172.132 158.625 172.222C158.697 172.309 158.804 172.369 158.945 172.403C159.089 172.433 159.302 172.449 159.585 172.452V173.304Z" fill="#1B2430"/>
<path d="M164.328 172.452V173.304H163.54C163.266 173.304 163.024 173.265 162.814 173.187C162.607 173.109 162.44 172.991 162.314 172.835C162.001 173.148 161.539 173.304 160.926 173.304H159.394V172.452H160.926C161.142 172.452 161.313 172.431 161.44 172.389C161.566 172.344 161.66 172.29 161.724 172.227C161.79 172.161 161.832 172.089 161.85 172.01C161.871 171.929 161.881 171.853 161.881 171.781V170.258H162.728V171.749C162.728 171.86 162.745 171.955 162.778 172.033C162.814 172.111 162.858 172.177 162.909 172.231C162.96 172.282 163.017 172.323 163.08 172.353C163.146 172.383 163.209 172.406 163.269 172.421C163.329 172.436 163.383 172.445 163.431 172.448C163.48 172.451 163.516 172.452 163.54 172.452H164.328ZM162.868 169.158L162.156 168.437L162.859 167.707L163.589 168.437L162.868 169.158ZM161.142 169.149L160.43 168.428L161.133 167.698L161.863 168.428L161.142 169.149Z" fill="#1B2430"/>
<path d="M167.399 172.668C167.42 172.668 167.449 172.667 167.485 172.664C167.524 172.661 167.564 172.649 167.606 172.628C167.651 172.607 167.695 172.575 167.737 172.533C167.782 172.488 167.821 172.427 167.854 172.348C167.89 172.267 167.919 172.165 167.94 172.042C167.964 171.916 167.976 171.763 167.976 171.582C167.976 171.549 167.973 171.497 167.967 171.425C167.961 171.353 167.947 171.273 167.926 171.186C167.905 171.096 167.874 171.004 167.832 170.911C167.793 170.818 167.739 170.732 167.669 170.654C167.6 170.576 167.516 170.513 167.417 170.465C167.318 170.414 167.198 170.388 167.057 170.388C166.924 170.388 166.812 170.412 166.719 170.46C166.628 170.505 166.552 170.568 166.489 170.65C166.426 170.731 166.373 170.827 166.331 170.938C166.289 171.046 166.25 171.165 166.214 171.294C166.178 171.42 166.142 171.554 166.106 171.695C166.07 171.833 166.028 171.971 165.98 172.11C166.136 172.188 166.28 172.261 166.412 172.33C166.544 172.4 166.668 172.46 166.782 172.511C166.896 172.559 167.002 172.598 167.102 172.628C167.204 172.655 167.303 172.668 167.399 172.668ZM167.057 169.541C167.351 169.541 167.606 169.598 167.823 169.712C168.042 169.823 168.224 169.974 168.368 170.163C168.512 170.352 168.619 170.57 168.688 170.816C168.76 171.063 168.796 171.318 168.796 171.582C168.796 171.874 168.77 172.125 168.719 172.335C168.671 172.545 168.607 172.722 168.526 172.867C168.445 173.008 168.353 173.122 168.251 173.209C168.152 173.296 168.049 173.362 167.944 173.407C167.842 173.453 167.743 173.483 167.647 173.498C167.551 173.513 167.468 173.52 167.399 173.52C167.252 173.52 167.111 173.505 166.975 173.475C166.84 173.445 166.702 173.401 166.561 173.344C166.42 173.29 166.271 173.223 166.115 173.142C165.962 173.06 165.792 172.969 165.606 172.867C165.359 173.158 165.042 173.304 164.655 173.304H164.136V172.452H164.655C164.769 172.452 164.862 172.41 164.934 172.326C165.009 172.242 165.074 172.132 165.128 171.997C165.182 171.862 165.231 171.707 165.277 171.533C165.322 171.359 165.373 171.18 165.43 170.997C165.49 170.813 165.56 170.635 165.642 170.46C165.723 170.286 165.825 170.131 165.948 169.996C166.074 169.861 166.226 169.751 166.403 169.667C166.583 169.583 166.801 169.541 167.057 169.541Z" fill="#1B2430"/>
</mask>
<g mask="url(#mask0_2950_20405)">
<rect x="160.016" y="166.93" width="4.24886" height="2.83257" fill="#1242E0"/>
</g>
<path d="M113.882 23.478C113.882 23.8767 113.952 24.1627 114.09 24.336C114.229 24.5093 114.433 24.596 114.701 24.596H115.065C115.109 24.596 115.139 24.6437 115.156 24.739C115.182 24.8343 115.195 25.0293 115.195 25.324C115.195 25.6013 115.182 25.7833 115.156 25.87C115.139 25.9567 115.109 26 115.065 26H114.701C114.225 26 113.835 25.9133 113.531 25.74C113.237 25.558 113.033 25.2677 112.92 24.869C112.738 25.0423 112.491 25.1723 112.179 25.259C111.867 25.3457 111.538 25.389 111.191 25.389C110.429 25.389 109.848 25.1853 109.449 24.778C109.051 24.362 108.851 23.751 108.851 22.945C108.851 22.4597 108.96 22.0133 109.176 21.606C109.393 21.19 109.696 20.8607 110.086 20.618C110.485 20.3667 110.94 20.241 111.451 20.241H112.543V19.37H113.882V23.478ZM110.19 22.932C110.19 23.634 110.546 23.985 111.256 23.985C111.664 23.985 111.98 23.9157 112.205 23.777C112.431 23.6297 112.543 23.4303 112.543 23.179V21.593H111.451C111.053 21.593 110.741 21.71 110.515 21.944C110.299 22.1693 110.19 22.4987 110.19 22.932ZM118.637 23.816C118.637 24.5007 118.433 25.038 118.026 25.428C117.619 25.8093 117.073 26 116.388 26H115.062C114.975 26 114.932 25.7747 114.932 25.324C114.932 24.8387 114.975 24.596 115.062 24.596H116.388C116.657 24.596 116.873 24.5267 117.038 24.388C117.203 24.2407 117.285 24.037 117.285 23.777V21.684H118.637V23.816ZM116.518 20.202V18.928H118.078V20.202H116.518ZM123.195 24.596C123.239 24.596 123.269 24.6437 123.286 24.739C123.312 24.8343 123.325 25.0293 123.325 25.324C123.325 25.6013 123.312 25.7833 123.286 25.87C123.269 25.9567 123.239 26 123.195 26H122.805C122.112 26 121.588 25.7963 121.232 25.389C120.877 24.9817 120.699 24.4053 120.699 23.66V17.602H122.038V23.569C122.038 23.9243 122.103 24.1843 122.233 24.349C122.372 24.5137 122.589 24.596 122.883 24.596H123.195ZM124.955 24.596C124.738 24.4227 124.565 24.193 124.435 23.907C124.305 23.6123 124.24 23.3133 124.24 23.01C124.24 22.542 124.352 22.113 124.578 21.723C124.803 21.333 125.111 21.0253 125.501 20.8C125.891 20.5747 126.324 20.462 126.801 20.462C127.295 20.462 127.732 20.566 128.114 20.774C128.504 20.982 128.803 21.2767 129.011 21.658C129.227 22.0307 129.336 22.4597 129.336 22.945C129.336 23.6383 129.08 24.1887 128.569 24.596H130.389C130.475 24.596 130.519 24.8387 130.519 25.324C130.519 25.7747 130.475 26 130.389 26H128.647C128.127 26 127.728 25.9827 127.451 25.948C127.182 25.9133 126.97 25.8527 126.814 25.766C126.649 25.8527 126.419 25.9133 126.125 25.948C125.839 25.9827 125.449 26 124.955 26H123.2C123.113 26 123.07 25.7747 123.07 25.324C123.07 24.8387 123.113 24.596 123.2 24.596H124.955ZM126.801 21.814C126.437 21.814 126.142 21.9267 125.917 22.152C125.7 22.3773 125.592 22.6633 125.592 23.01C125.592 23.3307 125.696 23.6297 125.904 23.907C126.12 24.1843 126.419 24.4097 126.801 24.583C127.191 24.4097 127.485 24.1843 127.685 23.907C127.893 23.621 127.997 23.322 127.997 23.01C127.997 22.6373 127.888 22.347 127.672 22.139C127.464 21.9223 127.173 21.814 126.801 21.814ZM126.021 19.032V17.758H127.581V19.032H126.021ZM130.97 24.596C131.326 24.596 131.594 24.5137 131.776 24.349C131.967 24.1843 132.062 23.959 132.062 23.673V21.684H133.401V23.621C133.401 23.8637 133.432 24.0413 133.492 24.154C133.562 24.2667 133.674 24.3577 133.83 24.427C134.61 23.0577 135.334 22.0697 136.001 21.463C136.677 20.8563 137.384 20.553 138.12 20.553C138.597 20.553 139.026 20.67 139.407 20.904C139.789 21.1293 140.083 21.45 140.291 21.866C140.508 22.2733 140.616 22.7413 140.616 23.27C140.616 23.7033 140.543 24.0803 140.395 24.401C140.499 24.479 140.629 24.531 140.785 24.557C140.941 24.583 141.149 24.596 141.409 24.596H141.721C141.808 24.596 141.851 24.8387 141.851 25.324C141.851 25.7747 141.808 26 141.721 26H141.409C140.985 26 140.638 25.961 140.369 25.883C140.101 25.7963 139.862 25.6447 139.654 25.428C139.42 25.61 139.143 25.753 138.822 25.857C138.51 25.9523 138.177 26 137.821 26H134.428C133.969 26 133.596 25.9437 133.31 25.831C133.033 25.7097 132.821 25.532 132.673 25.298C132.509 25.5407 132.288 25.7183 132.01 25.831C131.742 25.9437 131.395 26 130.97 26H130.385C130.299 26 130.255 25.7747 130.255 25.324C130.255 24.8387 130.299 24.596 130.385 24.596H130.97ZM137.821 24.596C138.281 24.596 138.636 24.479 138.887 24.245C139.147 24.011 139.277 23.686 139.277 23.27C139.277 22.8627 139.156 22.5333 138.913 22.282C138.679 22.0307 138.38 21.905 138.016 21.905C137.592 21.905 137.15 22.1217 136.69 22.555C136.24 22.9883 135.728 23.6687 135.156 24.596H137.821ZM143.282 24.596C143.56 24.596 143.781 24.5267 143.945 24.388C144.119 24.2407 144.205 24.037 144.205 23.777V21.684H145.557V23.725C145.557 24.3057 145.856 24.596 146.454 24.596H146.896C146.983 24.596 147.026 24.8343 147.026 25.311C147.026 25.7703 146.983 26 146.896 26H146.402C145.631 26 145.12 25.766 144.868 25.298C144.565 25.766 144.036 26 143.282 26H141.722C141.636 26 141.592 25.7747 141.592 25.324C141.592 24.8387 141.636 24.596 141.722 24.596H143.282ZM143.919 20.202V18.928H145.479V20.202H143.919ZM147.214 24.596C147.5 24.596 147.704 24.5397 147.825 24.427C147.955 24.3057 148.02 24.1193 148.02 23.868V23.413C148.02 22.581 148.25 21.9223 148.709 21.437C149.177 20.9517 149.81 20.709 150.607 20.709C151.404 20.709 152.015 20.943 152.44 21.411C152.865 21.8703 153.077 22.5333 153.077 23.4C153.077 24.2233 152.852 24.8647 152.401 25.324C151.959 25.7747 151.344 26 150.555 26C150.113 26 149.74 25.9393 149.437 25.818C149.134 25.688 148.913 25.5103 148.774 25.285C148.618 25.5363 148.414 25.7183 148.163 25.831C147.92 25.9437 147.604 26 147.214 26H146.902C146.815 26 146.772 25.7747 146.772 25.324C146.772 24.8387 146.815 24.596 146.902 24.596H147.214ZM151.738 23.4C151.738 22.9493 151.638 22.6157 151.439 22.399C151.248 22.1737 150.954 22.061 150.555 22.061C150.156 22.061 149.857 22.1737 149.658 22.399C149.467 22.6157 149.372 22.9537 149.372 23.413C149.372 23.7943 149.472 24.089 149.671 24.297C149.87 24.4963 150.165 24.596 150.555 24.596C150.954 24.596 151.248 24.5007 151.439 24.31C151.638 24.1107 151.738 23.8073 151.738 23.4ZM164.883 24.596C165.161 24.596 165.382 24.5267 165.546 24.388C165.72 24.2407 165.806 24.0413 165.806 23.79V21.684H167.158V23.725C167.158 24.3057 167.457 24.596 168.055 24.596H168.497C168.584 24.596 168.627 24.8387 168.627 25.324C168.627 25.7747 168.584 26 168.497 26H168.003C167.232 26 166.721 25.766 166.469 25.298C166.166 25.766 165.637 26 164.883 26H160.424C159.653 26 159.068 25.8007 158.669 25.402C158.271 24.9947 158.071 24.4227 158.071 23.686V21.684H159.41V23.504C159.41 23.868 159.497 24.141 159.67 24.323C159.844 24.505 160.117 24.596 160.489 24.596H164.883ZM164.376 19.448V20.696H160.84V19.448H164.376ZM168.809 24.596C169.095 24.596 169.298 24.5397 169.42 24.427C169.55 24.3057 169.615 24.1193 169.615 23.868V23.413C169.615 22.581 169.844 21.9223 170.304 21.437C170.772 20.9517 171.404 20.709 172.202 20.709C172.999 20.709 173.61 20.943 174.035 21.411C174.459 21.8703 174.672 22.5333 174.672 23.4V23.699C174.672 24.0197 174.737 24.2493 174.867 24.388C175.005 24.5267 175.209 24.596 175.478 24.596H175.803C175.889 24.596 175.933 24.8387 175.933 25.324C175.933 25.7747 175.889 26 175.803 26H175.478C174.724 26 174.23 25.7573 173.996 25.272C173.814 25.5147 173.558 25.6967 173.229 25.818C172.899 25.9393 172.54 26 172.15 26C171.708 26 171.335 25.9393 171.032 25.818C170.728 25.688 170.507 25.5103 170.369 25.285C170.213 25.5363 170.009 25.7183 169.758 25.831C169.515 25.9437 169.199 26 168.809 26H168.497C168.41 26 168.367 25.7747 168.367 25.324C168.367 24.8387 168.41 24.596 168.497 24.596H168.809ZM173.333 23.4C173.333 22.9493 173.233 22.6157 173.034 22.399C172.843 22.1737 172.548 22.061 172.15 22.061C171.751 22.061 171.452 22.1737 171.253 22.399C171.062 22.6157 170.967 22.9537 170.967 23.413C170.967 23.7943 171.066 24.089 171.266 24.297C171.465 24.4963 171.76 24.596 172.15 24.596C172.548 24.596 172.843 24.5007 173.034 24.31C173.233 24.1107 173.333 23.8073 173.333 23.4ZM177.356 24.596C177.634 24.596 177.855 24.5267 178.019 24.388C178.193 24.2407 178.279 24.037 178.279 23.777V21.684H179.631V23.725C179.631 24.3057 179.93 24.596 180.528 24.596H180.97C181.057 24.596 181.1 24.8343 181.1 25.311C181.1 25.7703 181.057 26 180.97 26H180.476C179.705 26 179.194 25.766 178.942 25.298C178.639 25.766 178.11 26 177.356 26H175.796C175.71 26 175.666 25.7747 175.666 25.324C175.666 24.8387 175.71 24.596 175.796 24.596H177.356ZM178.5 27.521V28.769H174.964V27.521H178.5ZM182.861 24.596C183.13 24.596 183.307 24.5873 183.394 24.57C182.9 24.3533 182.545 24.1063 182.328 23.829C182.12 23.543 182.016 23.179 182.016 22.737C182.016 22.2603 182.124 21.827 182.341 21.437C182.566 21.047 182.87 20.7437 183.251 20.527C183.641 20.3017 184.079 20.189 184.564 20.189C185.379 20.189 186.011 20.4403 186.462 20.943C186.921 21.4457 187.151 22.139 187.151 23.023V23.465C187.151 25.155 186.02 26 183.758 26H180.976C180.889 26 180.846 25.7747 180.846 25.324C180.846 24.8387 180.889 24.596 180.976 24.596H182.861ZM185.422 24.401C185.682 24.167 185.812 23.8203 185.812 23.361V23.101C185.812 22.061 185.392 21.541 184.551 21.541C184.222 21.541 183.94 21.658 183.706 21.892C183.472 22.1173 183.355 22.3947 183.355 22.724C183.355 22.9753 183.416 23.192 183.537 23.374C183.667 23.5473 183.879 23.7163 184.174 23.881C184.469 24.0457 184.885 24.219 185.422 24.401ZM186.267 17.654V18.902H182.731V17.654H186.267Z" fill="white"/>
</svg>
