<svg width="101" height="100" viewBox="0 0 101 100" fill="none" xmlns="http://www.w3.org/2000/svg">
<rect x="0.5" width="100" height="100" rx="8" fill="#FAFAFA"/>
<path d="M67 62H73V66H63V54H67V62ZM59 34H27V30H59V34ZM65 46C67.4792 46 69.8125 46.4688 72 47.4062C74.1875 48.3438 76.0938 49.6354 77.7188 51.2812C79.3438 52.9271 80.625 54.8333 81.5625 57C82.5 59.1667 82.9792 61.5 83 64C83 66.4792 82.5312 68.8125 81.5938 71C80.6562 73.1875 79.3646 75.0938 77.7188 76.7188C76.0729 78.3438 74.1667 79.625 72 80.5625C69.8333 81.5 67.5 81.9792 65 82C62.5208 82 60.1875 81.5312 58 80.5938C55.8125 79.6562 53.9062 78.3646 52.2812 76.7188C50.6562 75.0729 49.375 73.1667 48.4375 71C47.5 68.8333 47.0208 66.5 47 64C47 61.5208 47.4688 59.1875 48.4062 57C49.3438 54.8125 50.6354 52.9062 52.2812 51.2812C53.9271 49.6562 55.8333 48.375 58 47.4375C60.1667 46.5 62.5 46.0208 65 46ZM65 78C66.9375 78 68.75 77.6354 70.4375 76.9062C72.125 76.1771 73.6042 75.1771 74.875 73.9062C76.1458 72.6354 77.1458 71.1562 77.875 69.4688C78.6042 67.7812 78.9792 65.9583 79 64C79 62.0625 78.6354 60.25 77.9062 58.5625C77.1771 56.875 76.1771 55.3958 74.9062 54.125C73.6354 52.8542 72.1562 51.8542 70.4688 51.125C68.7812 50.3958 66.9583 50.0208 65 50C63.0625 50 61.25 50.3646 59.5625 51.0938C57.875 51.8229 56.3958 52.8229 55.125 54.0938C53.8542 55.3646 52.8542 56.8438 52.125 58.5312C51.3958 60.2188 51.0208 62.0417 51 64C51 65.9375 51.3646 67.75 52.0938 69.4375C52.8229 71.125 53.8229 72.6042 55.0938 73.875C56.3646 75.1458 57.8438 76.1458 59.5312 76.875C61.2188 77.6042 63.0417 77.9792 65 78ZM55.4375 42C53.1667 43 51.0833 44.3333 49.1875 46H27V42H55.4375ZM43.2188 54C42.9271 54.6458 42.6667 55.3021 42.4375 55.9688C42.2083 56.6354 41.9896 57.3125 41.7812 58H27V54H43.2188ZM27 66H41.0938C41.1562 66.6667 41.2396 67.3333 41.3438 68C41.4479 68.6667 41.5938 69.3333 41.7812 70H27V66ZM45.5625 78C46.6042 79.4792 47.8125 80.8125 49.1875 82H19V18H67V40.0938L66 40.0312C65.6667 40.0104 65.3333 40 65 40C64.6667 40 64.3333 40.0104 64 40.0312C63.6667 40.0521 63.3333 40.0729 63 40.0938V22H23V78H45.5625Z" fill="#1242E0"/>
</svg>
