<svg width="749" height="19" viewBox="0 0 749 19" fill="none" xmlns="http://www.w3.org/2000/svg">
<line y1="-0.5" x2="730.001" y2="-0.5" transform="matrix(-0.999997 0.00199434 -0.00205643 -0.999998 739.005 8.00781)" stroke="#C9CBD1" stroke-dasharray="8 8"/>
<path d="M9.01613 17.9664C4.32497 17.9678 0.516663 14.1626 0.510967 9.46616C0.505272 4.76975 4.30435 0.96216 8.9955 0.960737C13.6867 0.959313 17.495 4.76459 17.5007 9.461C17.5064 14.1574 13.7073 17.965 9.01613 17.9664Z" stroke="#7B808C"/>
<ellipse cx="7.00215" cy="6.99633" rx="7.00215" ry="6.99633" transform="matrix(0.0012127 0.999999 -1 0.000303397 15.9937 2.45898)" fill="#41444B"/>
<path d="M374.016 17.7389C369.325 17.7404 365.517 13.9351 365.511 9.23865C365.505 4.54222 369.304 0.734621 373.996 0.733197C378.687 0.731774 382.495 4.53706 382.501 9.23349C382.506 13.9299 378.707 17.7375 374.016 17.7389Z" stroke="#7B808C"/>
<ellipse cx="7.00209" cy="6.99631" rx="7.00209" ry="6.99631" transform="matrix(0.0012127 0.999999 -1 0.000303398 380.994 2.23145)" fill="#41444B"/>
<path d="M739.015 17.5104C734.324 17.5119 730.516 13.7067 730.51 9.01033C730.505 4.31397 734.305 0.506323 738.996 0.504825C743.687 0.503327 747.496 4.30855 747.501 9.0049C747.506 13.7013 743.707 17.5089 739.015 17.5104Z" stroke="#7B808C"/>
<ellipse cx="7.00239" cy="6.99582" rx="7.00239" ry="6.99582" transform="matrix(0.00114119 0.999999 -1 0.000319291 745.995 2.00293)" fill="#41444B"/>
</svg>
