<svg width="133" height="37" viewBox="0 0 133 37" fill="none" xmlns="http://www.w3.org/2000/svg">
<path d="M17.3117 1.92773V16.6702H15.3314V5.9984L10.7767 10.8612H10.2486L5.58381 5.9984V16.6702H3.60349V1.92773H4.21959L10.5126 8.68284L16.6956 1.92773H17.3117Z" fill="white"/>
<path d="M26.1352 5.44831C27.2647 5.44831 28.2035 5.68302 28.9516 6.15243C29.6998 6.62184 30.2572 7.25994 30.6239 8.06674C31.0053 8.87354 31.196 9.78302 31.196 10.7952V11.8734H22.7466C22.8346 12.4895 23.0473 13.0542 23.3847 13.5676C23.7221 14.0811 24.1622 14.4918 24.7049 14.7998C25.2477 15.0932 25.8711 15.2399 26.5753 15.2399C27.3674 15.2399 28.1082 15.0419 28.7976 14.6458C29.4871 14.2351 30.0665 13.7877 30.5359 13.3036L30.5139 15.2619C30.3085 15.5113 30.0005 15.7753 29.5898 16.0541C29.1937 16.3181 28.7316 16.5381 28.2035 16.7142C27.6901 16.9049 27.1474 17.0002 26.5753 17.0002C25.4604 17.0002 24.4702 16.7362 23.6048 16.2081C22.7393 15.68 22.0572 14.9832 21.5584 14.1177C21.0744 13.2376 20.8323 12.2768 20.8323 11.2353C20.8323 10.1938 21.0597 9.23293 21.5144 8.35279C21.9692 7.47264 22.5926 6.76853 23.3847 6.24044C24.1915 5.71236 25.1083 5.44831 26.1352 5.44831ZM26.1352 7.2086C25.2257 7.2086 24.4776 7.51665 23.8908 8.13275C23.3041 8.73419 22.9373 9.46764 22.7906 10.3331H29.4137C29.3404 9.61433 29.135 9.02757 28.7976 8.57283C28.4749 8.11808 28.0788 7.7807 27.6094 7.56066C27.14 7.32595 26.6486 7.2086 26.1352 7.2086Z" fill="white"/>
<path d="M37.203 2.49983V5.66835H40.4155V7.36263H37.203V13.8097C37.203 14.2644 37.3204 14.6238 37.5551 14.8879C37.7898 15.1519 38.1492 15.2839 38.6332 15.2839C39.0733 15.2839 39.44 15.2326 39.7334 15.1299C40.0268 15.0125 40.2835 14.8879 40.5035 14.7558V16.2301C40.2102 16.4648 39.8948 16.6482 39.5574 16.7802C39.2347 16.9269 38.7946 17.0002 38.2372 17.0002C37.2984 17.0002 36.5869 16.7215 36.1028 16.1641C35.6334 15.592 35.3987 14.8365 35.3987 13.8977V7.36263H33.2864V6.83454C34.0051 6.51182 34.6066 5.98373 35.0907 5.25028C35.5747 4.50216 36.0001 3.58534 36.3669 2.49983H37.203Z" fill="white"/>
<path d="M48.2268 5.44831C48.8576 5.44831 49.4957 5.60234 50.1411 5.91039C50.8012 6.20377 51.366 6.6145 51.8354 7.14259V5.66835H53.6397V16.6702H51.8354V14.7998C51.454 15.3866 50.9333 15.9 50.2731 16.3401C49.6277 16.7802 48.8869 17.0002 48.0508 17.0002C47.112 17.0002 46.2538 16.7655 45.4764 16.2961C44.6989 15.812 44.0755 15.1446 43.6061 14.2938C43.1513 13.443 42.9239 12.4601 42.9239 11.3453C42.9239 10.1277 43.1513 9.07891 43.6061 8.19876C44.0755 7.31862 44.7136 6.64384 45.5204 6.17443C46.3272 5.69035 47.2293 5.44831 48.2268 5.44831ZM48.5569 7.2086C47.7647 7.2086 47.09 7.40663 46.5325 7.8027C45.9751 8.19876 45.5424 8.71218 45.2343 9.34295C44.9409 9.95905 44.7942 10.6265 44.7942 11.3453C44.7942 12.0494 44.9409 12.7022 45.2343 13.3036C45.5277 13.8904 45.9384 14.3598 46.4665 14.7118C47.0093 15.0639 47.6327 15.2399 48.3368 15.2399C49.0116 15.2399 49.613 15.0639 50.1411 14.7118C50.6692 14.3598 51.0873 13.8757 51.3953 13.2596C51.7034 12.6288 51.8501 11.9247 51.8354 11.1472L51.8134 9.0349C51.3587 8.46281 50.8672 8.0154 50.3392 7.69268C49.8257 7.36996 49.2316 7.2086 48.5569 7.2086Z" fill="white"/>
<path d="M59.8048 2.01996V9.77109L66.543 2.01996H69.3176L63.1299 8.82422L69.9782 16.7735H67.2256L61.6986 10.4097L59.8048 12.4796V16.7735H57.823V2.01996H59.8048Z" fill="white"/>
<path d="M77.4651 5.5432C78.2138 5.5432 78.8964 5.71202 79.513 6.04967C80.1295 6.37263 80.6213 6.87176 80.9883 7.54704C81.3553 8.20765 81.5388 9.04442 81.5388 10.0574V16.7735H79.7332L79.7111 10.2335C79.7111 9.2793 79.4983 8.55263 79.0726 8.05351C78.6615 7.55438 78.0229 7.30482 77.1568 7.30482C76.5696 7.30482 75.9824 7.52502 75.3952 7.96543C74.8226 8.39115 74.3162 8.89028 73.8758 9.4628V16.7735H72.0701V0.918945H73.8758V7.503C74.1107 7.2094 74.4116 6.9158 74.7786 6.62219C75.1456 6.31391 75.5567 6.05701 76.0117 5.85148C76.4815 5.64596 76.9659 5.5432 77.4651 5.5432Z" fill="white"/>
<path d="M89.9285 5.5432C91.0442 5.5432 92.0351 5.80744 92.9013 6.33593C93.7674 6.86441 94.4427 7.56906 94.9271 8.44987C95.4263 9.33068 95.6758 10.2922 95.6758 11.3345C95.6758 12.3768 95.4263 13.3384 94.9271 14.2192C94.4427 15.0853 93.7674 15.7826 92.9013 16.3111C92.0351 16.8396 91.0442 17.1038 89.9285 17.1038C88.8128 17.1038 87.8219 16.8396 86.9558 16.3111C86.0897 15.7826 85.407 15.0853 84.9079 14.2192C84.4235 13.3384 84.1813 12.3768 84.1813 11.3345C84.1813 10.2922 84.4235 9.33068 84.9079 8.44987C85.407 7.56906 86.0897 6.86441 86.9558 6.33593C87.8219 5.80744 88.8128 5.5432 89.9285 5.5432ZM89.9285 7.30482C89.1505 7.30482 88.4679 7.49566 87.8807 7.87735C87.2934 8.24435 86.8384 8.73614 86.5154 9.3527C86.2071 9.95459 86.053 10.6152 86.053 11.3345C86.053 12.0392 86.2071 12.6998 86.5154 13.3163C86.8384 13.9182 87.2934 14.41 87.8807 14.7917C88.4679 15.1587 89.1505 15.3422 89.9285 15.3422C90.7213 15.3422 91.4039 15.1587 91.9764 14.7917C92.5636 14.41 93.0114 13.9182 93.3197 13.3163C93.6426 12.6998 93.8041 12.0392 93.8041 11.3345C93.8041 10.6152 93.6426 9.95459 93.3197 9.3527C93.0114 8.73614 92.5636 8.24435 91.9764 7.87735C91.4039 7.49566 90.7213 7.30482 89.9285 7.30482Z" fill="white"/>
<path d="M108.602 0.918945V16.7735H106.796V14.9018C106.414 15.489 105.893 16.0028 105.233 16.4432C104.587 16.8836 103.845 17.1038 103.009 17.1038C102.069 17.1038 101.21 16.869 100.432 16.3992C99.6542 15.9147 99.0303 15.2468 98.5605 14.3953C98.1054 13.5439 97.8779 12.5603 97.8779 11.4446C97.8779 10.2262 98.1054 9.17654 98.5605 8.29573C99.0303 7.41492 99.6688 6.73963 100.476 6.26987C101.284 5.78542 102.186 5.5432 103.185 5.5432C103.816 5.5432 104.455 5.69734 105.101 6.00562C105.761 6.29923 106.326 6.71027 106.796 7.23876V0.918945H108.602ZM103.515 7.34886C102.722 7.34886 102.047 7.54704 101.489 7.94341C100.931 8.32509 100.498 8.82422 100.19 9.44079C99.8964 10.0574 99.7496 10.7253 99.7496 11.4446C99.7496 12.1493 99.8964 12.8025 100.19 13.4044C100.484 13.9916 100.895 14.4614 101.423 14.8137C101.966 15.1661 102.59 15.3422 103.295 15.3422C103.97 15.3422 104.572 15.1661 105.101 14.8137C105.629 14.4614 106.047 13.977 106.356 13.3604C106.664 12.7291 106.811 12.0245 106.796 11.2464L106.774 9.1325C106.319 8.55997 105.827 8.11957 105.299 7.81129C104.785 7.503 104.19 7.34886 103.515 7.34886Z" fill="white"/>
<path d="M114.151 5.7634V7.96543C114.577 7.23142 115.09 6.64421 115.692 6.20381C116.294 5.7634 116.911 5.5432 117.542 5.5432C117.968 5.5432 118.349 5.6166 118.687 5.7634V7.85533C118.217 7.5764 117.747 7.43694 117.278 7.43694C116.529 7.43694 115.92 7.70118 115.45 8.22967C114.995 8.75816 114.562 9.3894 114.151 10.1234V16.7735H112.345V5.7634H114.151Z" fill="white"/>
<path d="M125.976 5.5432C127.091 5.5432 128.082 5.80744 128.948 6.33593C129.815 6.86441 130.49 7.56906 130.974 8.44987C131.473 9.33068 131.723 10.2922 131.723 11.3345C131.723 12.3768 131.473 13.3384 130.974 14.2192C130.49 15.0853 129.815 15.7826 128.948 16.3111C128.082 16.8396 127.091 17.1038 125.976 17.1038C124.86 17.1038 123.869 16.8396 123.003 16.3111C122.137 15.7826 121.454 15.0853 120.955 14.2192C120.471 13.3384 120.228 12.3768 120.228 11.3345C120.228 10.2922 120.471 9.33068 120.955 8.44987C121.454 7.56906 122.137 6.86441 123.003 6.33593C123.869 5.80744 124.86 5.5432 125.976 5.5432ZM125.976 7.30482C125.198 7.30482 124.515 7.49566 123.928 7.87735C123.341 8.24435 122.886 8.73614 122.563 9.3527C122.254 9.95459 122.1 10.6152 122.1 11.3345C122.1 12.0392 122.254 12.6998 122.563 13.3163C122.886 13.9182 123.341 14.41 123.928 14.7917C124.515 15.1587 125.198 15.3422 125.976 15.3422C126.768 15.3422 127.451 15.1587 128.024 14.7917C128.611 14.41 129.059 13.9182 129.367 13.3163C129.69 12.6998 129.851 12.0392 129.851 11.3345C129.851 10.6152 129.69 9.95459 129.367 9.3527C129.059 8.73614 128.611 8.24435 128.024 7.87735C127.451 7.49566 126.768 7.30482 125.976 7.30482Z" fill="white"/>
<path d="M1.55022 34.8716C2.58121 34.8716 3.44834 34.7931 4.15161 34.636C4.85487 34.479 5.41133 34.2366 5.821 33.9089C6.17604 33.6221 6.4355 33.2568 6.59937 32.813C6.77006 32.3692 6.85541 31.8162 6.85541 31.1539H4.97094C4.49299 31.1539 4.00822 31.0822 3.51662 30.9388C3.02502 30.7954 2.5778 30.5598 2.17496 30.2321C1.77895 29.9044 1.45463 29.4776 1.202 28.9519C0.949373 28.4193 0.823059 27.7707 0.823059 27.006C0.823059 26.5554 0.860612 26.1491 0.935718 25.7872C1.01765 25.4185 1.11665 25.0908 1.23273 24.804C1.35563 24.5173 1.48877 24.268 1.63215 24.0564C1.77554 23.8447 1.91551 23.6638 2.05206 23.5136C2.42759 23.138 2.85774 22.8479 3.34251 22.643C3.82729 22.4382 4.3462 22.3358 4.89925 22.3358C5.38402 22.3358 5.83807 22.4109 6.26139 22.5611C6.68471 22.7113 7.06366 22.9366 7.39822 23.237C8.31997 24.0973 8.78085 25.4458 8.78085 27.2825V31.1539C8.78085 32.1234 8.63746 32.9564 8.3507 33.6528C8.07076 34.3561 7.63378 34.9433 7.03976 35.4144C6.43891 35.8855 5.69127 36.2337 4.79683 36.4591C3.90922 36.6912 2.82701 36.8073 1.55022 36.8073V34.8716ZM4.89925 24.2715C4.2233 24.2715 3.69756 24.5104 3.32203 24.9884C2.9465 25.4663 2.75874 26.1389 2.75874 27.006C2.75874 27.8868 3.02502 28.4979 3.55759 28.8392C3.68732 28.9212 3.82046 28.9895 3.95701 29.0441C4.09357 29.0919 4.22671 29.1294 4.35644 29.1567C4.48617 29.1772 4.60224 29.1943 4.70466 29.2079C4.8139 29.2148 4.90266 29.2182 4.97094 29.2182H6.85541V27.2825C6.85541 26.7841 6.81786 26.3642 6.74275 26.0228C6.66764 25.6746 6.57206 25.3878 6.45598 25.1625C6.33991 24.9372 6.20677 24.7665 6.05656 24.6504C5.91317 24.5275 5.76979 24.4387 5.62641 24.3841C5.48302 24.3295 5.34647 24.2988 5.21674 24.2919C5.08701 24.2783 4.98118 24.2715 4.89925 24.2715Z" fill="white"/>
<path d="M10.0693 36.838V34.9023H11.4826C12.1859 34.9023 12.7936 34.817 13.3057 34.6463C13.8246 34.4824 14.2513 34.2264 14.5859 33.8782C14.9273 33.5299 15.1765 33.0861 15.3335 32.5467C15.4974 32.0073 15.5793 31.3655 15.5793 30.6213V24.2305H17.515V30.6213C17.515 31.5977 17.3853 32.4682 17.1258 33.2329C16.8732 34.0045 16.4942 34.6565 15.989 35.1891C15.4837 35.7217 14.8522 36.1279 14.0943 36.4079C13.3432 36.6946 12.4727 36.838 11.4826 36.838H10.0693Z" fill="white"/>
<path d="M24.0799 31.3075C23.7317 31.3075 23.3801 31.2904 23.025 31.2563C22.67 31.229 22.3218 31.1846 21.9804 31.1231C21.6458 31.0549 21.3215 30.9695 21.0074 30.8671C20.7002 30.7579 20.4202 30.6281 20.1676 30.4779L19.3175 29.9966L20.2803 28.3067L21.1303 28.788C21.3693 28.9246 21.6629 29.0373 22.0111 29.126C22.3593 29.2079 22.728 29.266 23.1172 29.3001C23.4518 29.3343 23.7863 29.3513 24.1209 29.3513C24.1823 29.3513 24.3257 29.3513 24.551 29.3513C24.7764 29.3445 25.0563 29.3172 25.3909 29.2694C25.7869 29.2079 26.1112 29.1226 26.3638 29.0134C26.6233 28.8973 26.7871 28.7676 26.8554 28.6242C26.8827 28.5559 26.8964 28.4808 26.8964 28.3989C26.8964 28.2828 26.8622 28.1223 26.794 27.9175C26.7257 27.7058 26.5823 27.4361 26.3638 27.1084L22.6563 21.5062L24.295 20.4411C24.3838 20.5776 24.4759 20.721 24.5715 20.8712C24.6671 21.0146 24.7798 21.1853 24.9095 21.3833C25.0392 21.5745 25.1894 21.8032 25.3601 22.0695C25.5308 22.329 25.7391 22.643 25.9849 23.0117C26.2307 23.3804 26.5174 23.8106 26.8452 24.3022C27.1729 24.7938 27.5553 25.3673 27.9922 26.0228C28.1629 26.2822 28.3166 26.5554 28.4531 26.8421C28.5897 27.1221 28.6921 27.4054 28.7604 27.6922C28.8218 27.9516 28.8525 28.2111 28.8525 28.4705C28.8525 28.4979 28.8491 28.5934 28.8423 28.7573C28.8355 28.9144 28.7672 29.1328 28.6375 29.4128C28.2073 30.3755 27.2173 30.9695 25.6674 31.1948C25.4284 31.229 25.1758 31.2563 24.9095 31.2768C24.6432 31.2973 24.3667 31.3075 24.0799 31.3075Z" fill="white"/>
<path d="M31.6758 34.8716C32.7068 34.8716 33.5739 34.7931 34.2772 34.636C34.9805 34.479 35.5369 34.2366 35.9466 33.9089C36.3016 33.6221 36.5611 33.2568 36.725 32.813C36.8956 32.3692 36.981 31.8162 36.981 31.1539H35.0965C34.6186 31.1539 34.1338 31.0822 33.6422 30.9388C33.1506 30.7954 32.7034 30.5598 32.3005 30.2321C31.9045 29.9044 31.5802 29.4776 31.3276 28.9519C31.075 28.4193 30.9486 27.7707 30.9486 27.006C30.9486 26.5554 30.9862 26.1491 31.0613 25.7872C31.1432 25.4185 31.2422 25.0908 31.3583 24.804C31.4812 24.5173 31.6144 24.268 31.7577 24.0564C31.9011 23.8447 32.0411 23.6638 32.1776 23.5136C32.5532 23.138 32.9833 22.8479 33.4681 22.643C33.9529 22.4382 34.4718 22.3358 35.0248 22.3358C35.5096 22.3358 35.9637 22.4109 36.387 22.5611C36.8103 22.7113 37.1892 22.9366 37.5238 23.237C38.4456 24.0973 38.9064 25.4458 38.9064 27.2825V29.2182H40.4427V31.1539H38.9064C38.9064 32.1234 38.763 32.9564 38.4763 33.6528C38.1963 34.3561 37.7594 34.9433 37.1653 35.4144C36.5645 35.8855 35.8169 36.2337 34.9224 36.4591C34.0348 36.6912 32.9526 36.8073 31.6758 36.8073V34.8716ZM34.9224 24.2715C34.2465 24.2715 33.7207 24.5104 33.3452 24.9884C32.9697 25.4663 32.7819 26.1389 32.7819 27.006C32.7819 27.8868 33.0482 28.4979 33.5808 28.8392C33.7105 28.9212 33.8436 28.9895 33.9802 29.0441C34.1167 29.0919 34.2499 29.1294 34.3796 29.1567C34.5093 29.1772 34.6254 29.1943 34.7278 29.2079C34.8371 29.2148 34.9258 29.2182 34.9941 29.2182H36.8786V27.2825C36.8786 26.7841 36.841 26.3642 36.7659 26.0228C36.6908 25.6746 36.5952 25.3878 36.4792 25.1625C36.3631 24.9372 36.2299 24.7665 36.0797 24.6504C35.9363 24.5275 35.793 24.4387 35.6496 24.3841C35.5062 24.3295 35.3696 24.2988 35.2399 24.2919C35.1102 24.2783 35.0044 24.2715 34.9224 24.2715Z" fill="white"/>
<path d="M44.5173 29.2182C44.5924 29.2182 44.6299 29.2455 44.6299 29.3001V31.0515C44.6299 31.1197 44.5924 31.1539 44.5173 31.1539H40.1338C40.0656 31.1539 40.0314 31.1197 40.0314 31.0515V29.3001C40.0314 29.2455 40.0656 29.2182 40.1338 29.2182H44.5173Z" fill="white"/>
<path d="M48.698 29.2182C48.7731 29.2182 48.8106 29.2455 48.8106 29.3001V31.0515C48.8106 31.1197 48.7731 31.1539 48.698 31.1539H44.3145C44.2462 31.1539 44.2121 31.1197 44.2121 31.0515V29.3001C44.2121 29.2455 44.2462 29.2182 44.3145 29.2182H48.698Z" fill="white"/>
<path d="M52.8786 29.2182C52.9538 29.2182 52.9913 29.2455 52.9913 29.3001V31.0515C52.9913 31.1197 52.9538 31.1539 52.8786 31.1539H48.4952C48.4269 31.1539 48.3928 31.1197 48.3928 31.0515V29.3001C48.3928 29.2455 48.4269 29.2182 48.4952 29.2182H52.8786Z" fill="white"/>
<path d="M57.0593 29.2182C57.1344 29.2182 57.172 29.2455 57.172 29.3001V31.0515C57.172 31.1197 57.1344 31.1539 57.0593 31.1539H52.6759C52.6076 31.1539 52.5735 31.1197 52.5735 31.0515V29.3001C52.5735 29.2455 52.6076 29.2182 52.6759 29.2182H57.0593Z" fill="white"/>
<path d="M61.24 29.2182C61.3151 29.2182 61.3527 29.2455 61.3527 29.3001V31.0515C61.3527 31.1197 61.3151 31.1539 61.24 31.1539H56.8566C56.7883 31.1539 56.7542 31.1197 56.7542 31.0515V29.3001C56.7542 29.2455 56.7883 29.2182 56.8566 29.2182H61.24Z" fill="white"/>
<path d="M65.4207 29.2182C65.4958 29.2182 65.5334 29.2455 65.5334 29.3001V31.0515C65.5334 31.1197 65.4958 31.1539 65.4207 31.1539H61.0373C60.969 31.1539 60.9348 31.1197 60.9348 31.0515V29.3001C60.9348 29.2455 60.969 29.2182 61.0373 29.2182H65.4207Z" fill="white"/>
<path d="M69.6014 29.2182C69.6765 29.2182 69.7141 29.2455 69.7141 29.3001V31.0515C69.7141 31.1197 69.6765 31.1539 69.6014 31.1539H65.2179C65.1497 31.1539 65.1155 31.1197 65.1155 31.0515V29.3001C65.1155 29.2455 65.1497 29.2182 65.2179 29.2182H69.6014Z" fill="white"/>
<path d="M73.7821 29.2182C73.8572 29.2182 73.8947 29.2455 73.8947 29.3001V31.0515C73.8947 31.1197 73.8572 31.1539 73.7821 31.1539H69.3986C69.3304 31.1539 69.2962 31.1197 69.2962 31.0515V29.3001C69.2962 29.2455 69.3304 29.2182 69.3986 29.2182H73.7821Z" fill="white"/>
<path d="M77.9628 29.2182C78.0379 29.2182 78.0754 29.2455 78.0754 29.3001V31.0515C78.0754 31.1197 78.0379 31.1539 77.9628 31.1539H73.5793C73.511 31.1539 73.4769 31.1197 73.4769 31.0515V29.3001C73.4769 29.2455 73.511 29.2182 73.5793 29.2182H77.9628Z" fill="white"/>
<path d="M82.1434 29.2182C82.2186 29.2182 82.2561 29.2455 82.2561 29.3001V31.0515C82.2561 31.1197 82.2186 31.1539 82.1434 31.1539H77.76C77.6917 31.1539 77.6576 31.1197 77.6576 31.0515V29.3001C77.6576 29.2455 77.6917 29.2182 77.76 29.2182H82.1434Z" fill="white"/>
<path d="M86.3241 29.2182C86.3992 29.2182 86.4368 29.2455 86.4368 29.3001V31.0515C86.4368 31.1197 86.3992 31.1539 86.3241 31.1539H81.9407C81.8724 31.1539 81.8383 31.1197 81.8383 31.0515V29.3001C81.8383 29.2455 81.8724 29.2182 81.9407 29.2182H86.3241Z" fill="white"/>
<path d="M90.5048 29.2182C90.5799 29.2182 90.6175 29.2455 90.6175 29.3001V31.0515C90.6175 31.1197 90.5799 31.1539 90.5048 31.1539H86.1214C86.0531 31.1539 86.019 31.1197 86.019 31.0515V29.3001C86.019 29.2455 86.0531 29.2182 86.1214 29.2182H90.5048Z" fill="white"/>
<path d="M104.005 27.0572C103.964 27.0845 103.787 27.204 103.473 27.4157C103.159 27.6273 102.739 27.8868 102.213 28.194C101.694 28.4944 101.087 28.8188 100.39 29.167C99.6937 29.5152 98.9426 29.8361 98.137 30.1297C97.3381 30.4233 96.5017 30.6691 95.6277 30.8671C94.7538 31.0583 93.8798 31.1539 93.0059 31.1539H90.1997V29.2182H93.0059C93.7706 29.2182 94.5421 29.1294 95.3205 28.9519C96.1057 28.7676 96.8602 28.5422 97.5839 28.276C98.3076 28.0028 98.987 27.7092 99.622 27.3952C100.257 27.0743 100.813 26.7738 101.291 26.4939C100.629 26.2276 99.9668 25.9682 99.3045 25.7155C98.649 25.4629 98.0482 25.241 97.502 25.0498C96.9557 24.8518 96.4846 24.6914 96.0886 24.5685C95.6994 24.4456 95.44 24.3739 95.3103 24.3534C95.1942 24.3534 95.0713 24.3636 94.9416 24.3841C94.8186 24.4046 94.6957 24.4661 94.5729 24.5685C94.45 24.6709 94.3305 24.8313 94.2144 25.0498C94.0983 25.2615 93.9891 25.5619 93.8867 25.9511L92.0124 25.4595C92.5382 23.4385 93.6443 22.428 95.3307 22.428C95.3717 22.428 95.4263 22.4314 95.4946 22.4382C95.5629 22.4382 95.6619 22.4553 95.7916 22.4894C95.9213 22.5167 96.0954 22.5645 96.3139 22.6328C96.5324 22.6942 96.8089 22.783 97.1435 22.8991C97.4849 23.0151 97.898 23.1654 98.3828 23.3497C98.8675 23.5272 99.4479 23.7491 100.124 24.0154L103.749 25.3571L104.005 27.0572ZM93.1288 18.2391L94.8699 16.4775L96.6519 18.2596L94.8903 20.0212L93.1288 18.2391Z" fill="white"/>
<path d="M111.243 31.1539C110.526 31.147 109.932 31.0992 109.46 31.0105C108.996 30.9149 108.6 30.7818 108.272 30.6111C107.952 30.4335 107.692 30.215 107.494 29.9556C107.303 29.6893 107.153 29.3821 107.043 29.0338C106.934 28.6788 106.863 28.2828 106.828 27.8458C106.794 27.4088 106.777 26.9241 106.777 26.3915V16.539H108.713V26.3915C108.713 26.9855 108.73 27.4669 108.764 27.8356C108.805 28.2043 108.904 28.491 109.061 28.6959C109.225 28.8939 109.467 29.0304 109.788 29.1055C110.116 29.1738 110.601 29.2114 111.243 29.2182V31.1539Z" fill="white"/>
<path d="M122.023 29.2182V31.1539H120.231C119.609 31.1539 119.06 31.0651 118.582 30.8876C118.111 30.7101 117.732 30.4438 117.445 30.0887C116.735 30.7988 115.683 31.1539 114.29 31.1539H110.808V29.2182H114.29C114.782 29.2182 115.171 29.1704 115.458 29.0748C115.745 28.9724 115.96 28.8495 116.103 28.7061C116.253 28.5559 116.349 28.392 116.39 28.2145C116.438 28.0302 116.462 27.856 116.462 27.6922V24.2305H118.387V27.6205C118.387 27.8731 118.425 28.0882 118.5 28.2657C118.582 28.4432 118.681 28.5934 118.797 28.7163C118.913 28.8324 119.043 28.9246 119.186 28.9929C119.336 29.0612 119.48 29.1124 119.616 29.1465C119.753 29.1806 119.876 29.2011 119.985 29.2079C120.094 29.2148 120.176 29.2182 120.231 29.2182H122.023ZM118.705 21.7315L117.086 20.0929L118.684 18.4337L120.343 20.0929L118.705 21.7315ZM114.782 21.711L113.164 20.0724L114.762 18.4132L116.421 20.0724L114.782 21.711Z" fill="white"/>
<path d="M129.002 29.7098C129.05 29.7098 129.115 29.7064 129.197 29.6995C129.285 29.6927 129.378 29.6654 129.473 29.6176C129.576 29.5698 129.675 29.4981 129.77 29.4025C129.873 29.3001 129.961 29.1602 130.036 28.9826C130.118 28.7983 130.183 28.5661 130.231 28.2862C130.286 27.9994 130.313 27.6512 130.313 27.2415C130.313 27.1664 130.306 27.047 130.292 26.8831C130.279 26.7192 130.248 26.5383 130.2 26.3403C130.152 26.1354 130.081 25.9272 129.985 25.7155C129.896 25.5039 129.774 25.3093 129.617 25.1318C129.459 24.9542 129.268 24.8109 129.043 24.7016C128.818 24.5855 128.545 24.5275 128.224 24.5275C127.923 24.5275 127.667 24.5821 127.456 24.6914C127.251 24.7938 127.077 24.9372 126.933 25.1215C126.79 25.3059 126.67 25.5244 126.575 25.777C126.479 26.0228 126.39 26.2925 126.308 26.5861C126.227 26.8728 126.145 27.1767 126.063 27.4976C125.981 27.8117 125.885 28.1257 125.776 28.4398C126.131 28.6173 126.459 28.7846 126.759 28.9417C127.06 29.0987 127.339 29.2353 127.599 29.3513C127.858 29.4606 128.101 29.5493 128.326 29.6176C128.558 29.6791 128.784 29.7098 129.002 29.7098ZM128.224 22.6021C128.893 22.6021 129.473 22.7318 129.965 22.9912C130.463 23.2439 130.876 23.5853 131.204 24.0154C131.532 24.4456 131.774 24.9406 131.931 25.5005C132.095 26.0603 132.177 26.6407 132.177 27.2415C132.177 27.9038 132.119 28.474 132.003 28.9519C131.894 29.4299 131.747 29.8327 131.562 30.1604C131.378 30.4813 131.17 30.7408 130.938 30.9388C130.712 31.1368 130.48 31.287 130.241 31.3894C130.009 31.4918 129.784 31.5601 129.565 31.5943C129.347 31.6284 129.159 31.6455 129.002 31.6455C128.667 31.6455 128.347 31.6113 128.039 31.5431C127.732 31.4748 127.418 31.3758 127.097 31.246C126.776 31.1231 126.438 30.9695 126.083 30.7852C125.735 30.6008 125.349 30.3926 124.926 30.1604C124.366 30.8227 123.646 31.1539 122.765 31.1539H121.587V29.2182H122.765C123.024 29.2182 123.236 29.1226 123.4 28.9314C123.571 28.7402 123.717 28.491 123.84 28.1838C123.963 27.8765 124.076 27.5249 124.178 27.1289C124.281 26.7329 124.397 26.3266 124.526 25.9101C124.663 25.4936 124.823 25.0874 125.008 24.6914C125.192 24.2954 125.424 23.9437 125.704 23.6365C125.991 23.3292 126.336 23.08 126.739 22.8888C127.148 22.6977 127.643 22.6021 128.224 22.6021Z" fill="white"/>
<mask id="mask0_217_2608" style="mask-type:alpha" maskUnits="userSpaceOnUse" x="0" y="16" width="133" height="21">
<path d="M1.55022 34.8716C2.58121 34.8716 3.44834 34.7931 4.15161 34.636C4.85487 34.479 5.41133 34.2366 5.821 33.9089C6.17604 33.6221 6.4355 33.2568 6.59937 32.813C6.77006 32.3692 6.85541 31.8162 6.85541 31.1539H4.97094C4.49299 31.1539 4.00822 31.0822 3.51662 30.9388C3.02502 30.7954 2.5778 30.5598 2.17496 30.2321C1.77895 29.9044 1.45463 29.4776 1.202 28.9519C0.949373 28.4193 0.823059 27.7707 0.823059 27.006C0.823059 26.5554 0.860612 26.1491 0.935718 25.7872C1.01765 25.4185 1.11665 25.0908 1.23273 24.804C1.35563 24.5173 1.48877 24.268 1.63215 24.0564C1.77554 23.8447 1.91551 23.6638 2.05206 23.5136C2.42759 23.138 2.85774 22.8479 3.34251 22.643C3.82729 22.4382 4.3462 22.3358 4.89925 22.3358C5.38402 22.3358 5.83807 22.4109 6.26139 22.5611C6.68471 22.7113 7.06366 22.9366 7.39822 23.237C8.31997 24.0973 8.78085 25.4458 8.78085 27.2825V31.1539C8.78085 32.1234 8.63746 32.9564 8.3507 33.6528C8.07076 34.3561 7.63378 34.9433 7.03976 35.4144C6.43891 35.8855 5.69127 36.2337 4.79683 36.4591C3.90922 36.6912 2.82701 36.8073 1.55022 36.8073V34.8716ZM4.89925 24.2715C4.2233 24.2715 3.69756 24.5104 3.32203 24.9884C2.9465 25.4663 2.75874 26.1389 2.75874 27.006C2.75874 27.8868 3.02502 28.4979 3.55759 28.8392C3.68732 28.9212 3.82046 28.9895 3.95701 29.0441C4.09357 29.0919 4.22671 29.1294 4.35644 29.1567C4.48617 29.1772 4.60224 29.1943 4.70466 29.2079C4.8139 29.2148 4.90266 29.2182 4.97094 29.2182H6.85541V27.2825C6.85541 26.7841 6.81786 26.3642 6.74275 26.0228C6.66764 25.6746 6.57206 25.3878 6.45598 25.1625C6.33991 24.9372 6.20677 24.7665 6.05656 24.6504C5.91317 24.5275 5.76979 24.4387 5.62641 24.3841C5.48302 24.3295 5.34647 24.2988 5.21674 24.2919C5.08701 24.2783 4.98118 24.2715 4.89925 24.2715Z" fill="#1B2430"/>
<path d="M10.0693 36.838V34.9023H11.4826C12.1859 34.9023 12.7936 34.817 13.3057 34.6463C13.8246 34.4824 14.2513 34.2264 14.5859 33.8782C14.9273 33.5299 15.1765 33.0861 15.3335 32.5467C15.4974 32.0073 15.5793 31.3655 15.5793 30.6213V24.2305H17.515V30.6213C17.515 31.5977 17.3853 32.4682 17.1258 33.2329C16.8732 34.0045 16.4942 34.6565 15.989 35.1891C15.4837 35.7217 14.8522 36.1279 14.0943 36.4079C13.3432 36.6946 12.4727 36.838 11.4826 36.838H10.0693Z" fill="#1B2430"/>
<path d="M24.0799 31.3075C23.7317 31.3075 23.3801 31.2904 23.025 31.2563C22.67 31.229 22.3218 31.1846 21.9804 31.1231C21.6458 31.0549 21.3215 30.9695 21.0074 30.8671C20.7002 30.7579 20.4202 30.6281 20.1676 30.4779L19.3175 29.9966L20.2803 28.3067L21.1303 28.788C21.3693 28.9246 21.6629 29.0373 22.0111 29.126C22.3593 29.2079 22.728 29.266 23.1172 29.3001C23.4518 29.3343 23.7863 29.3513 24.1209 29.3513C24.1823 29.3513 24.3257 29.3513 24.551 29.3513C24.7764 29.3445 25.0563 29.3172 25.3909 29.2694C25.7869 29.2079 26.1112 29.1226 26.3638 29.0134C26.6233 28.8973 26.7871 28.7676 26.8554 28.6242C26.8827 28.5559 26.8964 28.4808 26.8964 28.3989C26.8964 28.2828 26.8622 28.1223 26.794 27.9175C26.7257 27.7058 26.5823 27.4361 26.3638 27.1084L22.6563 21.5062L24.295 20.4411C24.3838 20.5776 24.4759 20.721 24.5715 20.8712C24.6671 21.0146 24.7798 21.1853 24.9095 21.3833C25.0392 21.5745 25.1894 21.8032 25.3601 22.0695C25.5308 22.329 25.7391 22.643 25.9849 23.0117C26.2307 23.3804 26.5174 23.8106 26.8452 24.3022C27.1729 24.7938 27.5553 25.3673 27.9922 26.0228C28.1629 26.2822 28.3166 26.5554 28.4531 26.8421C28.5897 27.1221 28.6921 27.4054 28.7604 27.6922C28.8218 27.9516 28.8525 28.2111 28.8525 28.4705C28.8525 28.4979 28.8491 28.5934 28.8423 28.7573C28.8355 28.9144 28.7672 29.1328 28.6375 29.4128C28.2073 30.3755 27.2173 30.9695 25.6674 31.1948C25.4284 31.229 25.1758 31.2563 24.9095 31.2768C24.6432 31.2973 24.3667 31.3075 24.0799 31.3075Z" fill="#1B2430"/>
<path d="M31.6758 34.8716C32.7068 34.8716 33.5739 34.7931 34.2772 34.636C34.9805 34.479 35.5369 34.2366 35.9466 33.9089C36.3016 33.6221 36.5611 33.2568 36.725 32.813C36.8956 32.3692 36.981 31.8162 36.981 31.1539H35.0965C34.6186 31.1539 34.1338 31.0822 33.6422 30.9388C33.1506 30.7954 32.7034 30.5598 32.3005 30.2321C31.9045 29.9044 31.5802 29.4776 31.3276 28.9519C31.075 28.4193 30.9486 27.7707 30.9486 27.006C30.9486 26.5554 30.9862 26.1491 31.0613 25.7872C31.1432 25.4185 31.2422 25.0908 31.3583 24.804C31.4812 24.5173 31.6144 24.268 31.7577 24.0564C31.9011 23.8447 32.0411 23.6638 32.1776 23.5136C32.5532 23.138 32.9833 22.8479 33.4681 22.643C33.9529 22.4382 34.4718 22.3358 35.0248 22.3358C35.5096 22.3358 35.9637 22.4109 36.387 22.5611C36.8103 22.7113 37.1892 22.9366 37.5238 23.237C38.4456 24.0973 38.9064 25.4458 38.9064 27.2825V29.2182H40.4427V31.1539H38.9064C38.9064 32.1234 38.763 32.9564 38.4763 33.6528C38.1963 34.3561 37.7594 34.9433 37.1653 35.4144C36.5645 35.8855 35.8169 36.2337 34.9224 36.4591C34.0348 36.6912 32.9526 36.8073 31.6758 36.8073V34.8716ZM34.9224 24.2715C34.2465 24.2715 33.7207 24.5104 33.3452 24.9884C32.9697 25.4663 32.7819 26.1389 32.7819 27.006C32.7819 27.8868 33.0482 28.4979 33.5808 28.8392C33.7105 28.9212 33.8436 28.9895 33.9802 29.0441C34.1167 29.0919 34.2499 29.1294 34.3796 29.1567C34.5093 29.1772 34.6254 29.1943 34.7278 29.2079C34.8371 29.2148 34.9258 29.2182 34.9941 29.2182H36.8786V27.2825C36.8786 26.7841 36.841 26.3642 36.7659 26.0228C36.6908 25.6746 36.5952 25.3878 36.4792 25.1625C36.3631 24.9372 36.2299 24.7665 36.0797 24.6504C35.9363 24.5275 35.793 24.4387 35.6496 24.3841C35.5062 24.3295 35.3696 24.2988 35.2399 24.2919C35.1102 24.2783 35.0044 24.2715 34.9224 24.2715Z" fill="#1B2430"/>
<path d="M44.5173 29.2182C44.5924 29.2182 44.6299 29.2455 44.6299 29.3001V31.0515C44.6299 31.1197 44.5924 31.1539 44.5173 31.1539H40.1338C40.0656 31.1539 40.0314 31.1197 40.0314 31.0515V29.3001C40.0314 29.2455 40.0656 29.2182 40.1338 29.2182H44.5173Z" fill="#1B2430"/>
<path d="M48.698 29.2182C48.7731 29.2182 48.8106 29.2455 48.8106 29.3001V31.0515C48.8106 31.1197 48.7731 31.1539 48.698 31.1539H44.3145C44.2462 31.1539 44.2121 31.1197 44.2121 31.0515V29.3001C44.2121 29.2455 44.2462 29.2182 44.3145 29.2182H48.698Z" fill="#1B2430"/>
<path d="M52.8786 29.2182C52.9538 29.2182 52.9913 29.2455 52.9913 29.3001V31.0515C52.9913 31.1197 52.9538 31.1539 52.8786 31.1539H48.4952C48.4269 31.1539 48.3928 31.1197 48.3928 31.0515V29.3001C48.3928 29.2455 48.4269 29.2182 48.4952 29.2182H52.8786Z" fill="#1B2430"/>
<path d="M57.0593 29.2182C57.1344 29.2182 57.172 29.2455 57.172 29.3001V31.0515C57.172 31.1197 57.1344 31.1539 57.0593 31.1539H52.6759C52.6076 31.1539 52.5735 31.1197 52.5735 31.0515V29.3001C52.5735 29.2455 52.6076 29.2182 52.6759 29.2182H57.0593Z" fill="#1B2430"/>
<path d="M61.24 29.2182C61.3151 29.2182 61.3527 29.2455 61.3527 29.3001V31.0515C61.3527 31.1197 61.3151 31.1539 61.24 31.1539H56.8566C56.7883 31.1539 56.7542 31.1197 56.7542 31.0515V29.3001C56.7542 29.2455 56.7883 29.2182 56.8566 29.2182H61.24Z" fill="#1B2430"/>
<path d="M65.4207 29.2182C65.4958 29.2182 65.5334 29.2455 65.5334 29.3001V31.0515C65.5334 31.1197 65.4958 31.1539 65.4207 31.1539H61.0373C60.969 31.1539 60.9348 31.1197 60.9348 31.0515V29.3001C60.9348 29.2455 60.969 29.2182 61.0373 29.2182H65.4207Z" fill="#1B2430"/>
<path d="M69.6014 29.2182C69.6765 29.2182 69.7141 29.2455 69.7141 29.3001V31.0515C69.7141 31.1197 69.6765 31.1539 69.6014 31.1539H65.2179C65.1497 31.1539 65.1155 31.1197 65.1155 31.0515V29.3001C65.1155 29.2455 65.1497 29.2182 65.2179 29.2182H69.6014Z" fill="#1B2430"/>
<path d="M73.7821 29.2182C73.8572 29.2182 73.8947 29.2455 73.8947 29.3001V31.0515C73.8947 31.1197 73.8572 31.1539 73.7821 31.1539H69.3986C69.3304 31.1539 69.2962 31.1197 69.2962 31.0515V29.3001C69.2962 29.2455 69.3304 29.2182 69.3986 29.2182H73.7821Z" fill="#1B2430"/>
<path d="M77.9628 29.2182C78.0379 29.2182 78.0754 29.2455 78.0754 29.3001V31.0515C78.0754 31.1197 78.0379 31.1539 77.9628 31.1539H73.5793C73.511 31.1539 73.4769 31.1197 73.4769 31.0515V29.3001C73.4769 29.2455 73.511 29.2182 73.5793 29.2182H77.9628Z" fill="#1B2430"/>
<path d="M82.1434 29.2182C82.2186 29.2182 82.2561 29.2455 82.2561 29.3001V31.0515C82.2561 31.1197 82.2186 31.1539 82.1434 31.1539H77.76C77.6917 31.1539 77.6576 31.1197 77.6576 31.0515V29.3001C77.6576 29.2455 77.6917 29.2182 77.76 29.2182H82.1434Z" fill="#1B2430"/>
<path d="M86.3241 29.2182C86.3992 29.2182 86.4368 29.2455 86.4368 29.3001V31.0515C86.4368 31.1197 86.3992 31.1539 86.3241 31.1539H81.9407C81.8724 31.1539 81.8383 31.1197 81.8383 31.0515V29.3001C81.8383 29.2455 81.8724 29.2182 81.9407 29.2182H86.3241Z" fill="#1B2430"/>
<path d="M90.5048 29.2182C90.5799 29.2182 90.6175 29.2455 90.6175 29.3001V31.0515C90.6175 31.1197 90.5799 31.1539 90.5048 31.1539H86.1214C86.0531 31.1539 86.019 31.1197 86.019 31.0515V29.3001C86.019 29.2455 86.0531 29.2182 86.1214 29.2182H90.5048Z" fill="#1B2430"/>
<path d="M104.005 27.0572C103.964 27.0845 103.787 27.204 103.473 27.4157C103.159 27.6273 102.739 27.8868 102.213 28.194C101.694 28.4944 101.087 28.8188 100.39 29.167C99.6937 29.5152 98.9426 29.8361 98.137 30.1297C97.3381 30.4233 96.5017 30.6691 95.6277 30.8671C94.7538 31.0583 93.8798 31.1539 93.0059 31.1539H90.1997V29.2182H93.0059C93.7706 29.2182 94.5421 29.1294 95.3205 28.9519C96.1057 28.7676 96.8602 28.5422 97.5839 28.276C98.3076 28.0028 98.987 27.7092 99.622 27.3952C100.257 27.0743 100.813 26.7738 101.291 26.4939C100.629 26.2276 99.9668 25.9682 99.3045 25.7155C98.649 25.4629 98.0482 25.241 97.502 25.0498C96.9557 24.8518 96.4846 24.6914 96.0886 24.5685C95.6994 24.4456 95.44 24.3739 95.3103 24.3534C95.1942 24.3534 95.0713 24.3636 94.9416 24.3841C94.8186 24.4046 94.6957 24.4661 94.5729 24.5685C94.45 24.6709 94.3305 24.8313 94.2144 25.0498C94.0983 25.2615 93.9891 25.5619 93.8867 25.9511L92.0124 25.4595C92.5382 23.4385 93.6443 22.428 95.3307 22.428C95.3717 22.428 95.4263 22.4314 95.4946 22.4382C95.5629 22.4382 95.6619 22.4553 95.7916 22.4894C95.9213 22.5167 96.0954 22.5645 96.3139 22.6328C96.5324 22.6942 96.8089 22.783 97.1435 22.8991C97.4849 23.0151 97.898 23.1654 98.3828 23.3497C98.8675 23.5272 99.4479 23.7491 100.124 24.0154L103.749 25.3571L104.005 27.0572ZM93.1288 18.2391L94.8699 16.4775L96.6519 18.2596L94.8903 20.0212L93.1288 18.2391Z" fill="#1B2430"/>
<path d="M111.243 31.1539C110.526 31.147 109.932 31.0992 109.46 31.0105C108.996 30.9149 108.6 30.7818 108.272 30.6111C107.952 30.4335 107.692 30.215 107.494 29.9556C107.303 29.6893 107.153 29.3821 107.043 29.0338C106.934 28.6788 106.863 28.2828 106.828 27.8458C106.794 27.4088 106.777 26.9241 106.777 26.3915V16.539H108.713V26.3915C108.713 26.9855 108.73 27.4669 108.764 27.8356C108.805 28.2043 108.904 28.491 109.061 28.6959C109.225 28.8939 109.467 29.0304 109.788 29.1055C110.116 29.1738 110.601 29.2114 111.243 29.2182V31.1539Z" fill="#1B2430"/>
<path d="M122.023 29.2182V31.1539H120.231C119.609 31.1539 119.06 31.0651 118.582 30.8876C118.111 30.7101 117.732 30.4438 117.445 30.0887C116.735 30.7988 115.683 31.1539 114.29 31.1539H110.808V29.2182H114.29C114.782 29.2182 115.171 29.1704 115.458 29.0748C115.745 28.9724 115.96 28.8495 116.103 28.7061C116.253 28.5559 116.349 28.392 116.39 28.2145C116.438 28.0302 116.462 27.856 116.462 27.6922V24.2305H118.387V27.6205C118.387 27.8731 118.425 28.0882 118.5 28.2657C118.582 28.4432 118.681 28.5934 118.797 28.7163C118.913 28.8324 119.043 28.9246 119.186 28.9929C119.336 29.0612 119.48 29.1124 119.616 29.1465C119.753 29.1806 119.876 29.2011 119.985 29.2079C120.094 29.2148 120.176 29.2182 120.231 29.2182H122.023ZM118.705 21.7315L117.086 20.0929L118.684 18.4337L120.343 20.0929L118.705 21.7315ZM114.782 21.711L113.164 20.0724L114.762 18.4132L116.421 20.0724L114.782 21.711Z" fill="#1B2430"/>
<path d="M129.002 29.7098C129.05 29.7098 129.115 29.7064 129.197 29.6995C129.285 29.6927 129.378 29.6654 129.473 29.6176C129.576 29.5698 129.675 29.4981 129.77 29.4025C129.873 29.3001 129.961 29.1602 130.036 28.9826C130.118 28.7983 130.183 28.5661 130.231 28.2862C130.286 27.9994 130.313 27.6512 130.313 27.2415C130.313 27.1664 130.306 27.047 130.292 26.8831C130.279 26.7192 130.248 26.5383 130.2 26.3403C130.152 26.1354 130.081 25.9272 129.985 25.7155C129.896 25.5039 129.774 25.3093 129.617 25.1318C129.459 24.9542 129.268 24.8109 129.043 24.7016C128.818 24.5855 128.545 24.5275 128.224 24.5275C127.923 24.5275 127.667 24.5821 127.456 24.6914C127.251 24.7938 127.077 24.9372 126.933 25.1215C126.79 25.3059 126.67 25.5244 126.575 25.777C126.479 26.0228 126.39 26.2925 126.308 26.5861C126.227 26.8728 126.145 27.1767 126.063 27.4976C125.981 27.8117 125.885 28.1257 125.776 28.4398C126.131 28.6173 126.459 28.7846 126.759 28.9417C127.06 29.0987 127.339 29.2353 127.599 29.3513C127.858 29.4606 128.101 29.5493 128.326 29.6176C128.558 29.6791 128.784 29.7098 129.002 29.7098ZM128.224 22.6021C128.893 22.6021 129.473 22.7318 129.965 22.9912C130.463 23.2439 130.876 23.5853 131.204 24.0154C131.532 24.4456 131.774 24.9406 131.931 25.5005C132.095 26.0603 132.177 26.6407 132.177 27.2415C132.177 27.9038 132.119 28.474 132.003 28.9519C131.894 29.4299 131.747 29.8327 131.562 30.1604C131.378 30.4813 131.17 30.7408 130.938 30.9388C130.712 31.1368 130.48 31.287 130.241 31.3894C130.009 31.4918 129.784 31.5601 129.565 31.5943C129.347 31.6284 129.159 31.6455 129.002 31.6455C128.667 31.6455 128.347 31.6113 128.039 31.5431C127.732 31.4748 127.418 31.3758 127.097 31.246C126.776 31.1231 126.438 30.9695 126.083 30.7852C125.735 30.6008 125.349 30.3926 124.926 30.1604C124.366 30.8227 123.646 31.1539 122.765 31.1539H121.587V29.2182H122.765C123.024 29.2182 123.236 29.1226 123.4 28.9314C123.571 28.7402 123.717 28.491 123.84 28.1838C123.963 27.8765 124.076 27.5249 124.178 27.1289C124.281 26.7329 124.397 26.3266 124.526 25.9101C124.663 25.4936 124.823 25.0874 125.008 24.6914C125.192 24.2954 125.424 23.9437 125.704 23.6365C125.991 23.3292 126.336 23.08 126.739 22.8888C127.148 22.6977 127.643 22.6021 128.224 22.6021Z" fill="#1B2430"/>
</mask>
<g mask="url(#mask0_217_2608)">
<rect x="112.232" y="16.6689" width="9.65644" height="6.43763" fill="#333333"/>
</g>
</svg>
