<svg width="127" height="127" viewBox="0 0 127 127" fill="none" xmlns="http://www.w3.org/2000/svg">
<path d="M96.75 63.4998V63.1897L96.627 62.905L85.2185 36.4965C83.9374 32.858 80.424 30.2498 76.3058 30.2498H49.8475C45.7217 30.2498 42.203 32.8677 40.9277 36.5167L30.3573 62.9427L30.25 63.211V63.4998V84.6665C30.25 88.4053 33.3028 91.4582 37.0417 91.4582H42.3333C46.0722 91.4582 49.125 88.4053 49.125 84.6665V80.8748H77.875V84.6665C77.875 88.4053 80.9278 91.4582 84.6667 91.4582H89.9583C93.6972 91.4582 96.75 88.4053 96.75 84.6665V63.4998ZM50.8577 41.1873H75.3372L82.3438 56.7082H44.5607L50.8577 41.1873ZM43.8333 68.7915C43.8333 66.7095 45.543 64.9998 47.625 64.9998C49.707 64.9998 51.4167 66.7095 51.4167 68.7915C51.4167 70.8735 49.707 72.5832 47.625 72.5832C45.543 72.5832 43.8333 70.8735 43.8333 68.7915ZM75.5833 68.7915C75.5833 66.7095 77.293 64.9998 79.375 64.9998C81.457 64.9998 83.1667 66.7095 83.1667 68.7915C83.1667 70.8735 81.457 72.5832 79.375 72.5832C77.293 72.5832 75.5833 70.8735 75.5833 68.7915ZM63.5 6.93298L109.625 27.433V58.2082C109.625 86.8194 89.8964 113.522 63.5 120.163C37.1036 113.522 17.375 86.8194 17.375 58.2082V27.433L63.5 6.93298Z" fill="#1242E0" fill-opacity="0.1" stroke="#1242E0" stroke-width="3"/>
</svg>
