<svg width="132" height="101" viewBox="0 0 132 101" fill="none" xmlns="http://www.w3.org/2000/svg">
<path d="M120.328 26.4656V14.7328C120.328 11.6211 119.092 8.63678 116.891 6.43646C114.691 4.23613 111.707 3 108.595 3H14.7328C11.6211 3 8.63678 4.23613 6.43646 6.43646C4.23613 8.63678 3 11.6211 3 14.7328V73.3968C3 76.5085 4.23613 79.4928 6.43646 81.6931C8.63678 83.8934 11.6211 85.1296 14.7328 85.1296H61.664M120.328 26.4656H26.4656M120.328 26.4656V38.1984" stroke="#1242E0" stroke-width="5" stroke-linecap="round" stroke-linejoin="round"/>
<path d="M112.564 52.0716L126.562 55.8259C128.018 56.2193 129.042 57.6192 128.998 59.2042C128.057 92.513 109.87 97.6268 109.87 97.6268C109.87 97.6268 91.6835 92.513 90.7416 59.2042C90.7247 58.4326 90.9567 57.6778 91.3995 57.0639C91.8424 56.45 92.4697 56.0134 93.1785 55.8259L107.176 52.0716C108.945 51.5972 110.796 51.5972 112.564 52.0716Z" fill="#1242E0" fill-opacity="0.1" stroke="#1242E0" stroke-width="5" stroke-linecap="round" stroke-linejoin="round"/>
</svg>
