<svg width="42" height="42" viewBox="0 0 42 42" fill="none" xmlns="http://www.w3.org/2000/svg">
<path fill-rule="evenodd" clip-rule="evenodd" d="M24.6066 9.83651C20.4674 9.40172 16.2956 9.36948 12.1501 9.74026L9.38164 9.98701C8.27072 10.0866 7.22578 10.5577 6.41549 11.3242C5.60519 12.0907 5.07681 13.1078 4.91564 14.2115C4.25729 18.7142 4.25729 23.2888 4.91564 27.7915C5.07719 28.8953 5.60591 29.9125 6.4165 30.679C7.22709 31.4454 8.27227 31.9164 9.38339 32.016L12.1519 32.261C16.2973 32.6324 20.469 32.6008 24.6084 32.1665L25.6724 32.0545C26.7286 31.9437 27.7216 31.4981 28.5065 30.7828C29.2914 30.0674 29.827 29.1199 30.0351 28.0785L35.3674 30.91C35.5588 31.0117 35.7725 31.0644 35.9892 31.0634C36.206 31.0624 36.4192 31.0077 36.6096 30.9042C36.8001 30.8008 36.962 30.6517 37.0808 30.4704C37.1997 30.2891 37.2718 30.0812 37.2906 29.8653L37.3344 29.3683C37.8224 23.8005 37.8224 18.2008 37.3344 12.633L37.2906 12.136C37.2716 11.92 37.1993 11.712 37.0803 11.5307C36.9613 11.3494 36.7991 11.2005 36.6085 11.0971C36.4178 10.9938 36.2044 10.9394 35.9876 10.9387C35.7707 10.9379 35.557 10.991 35.3656 11.093L30.0351 13.9245C29.827 12.8831 29.2914 11.9356 28.5065 11.2203C27.7216 10.5049 26.7286 10.0593 25.6724 9.94851L24.6066 9.83651ZM12.3846 12.3548C16.3607 11.9993 20.3618 12.0304 24.3319 12.4475L25.3959 12.5595C25.9158 12.6146 26.4025 12.841 26.7796 13.2031C27.1566 13.5653 27.4025 14.0425 27.4784 14.5598C28.1049 18.8315 28.1049 23.1698 27.4784 27.4433C27.4025 27.9605 27.1566 28.4378 26.7796 28.7999C26.4025 29.162 25.9158 29.3885 25.3959 29.4435L24.3319 29.5555C20.3618 29.9727 16.3607 30.0037 12.3846 29.6483L9.61614 29.3998C9.09291 29.3531 8.60065 29.1315 8.21872 28.7709C7.83679 28.4102 7.58745 27.9315 7.51089 27.4118C6.88936 23.1609 6.88936 18.8422 7.51089 14.5913C7.58679 14.0711 7.83589 13.5918 8.21791 13.2307C8.59993 12.8697 9.09255 12.648 9.61614 12.6015L12.3846 12.3548ZM30.3781 16.714C30.6389 19.5665 30.6389 22.4365 30.3781 25.289L34.8354 27.6568C35.1527 23.2256 35.1527 18.7774 34.8354 14.3463L30.3781 16.714Z" fill="#1242E0"/>
</svg>
