<?xml version="1.0" encoding="UTF-8"?>
<!DOCTYPE svg PUBLIC "-//W3C//DTD SVG 1.1//EN" "http://www.w3.org/Graphics/SVG/1.1/DTD/svg11.dtd">
<svg xmlns="http://www.w3.org/2000/svg" version="1.1" width="112px" height="121px" style="shape-rendering:geometricPrecision; text-rendering:geometricPrecision; image-rendering:optimizeQuality; fill-rule:evenodd; clip-rule:evenodd" xmlns:xlink="http://www.w3.org/1999/xlink">
<g><path style="opacity:0.774" fill="#246c84" d="M 9.5,-0.5 C 36.1667,-0.5 62.8333,-0.5 89.5,-0.5C 90.8323,19.4703 90.8323,39.4703 89.5,59.5C 88.3493,60.731 87.1827,60.731 86,59.5C 85.5001,41.1697 85.3334,22.8364 85.5,4.5C 60.4978,4.66664 35.4978,4.49997 10.5,4C 9.61983,2.64387 9.28649,1.14387 9.5,-0.5 Z"/></g>
<g><path style="opacity:0.866" fill="#246c85" d="M -0.5,109.5 C -0.5,75.8333 -0.5,42.1667 -0.5,8.5C 26.4279,7.34298 53.4279,7.17632 80.5,8C 81.6585,26.0931 81.8252,44.2597 81,62.5C 79.9207,64.3937 78.5874,64.727 77,63.5C 76.5001,46.1699 76.3334,28.8365 76.5,11.5C 52.5,11.5 28.5,11.5 4.5,11.5C 4.5,43.1667 4.5,74.8333 4.5,106.5C 24.5028,106.333 44.5028,106.5 64.5,107C 66.3937,108.079 66.727,109.413 65.5,111C 54.6667,111.167 43.8333,111.333 33,111.5C 21.6078,111.478 10.4412,110.811 -0.5,109.5 Z"/></g>
<g><path style="opacity:0.763" fill="#246c84" d="M 29.5,23.5 C 36.8409,23.3337 44.1742,23.5003 51.5,24C 52.8333,25.3333 52.8333,26.6667 51.5,28C 44.1667,28.6667 36.8333,28.6667 29.5,28C 28.2721,26.5098 28.2721,25.0098 29.5,23.5 Z"/></g>
<g><path style="opacity:0.734" fill="#246c84" d="M 14.5,42.5 C 18.1817,42.3347 21.8484,42.5014 25.5,43C 27.5922,43.9525 27.9255,45.2859 26.5,47C 22.5,47.6667 18.5,47.6667 14.5,47C 13.2721,45.5098 13.2721,44.0098 14.5,42.5 Z"/></g>
<g><path style="opacity:0.749" fill="#246c84" d="M 31.5,42.5 C 42.8382,42.3335 54.1716,42.5001 65.5,43C 67.5922,43.9525 67.9255,45.2859 66.5,47C 54.5046,47.4999 42.5046,47.6665 30.5,47.5C 30.366,45.7085 30.6993,44.0418 31.5,42.5 Z"/></g>
<g><path style="opacity:0.738" fill="#246c84" d="M 14.5,55.5 C 22.84,55.3336 31.1733,55.5003 39.5,56C 40.8333,57.3333 40.8333,58.6667 39.5,60C 31.1667,60.6667 22.8333,60.6667 14.5,60C 13.2721,58.5098 13.2721,57.0098 14.5,55.5 Z"/></g>
<g><path style="opacity:0.722" fill="#246c84" d="M 43.5,55.5 C 46.1873,55.3359 48.854,55.5026 51.5,56C 52.5171,57.0495 52.6838,58.2161 52,59.5C 49.2628,60.6105 46.4294,60.7772 43.5,60C 42.2721,58.5098 42.2721,57.0098 43.5,55.5 Z"/></g>
<g><path style="opacity:0.743" fill="#246c84" d="M 54.5,55.5 C 58.5138,55.3345 62.5138,55.5012 66.5,56C 67.8333,57.3333 67.8333,58.6667 66.5,60C 62.8333,60.6667 59.1667,60.6667 55.5,60C 54.8333,59.3333 54.1667,58.6667 53.5,58C 54.2524,57.3292 54.5858,56.4959 54.5,55.5 Z"/></g>
<g><path style="opacity:0.84" fill="#246c84" d="M 111.5,64.5 C 111.5,74.5 111.5,84.5 111.5,94.5C 109.912,99.0096 107.745,103.343 105,107.5C 99.8876,112.459 94.3876,116.793 88.5,120.5C 87.5,120.5 86.5,120.5 85.5,120.5C 79.2888,116.797 73.4554,112.464 68,107.5C 66.0797,104.661 64.4131,101.661 63,98.5C 61.4243,87.2253 61.0909,75.892 62,64.5C 62.5613,63.9781 63.228,63.6448 64,63.5C 71.4862,67.4721 78.9862,67.4721 86.5,63.5C 94.1667,67.5 101.833,67.5 109.5,63.5C 110.183,63.8627 110.85,64.1961 111.5,64.5 Z M 85.5,68.5 C 92.2458,71.5679 99.2458,72.2346 106.5,70.5C 106.917,79.9146 106.417,89.2479 105,98.5C 100.826,106.177 94.6591,111.51 86.5,114.5C 77.9555,111.457 71.7888,105.79 68,97.5C 66.5863,88.5822 66.0863,79.5822 66.5,70.5C 71.1292,71.481 75.7959,71.6477 80.5,71C 82.4913,70.6264 84.158,69.793 85.5,68.5 Z"/></g>
<g><path style="opacity:0.88" fill="#246d84" d="M 13.5,67.5 C 18.1667,67.5 22.8333,67.5 27.5,67.5C 27.5,68.8333 27.5,70.1667 27.5,71.5C 22.8333,71.5 18.1667,71.5 13.5,71.5C 13.5,70.1667 13.5,68.8333 13.5,67.5 Z"/></g>
<g><path style="opacity:0.902" fill="#246c85" d="M 30.5,67.5 C 39.5,67.5 48.5,67.5 57.5,67.5C 57.5,68.8333 57.5,70.1667 57.5,71.5C 48.5,71.5 39.5,71.5 30.5,71.5C 30.5,70.1667 30.5,68.8333 30.5,67.5 Z"/></g>
<g><path style="opacity:0.745" fill="#246c84" d="M 14.5,78.5 C 24.5056,78.3335 34.5056,78.5002 44.5,79C 45.3802,80.3561 45.7135,81.8561 45.5,83.5C 35.1613,83.6665 24.828,83.4998 14.5,83C 13.2721,81.5098 13.2721,80.0098 14.5,78.5 Z"/></g>
<g><path style="opacity:0.72" fill="#246c84" d="M 49.5,78.5 C 51.8568,78.3367 54.1902,78.5034 56.5,79C 57.3802,80.3561 57.7135,81.8561 57.5,83.5C 54.8127,83.6641 52.146,83.4974 49.5,83C 48.2721,81.5098 48.2721,80.0098 49.5,78.5 Z"/></g>
<g><path style="opacity:0.841" fill="#246c84" d="M 96.5,78.5 C 98.7029,79.0516 99.5362,80.3849 99,82.5C 93.8333,87.6667 88.6667,92.8333 83.5,98C 82.5,98.6667 81.5,98.6667 80.5,98C 78.6667,96.1667 76.8333,94.3333 75,92.5C 74.2172,90.6815 74.7172,89.3482 76.5,88.5C 78.8231,90.0651 81.1564,91.2318 83.5,92C 88.0367,87.6312 92.3701,83.1312 96.5,78.5 Z"/></g>
<g><path style="opacity:0.736" fill="#246c84" d="M 14.5,90.5 C 21.175,90.3337 27.8417,90.5004 34.5,91C 35.9255,92.7141 35.5922,94.0475 33.5,95C 27.1667,95.6667 20.8333,95.6667 14.5,95C 13.2721,93.5098 13.2721,92.0098 14.5,90.5 Z"/></g>
</svg>
