<?xml version="1.0" encoding="UTF-8"?>
<!DOCTYPE svg PUBLIC "-//W3C//DTD SVG 1.1//EN" "http://www.w3.org/Graphics/SVG/1.1/DTD/svg11.dtd">
<svg xmlns="http://www.w3.org/2000/svg" version="1.1" width="140px" height="107px" style="shape-rendering:geometricPrecision; text-rendering:geometricPrecision; image-rendering:optimizeQuality; fill-rule:evenodd; clip-rule:evenodd" xmlns:xlink="http://www.w3.org/1999/xlink">
<g><path style="opacity:0.84" fill="#246c84" d="M 11.5,-0.5 C 47.1667,-0.5 82.8333,-0.5 118.5,-0.5C 124.586,1.75774 128.42,6.09108 130,12.5C 130.667,22.1667 130.667,31.8333 130,41.5C 128.333,42.8333 126.667,42.8333 125,41.5C 124.501,37.8484 124.335,34.1817 124.5,30.5C 91.4983,30.6666 58.4983,30.5 25.5,30C 24.1667,28.3333 24.1667,26.6667 25.5,25C 58.4983,24.5 91.4983,24.3334 124.5,24.5C 125.092,18.8948 124.259,13.5614 122,8.5C 120.581,7.53986 119.081,6.70653 117.5,6C 82.1667,5.33333 46.8333,5.33333 11.5,6C 9,7.16667 7.16667,9 6,11.5C 5.02062,35.2546 5.35396,58.9212 7,82.5C 8.21398,84.0488 9.71398,85.2155 11.5,86C 29.5,86.3333 47.5,86.6667 65.5,87C 67.6576,88.3117 67.9909,89.9783 66.5,92C 47.8333,92.6667 29.1667,92.6667 10.5,92C 4.98447,90.3156 1.31781,86.8156 -0.5,81.5C -0.5,58.1667 -0.5,34.8333 -0.5,11.5C 1.83333,5.83333 5.83333,1.83333 11.5,-0.5 Z"/></g>
<g><path style="opacity:0.866" fill="#246c84" d="M 139.5,59.5 C 139.5,62.8333 139.5,66.1667 139.5,69.5C 138.189,81.9602 133.189,92.7935 124.5,102C 122.102,103.524 119.769,105.024 117.5,106.5C 116.833,106.5 116.167,106.5 115.5,106.5C 103.167,99.6069 96.0004,88.9402 94,74.5C 93.6459,70.6458 93.1459,66.8125 92.5,63C 92.7952,60.0766 94.1285,57.7432 96.5,56C 102.913,54.0835 109.413,52.5835 116,51.5C 122.587,52.5835 129.087,54.0835 135.5,56C 137.35,56.6897 138.684,57.8564 139.5,59.5 Z M 112.5,57.5 C 118.965,57.8652 125.298,59.0319 131.5,61C 134.193,75.2621 130.193,87.5954 119.5,98C 118.391,98.6377 117.225,99.1377 116,99.5C 109.587,96.3628 105.253,91.3628 103,84.5C 100.28,77.0715 98.7798,69.4048 98.5,61.5C 103.437,60.7388 108.103,59.4054 112.5,57.5 Z"/></g>
</svg>
