<?xml version="1.0" encoding="UTF-8"?>
<!DOCTYPE svg PUBLIC "-//W3C//DTD SVG 1.1//EN" "http://www.w3.org/Graphics/SVG/1.1/DTD/svg11.dtd">
<svg xmlns="http://www.w3.org/2000/svg" version="1.1" width="164px" height="135px" style="shape-rendering:geometricPrecision; text-rendering:geometricPrecision; image-rendering:optimizeQuality; fill-rule:evenodd; clip-rule:evenodd" xmlns:xlink="http://www.w3.org/1999/xlink">
<g><path style="opacity:0.87" fill="#246c84" d="M 53.5,-0.5 C 72.5,-0.5 91.5,-0.5 110.5,-0.5C 123.246,2.97899 132.746,10.6457 139,22.5C 139.394,19.1071 141.227,16.9404 144.5,16C 148.833,15.3333 153.167,15.3333 157.5,16C 159.887,16.5637 161.887,17.7304 163.5,19.5C 163.5,23.8333 163.5,28.1667 163.5,32.5C 161.99,33.8361 160.323,35.0027 158.5,36C 154.833,36.3333 151.167,36.6667 147.5,37C 151.495,41.1584 154.329,45.9918 156,51.5C 156.667,53.5 156.667,55.5 156,57.5C 154.333,58.8333 152.667,58.8333 151,57.5C 150.363,50.5594 147.363,44.8927 142,40.5C 140.304,38.4404 139.137,36.1071 138.5,33.5C 138.608,32.5581 138.941,31.7247 139.5,31C 145.528,30.8303 151.528,30.3303 157.5,29.5C 158.833,27.1667 158.833,24.8333 157.5,22.5C 153.5,21.1667 149.5,21.1667 145.5,22.5C 143.734,27.2157 140.401,29.049 135.5,28C 123.473,7.6613 105.639,-0.172036 82,4.5C 71.3905,4.18055 60.8905,5.01389 50.5,7C 40.731,10.4362 33.8976,16.9362 30,26.5C 24.7802,29.6551 20.9469,28.3218 18.5,22.5C 14.5411,21.3401 10.5411,21.1735 6.5,22C 3.83333,24.6667 3.83333,27.3333 6.5,30C 12.5,30.3333 18.5,30.6667 24.5,31C 25.0585,31.7247 25.3918,32.5581 25.5,33.5C 21.5349,39.9653 17.3682,46.2986 13,52.5C 9.62869,69.264 15.7954,80.764 31.5,87C 52.073,87.1728 72.573,87.6728 93,88.5C 93.7203,90.1124 93.5536,91.6124 92.5,93C 76.5035,93.4999 60.5035,93.6666 44.5,93.5C 44.7258,98.5501 42.7258,102.383 38.5,105C 16.5043,110.338 7.33764,101.838 11,79.5C 6.31484,69.5525 5.31484,59.2192 8,48.5C 10.4476,44.3851 13.2809,40.5518 16.5,37C 12.8333,36.6667 9.16667,36.3333 5.5,36C 2.85408,35.1959 0.854084,33.6959 -0.5,31.5C -0.5,27.8333 -0.5,24.1667 -0.5,20.5C 0.854084,18.3041 2.85408,16.8041 5.5,16C 10.1667,15.3333 14.8333,15.3333 19.5,16C 22.4281,17.2598 24.2614,19.4265 25,22.5C 31.1469,10.5047 40.6469,2.83804 53.5,-0.5 Z M 17.5,86.5 C 20.9432,88.1044 24.2766,89.9377 27.5,92C 31.0601,93.2367 34.7267,93.7367 38.5,93.5C 38.822,95.7224 38.1554,97.5557 36.5,99C 31.1667,99.6667 25.8333,99.6667 20.5,99C 19.3333,98.5 18.5,97.6667 18,96.5C 17.5017,93.1832 17.335,89.8499 17.5,86.5 Z"/></g>
<g><path style="opacity:0.882" fill="#246c84" d="M 44.5,13.5 C 46.595,13.7598 47.9283,14.9264 48.5,17C 46.0139,20.1556 43.5139,23.3223 41,26.5C 40.5172,27.448 40.3505,28.448 40.5,29.5C 66.4693,34.5543 92.4693,34.721 118.5,30C 120.384,29.7837 122.051,29.117 123.5,28C 121.425,23.921 118.592,20.421 115,17.5C 114.085,15.08 114.918,13.7466 117.5,13.5C 125.486,17.3197 129.653,23.6531 130,32.5C 124.769,34.8502 119.269,36.3502 113.5,37C 90.4441,40.4903 67.4441,40.157 44.5,36C 41.0636,35.308 37.7302,34.308 34.5,33C 33.2922,28.853 34.1256,25.0196 37,21.5C 39.0282,18.3078 41.5282,15.6411 44.5,13.5 Z"/></g>
<g><path style="opacity:0.851" fill="#246c84" d="M 21.5,45.5 C 28.8312,47.9673 35.3312,51.9673 41,57.5C 42.1111,68.0385 37.6111,71.5385 27.5,68C 21.3457,67.2622 17.0123,64.0955 14.5,58.5C 15.2116,56.9541 16.3783,55.9541 18,55.5C 19.8204,56.6039 21.3204,58.1039 22.5,60C 26.1414,61.2695 29.8081,62.4361 33.5,63.5C 34.5,63.1667 35.1667,62.5 35.5,61.5C 31.2354,57.3621 26.5687,53.6954 21.5,50.5C 20.3336,48.8327 20.3336,47.166 21.5,45.5 Z"/></g>
<g><path style="opacity:0.852" fill="#246c84" d="M 163.5,60.5 C 163.5,73.5 163.5,86.5 163.5,99.5C 160.954,109.079 155.954,117.245 148.5,124C 142.93,127.275 137.597,130.775 132.5,134.5C 131.167,134.5 129.833,134.5 128.5,134.5C 122.233,130.022 115.9,125.522 109.5,121C 103.141,114.448 99.3078,106.615 98,97.5C 97.3333,85.1667 97.3333,72.8333 98,60.5C 98.7247,59.9415 99.5581,59.6082 100.5,59.5C 110.528,64.7774 120.528,64.7774 130.5,59.5C 140.528,64.7774 150.528,64.7774 160.5,59.5C 161.584,59.685 162.584,60.0183 163.5,60.5 Z M 130.5,65.5 C 138.866,69.8871 147.532,70.5538 156.5,67.5C 157.666,78.1511 157.832,88.8177 157,99.5C 152.5,112.668 143.833,122.001 131,127.5C 116.715,122.217 107.715,112.217 104,97.5C 103.5,87.5056 103.334,77.5056 103.5,67.5C 112.919,70.6984 121.919,70.0317 130.5,65.5 Z"/></g>
<g><path style="opacity:0.876" fill="#246c84" d="M 54.5,68.5 C 67.5171,68.1675 80.5171,68.5009 93.5,69.5C 94.4604,70.8123 94.2937,72.1456 93,73.5C 78.5293,74.0795 64.0293,74.9129 49.5,76C 64.1223,77.3937 78.789,77.8937 93.5,77.5C 93.8588,79.7659 93.1922,81.5993 91.5,83C 75.7359,84.1272 60.0693,83.4606 44.5,81C 39.6046,78.1765 39.2713,74.8432 43.5,71C 47.3121,70.2045 50.9788,69.3712 54.5,68.5 Z"/></g>
<g><path style="opacity:0.842" fill="#246c84" d="M 143.5,79.5 C 147.071,79.4077 148.238,81.0743 147,84.5C 140.167,91.3333 133.333,98.1667 126.5,105C 125.167,105.667 123.833,105.667 122.5,105C 119.462,102.297 116.795,99.2974 114.5,96C 115.119,94.2429 116.286,93.0762 118,92.5C 120.616,94.1122 122.95,96.1122 125,98.5C 131.369,92.2981 137.536,85.9648 143.5,79.5 Z"/></g>
</svg>
