<svg width="103" height="103" viewBox="0 0 103 103" fill="none" xmlns="http://www.w3.org/2000/svg">
<rect x="0.5" width="100" height="100" rx="8" fill="#FAFAFA"/>
<path fill-rule="evenodd" clip-rule="evenodd" d="M75.061 54.7561C70.5542 54.7561 66.8936 51.0667 66.8936 46.5631C66.8936 42.0422 70.5542 38.3701 75.061 38.3701C79.5678 38.3701 83.2285 42.0422 83.2285 46.5631C83.2285 51.0667 79.5678 54.7561 75.061 54.7561ZM75.061 40.9683C71.9874 40.9683 69.4837 43.4799 69.4837 46.5631C69.4837 49.6463 71.9874 52.1579 75.061 52.1579C78.1346 52.1579 80.6384 49.6463 80.6384 46.5631C80.6384 43.4799 78.1346 40.9683 75.061 40.9683Z" fill="#1242E0"/>
<path d="M32.1349 54.1843C31.9622 54.1843 31.7953 54.1496 31.6341 54.0803C28.6123 52.7986 26.6611 49.8366 26.6611 46.5629C26.6611 42.0593 30.3218 38.3872 34.7941 38.3872C39.2836 38.3872 42.9442 42.0593 42.9442 46.5629C42.9442 47.2731 42.3571 47.862 41.6492 47.862C40.924 47.862 40.3541 47.2731 40.3541 46.5629C40.3541 43.497 37.8504 40.9854 34.7941 40.9854C31.7377 40.9854 29.2512 43.497 29.2512 46.5629C29.2512 48.7973 30.5808 50.8066 32.6356 51.69C33.3091 51.9671 33.6026 52.7293 33.3263 53.3875C33.1191 53.8725 32.6356 54.1843 32.1349 54.1843Z" fill="#1242E0"/>
<path fill-rule="evenodd" clip-rule="evenodd" d="M89.8083 40.4309C89.7737 40.4309 89.7334 40.4251 89.6874 40.4136C86.2166 40.1018 85.7504 39.842 85.5605 39.7381C85.549 39.7265 85.5375 39.7207 85.5259 39.7207L80.5702 36.8108C79.7932 36.3777 79.396 35.5463 79.5342 34.6802C79.6551 33.7968 80.3112 33.1213 81.1746 32.9481C81.2091 32.9481 81.2436 32.9481 81.2782 32.9481L83.0395 32.7229C83.7474 32.6363 84.3863 33.156 84.4726 33.8661C84.559 34.5763 84.0582 35.2172 83.3503 35.3038L83.1603 35.3211L86.7347 37.417C87.1663 37.5382 88.6859 37.7115 89.9291 37.8327C90.6371 37.902 91.1551 38.5256 91.1033 39.2357C91.0342 39.9113 90.4644 40.4309 89.8083 40.4309ZM66.0657 32.7402C66.0426 32.7402 66.0254 32.7402 66.0139 32.7402L54.3757 32.1513C54.3526 32.1513 54.3354 32.1455 54.3239 32.134C54.3008 32.134 54.2836 32.134 54.2721 32.134L42.1849 30.7483L36.5212 30.3326C36.1586 30.2979 35.8305 30.1247 35.6061 29.8476L31.8072 25.1362C31.3583 24.5646 31.4446 23.7505 31.9972 23.3001C32.567 22.8498 33.3786 22.9364 33.8275 23.4907L37.2637 27.7863L40.9417 28.0462L40.6827 23.5946C40.6481 22.8844 41.2007 22.2608 41.9086 22.2262C42.6166 22.1916 43.2382 22.7285 43.2728 23.456L43.549 28.2887L52.8561 29.3626L51.941 23.9237C51.8201 23.2135 52.3036 22.5553 52.9943 22.4341C53.7022 22.3128 54.3757 22.7805 54.4965 23.4907L55.5326 29.6051L66.0484 30.142L70.4861 29.709L71.6085 28.8429C72.1783 28.4099 72.9899 28.5138 73.4388 29.0854C73.8705 29.657 73.7496 30.4711 73.1798 30.9042L71.7639 31.9954C71.5739 32.1513 71.3495 32.2379 71.1077 32.2552L66.2038 32.7229C66.1577 32.7345 66.1117 32.7402 66.0657 32.7402Z" fill="#1242E0"/>
<path d="M64.2005 47.7408H46.087C45.3791 47.7408 44.792 47.1692 44.792 46.4417C44.792 45.7315 45.3791 45.1426 46.087 45.1426H64.2005C64.9257 45.1426 65.4955 45.7315 65.4955 46.4417C65.4955 47.1692 64.9257 47.7408 64.2005 47.7408Z" fill="#1242E0"/>
<path fill-rule="evenodd" clip-rule="evenodd" d="M88.4093 47.81H86.2509C85.543 47.81 84.9559 47.2211 84.9559 46.5109C84.9559 45.7834 85.543 45.2118 86.2509 45.2118H88.4093C89.1 45.2118 91.1203 44.7268 92.0873 43.549C92.5535 42.9773 92.6916 42.3365 92.5535 41.5224L91.293 36.6724C91.0858 35.8583 90.5159 35.1828 89.7562 34.819C86.6308 33.364 67.7403 25.1017 66.8597 24.7034L66.6697 24.6341C57.7771 21.2911 55.9295 20.5982 46.0353 20.5982C39.6809 20.5982 31.0472 20.9446 25.867 21.9319C26.4887 22.3823 27.0067 22.9019 27.1103 23.6468C27.1966 24.1837 27.0239 24.7034 26.6268 25.1191C25.3317 26.5394 21.9819 32.0476 20.6523 34.3167C20.2897 36.3779 19.8235 39.8249 20.0652 41.0027C20.3069 42.1459 21.4811 43.2198 21.9128 43.549C22.2927 43.6875 23.4496 43.8261 23.9331 43.8261C24.0597 43.7799 24.1921 43.7568 24.3302 43.7568C25.0382 43.7568 25.6253 44.3457 25.6253 45.0559C25.6253 45.5929 25.2972 46.0779 24.8137 46.2857C24.641 46.355 24.2439 46.5282 22.6208 46.3204C21.2048 46.1472 20.6523 45.87 20.3587 45.6275C19.9443 45.3157 17.9931 43.7568 17.5269 41.5224C17.0952 39.4092 18.0449 34.1954 18.1485 33.6065C18.1715 33.4564 18.2234 33.3178 18.3039 33.1908C18.7356 32.4633 22.2582 26.4528 24.2266 23.9585C24.0194 23.8373 23.7949 23.6987 23.6395 23.6121C22.7244 23.0578 21.6883 22.4516 21.8437 21.3084C21.9301 20.5809 22.4654 20.0959 23.3978 19.8361C28.3881 18.4677 38.7139 18 46.0353 18C56.4129 18 58.5541 18.7968 67.5849 22.2091L67.7921 22.2957C67.8151 22.2957 67.8382 22.3015 67.8612 22.313C68.6555 22.6768 87.6323 30.9737 90.844 32.4633C92.3118 33.1562 93.3823 34.4379 93.7967 36.0142L95.0573 40.9161C95.0688 40.9392 95.0745 40.9623 95.0745 40.9854C95.3853 42.5616 95.04 44.034 94.073 45.2118C92.5362 47.0998 89.7907 47.81 88.4093 47.81Z" fill="#1242E0"/>
<path d="M23.5528 34.6283C23.1384 34.6283 22.7239 34.4377 22.4822 34.0567C22.0678 33.4678 22.2232 32.6537 22.8103 32.2553L26.54 29.709L25.8839 28.5139C25.5385 27.8903 25.7803 27.0935 26.4019 26.7471C27.0408 26.418 27.8178 26.6431 28.1631 27.284L29.3719 29.5185C29.6827 30.0901 29.51 30.8349 28.9574 31.1987L24.278 34.4031C24.0535 34.559 23.7945 34.6283 23.5528 34.6283Z" fill="#1242E0"/>
<path fill-rule="evenodd" clip-rule="evenodd" d="M27.6624 92.8625C27.4034 92.8625 27.1444 92.7932 26.9026 92.62C26.3328 92.2043 26.1774 91.4075 26.5918 90.8186L31.1331 84.3577C32.808 81.9847 35.5363 80.599 38.6271 80.547C48.1932 80.4258 62.0244 76.823 68.655 75.0908C69.9156 74.779 70.9171 74.5192 71.5905 74.3633C72.1949 74.2074 72.7819 73.9476 73.3172 73.5839L91.6551 59.2418C91.6897 59.2187 91.7242 59.1956 91.7588 59.1725C92.8984 58.445 93.2783 56.9381 92.6221 55.8122C92.2768 55.2406 91.7242 54.8249 91.0681 54.6863C90.4292 54.5304 89.7557 54.6343 89.1859 54.9981L70.848 67.0018C70.8365 67.0133 70.825 67.0191 70.8135 67.0191C70.33 67.3136 69.7947 67.4175 69.6566 67.4521C69.576 67.4637 69.5011 67.4694 69.4321 67.4694C68.586 67.4868 64.8735 67.5041 46.5356 67.4694C44.3944 67.4521 42.6677 65.6853 42.7022 63.5548C42.7195 61.4243 44.4462 59.7095 46.5701 59.7095C46.5816 59.7095 46.5931 59.7095 46.6047 59.7095L54.2886 59.7788L61.2301 59.8307C62.1107 59.8307 62.9223 59.4843 63.5267 58.8608C64.1483 58.2372 64.4591 57.4231 64.4418 56.5397C64.39 54.8422 62.9223 53.4565 61.1783 53.4392L42.426 53.3179C42.0633 53.3179 41.7007 53.3699 41.3554 53.5085C41.2978 53.52 41.2403 53.5316 41.1827 53.5431C40.6992 53.647 38.5063 54.617 31.0986 62.6368C27.0408 67.0364 23.4146 71.4014 23.3801 71.4534C23.3571 71.4764 23.334 71.4995 23.311 71.5226L15.2299 79.9062C14.7291 80.4258 13.9176 80.4431 13.3996 79.9408C12.8815 79.4385 12.8643 78.6244 13.365 78.1047L21.4116 69.7385C21.7742 69.3055 25.2795 65.1137 29.1992 60.8873C36.6759 52.781 39.2833 51.326 40.5611 51.0315C41.1827 50.8237 41.8216 50.7197 42.4432 50.7197L61.1956 50.841C64.3209 50.8583 66.9456 53.3872 67.0319 56.4704C67.0665 58.0466 66.4966 59.5536 65.3915 60.6795C64.2864 61.8227 62.8014 62.4289 61.2128 62.4289L54.2541 62.377L46.5701 62.3077C45.8622 62.3077 45.2923 62.8793 45.2923 63.5721C45.2751 64.2823 45.8449 64.8712 46.5528 64.8712C55.1175 64.8886 67.9816 64.9059 69.2594 64.8712C69.3285 64.8539 69.4321 64.8366 69.4666 64.802L87.7873 52.8156C88.9442 52.0708 90.3256 51.8283 91.6724 52.1574C93.002 52.4692 94.1416 53.3006 94.8496 54.4958C96.1965 56.7822 95.4712 59.8307 93.2092 61.3204L74.8713 75.6624C74.8483 75.674 74.831 75.6913 74.8195 75.7144C74.0079 76.2687 73.1273 76.6671 72.1776 76.8922C71.5387 77.0308 70.5545 77.2906 69.3112 77.6197C62.5769 79.3692 48.5386 83.024 38.6617 83.1453C36.4169 83.1799 34.4312 84.1672 33.257 85.8474L28.7157 92.3082C28.4567 92.672 28.0595 92.8625 27.6624 92.8625Z" fill="#1242E0"/>
</svg>
