<svg width="31" height="31" viewBox="0 0 31 31" fill="none" xmlns="http://www.w3.org/2000/svg">
<path d="M19.9995 12.4996L13.9993 18.5004L10.9993 15.5M17.3684 2.68694L19.1999 4.24713C19.662 4.64018 20.235 4.87721 20.838 4.92671L23.238 5.11874C23.9202 5.17321 24.5607 5.46884 25.0447 5.95265C25.5288 6.43647 25.8247 7.07685 25.8796 7.75906L26.0701 10.1594C26.1196 10.7639 26.3581 11.3385 26.7511 11.7991L28.3112 13.6293C28.7558 14.1506 29 14.8133 29 15.4985C29 16.1837 28.7558 16.8464 28.3112 17.3677L26.7511 19.1995C26.3581 19.6615 26.1196 20.2346 26.0716 20.8392L25.8796 23.2394C25.8251 23.9217 25.5295 24.5622 25.0458 25.0463C24.562 25.5304 23.9217 25.8264 23.2395 25.8813L20.8395 26.0733C20.2352 26.1211 19.6615 26.3584 19.1999 26.7514L17.3684 28.3116C16.847 28.7559 16.1844 29 15.4994 29C14.8143 29 14.1517 28.7559 13.6303 28.3116L11.8003 26.7514C11.3383 26.3581 10.764 26.1208 10.1592 26.0733L7.75918 25.8813C7.0768 25.8264 6.4363 25.5301 5.9525 25.0458C5.4687 24.5614 5.17325 23.9205 5.11912 23.2379L4.92712 20.8392C4.87854 20.2352 4.64075 19.6619 4.2476 19.201L2.68756 17.3677C2.24375 16.8466 2 16.1845 2 15.5C2 14.8155 2.24375 14.1534 2.68756 13.6323L4.2476 11.7991C4.64211 11.337 4.87762 10.7639 4.92562 10.1594L5.11762 7.76056C5.17283 7.07782 5.46926 6.43704 5.95383 5.95297C6.4384 5.46891 7.07945 5.17317 7.76218 5.11874L10.1592 4.92821C10.7637 4.87994 11.3374 4.64211 11.7988 4.24863L13.6303 2.68844C14.1517 2.24407 14.8143 2 15.4994 2C16.1844 2 16.847 2.24257 17.3684 2.68694Z" fill="#F5F5F5"/>
<path d="M19.9995 12.4996L13.9993 18.5004L10.9993 15.5M17.3684 2.68694L19.1999 4.24713C19.662 4.64018 20.235 4.87721 20.838 4.92671L23.238 5.11874C23.9202 5.17321 24.5607 5.46884 25.0447 5.95265C25.5288 6.43647 25.8247 7.07685 25.8796 7.75906L26.0701 10.1594C26.1196 10.7639 26.3581 11.3385 26.7511 11.7991L28.3112 13.6293C28.7558 14.1506 29 14.8133 29 15.4985C29 16.1837 28.7558 16.8464 28.3112 17.3677L26.7511 19.1995C26.3581 19.6615 26.1196 20.2346 26.0716 20.8392L25.8796 23.2394C25.8251 23.9217 25.5295 24.5622 25.0458 25.0463C24.562 25.5304 23.9217 25.8264 23.2395 25.8813L20.8395 26.0733C20.2352 26.1211 19.6615 26.3584 19.1999 26.7514L17.3684 28.3116C16.847 28.7559 16.1844 29 15.4994 29C14.8143 29 14.1517 28.7559 13.6303 28.3116L11.8003 26.7514C11.3383 26.3581 10.764 26.1208 10.1592 26.0733L7.75918 25.8813C7.0768 25.8264 6.4363 25.5301 5.9525 25.0458C5.4687 24.5614 5.17325 23.9205 5.11912 23.2379L4.92712 20.8392C4.87854 20.2352 4.64075 19.6619 4.2476 19.201L2.68756 17.3677C2.24375 16.8466 2 16.1845 2 15.5C2 14.8155 2.24375 14.1534 2.68756 13.6323L4.2476 11.7991C4.64211 11.337 4.87762 10.7639 4.92562 10.1594L5.11762 7.76056C5.17283 7.07782 5.46926 6.43704 5.95383 5.95297C6.4384 5.46891 7.07945 5.17317 7.76218 5.11874L10.1592 4.92821C10.7637 4.87994 11.3374 4.64211 11.7988 4.24863L13.6303 2.68844C14.1517 2.24407 14.8143 2 15.4994 2C16.1844 2 16.847 2.24257 17.3684 2.68694Z" stroke="#2B3443" stroke-width="2" stroke-linecap="round" stroke-linejoin="round"/>
</svg>
