<svg width="32" height="32" viewBox="0 0 32 32" fill="none" xmlns="http://www.w3.org/2000/svg">
<path d="M20.666 5.11111L23.7771 8.22222L29.9993 2" stroke="#2B3443" stroke-width="2" stroke-linecap="round" stroke-linejoin="round"/>
<path opacity="0.3" d="M20.666 16.0017L23.7771 19.1128L29.9993 12.8906" stroke="#2B3443" stroke-width="2" stroke-linecap="round" stroke-linejoin="round"/>
<path opacity="0.3" d="M20.666 26.8885L23.7771 29.9996L29.9993 23.7773" stroke="#2B3443" stroke-width="2" stroke-linecap="round" stroke-linejoin="round"/>
<path d="M13.6667 2.77734H4.33333C3.04467 2.77734 2 3.82201 2 5.11068C2 6.39934 3.04467 7.44401 4.33333 7.44401H13.6667C14.9553 7.44401 16 6.39934 16 5.11068C16 3.82201 14.9553 2.77734 13.6667 2.77734Z" fill="#2B3443" stroke="#2B3443" stroke-linecap="round" stroke-linejoin="round"/>
<path d="M13.6667 13.668H4.33333C3.04467 13.668 2 14.7126 2 16.0013C2 17.29 3.04467 18.3346 4.33333 18.3346H13.6667C14.9553 18.3346 16 17.29 16 16.0013C16 14.7126 14.9553 13.668 13.6667 13.668Z" stroke="#2B3443" stroke-linecap="round" stroke-linejoin="round"/>
<path d="M13.6667 24.5547H4.33333C3.04467 24.5547 2 25.5994 2 26.888C2 28.1767 3.04467 29.2214 4.33333 29.2214H13.6667C14.9553 29.2214 16 28.1767 16 26.888C16 25.5994 14.9553 24.5547 13.6667 24.5547Z" stroke="#2B3443" stroke-linecap="round" stroke-linejoin="round"/>
</svg>
