<svg width="101" height="100" viewBox="0 0 101 100" fill="none" xmlns="http://www.w3.org/2000/svg">
<rect x="0.5" width="100" height="100" rx="8" fill="#FAFAFA"/>
<path d="M75.8936 80.7059L72.9369 82.7908L70.0181 80.7059C63.0434 75.8161 58.9116 67.8558 58.9116 59.3269V53.6789L72.9369 48.9785L87.0001 53.6789V59.3269C87.0001 67.8558 82.8683 75.8161 75.8936 80.7059Z" stroke="#1242E0" stroke-width="3" stroke-linejoin="round"/>
<path d="M74.5667 63.3447L71.6479 65.3917" stroke="#1242E0" stroke-width="3" stroke-linejoin="round"/>
<path d="M87.0003 54.7402L76.0454 62.3215" stroke="#1242E0" stroke-width="3" stroke-linejoin="round"/>
<path d="M86.9622 60.9946L79.3052 66.6426" stroke="#1242E0" stroke-width="3" stroke-linejoin="round"/>
<path d="M67.7815 22.7094H29.9512V16H67.7815V22.7094Z" stroke="#1242E0" stroke-width="3" stroke-linejoin="round"/>
<path d="M66.796 78.0524H24V19.4116H29.9513" stroke="#1242E0" stroke-width="3" stroke-linejoin="round"/>
<path d="M67.7817 19.4116H73.733V49.2437" stroke="#1242E0" stroke-width="3" stroke-linejoin="round"/>
<path d="M29.9512 28.3574V78.0524" stroke="#1242E0" stroke-width="3" stroke-linejoin="round"/>
<path d="M67.7817 28.3574V50.4567" stroke="#1242E0" stroke-width="3" stroke-linejoin="round"/>
<path d="M42.1949 38.5545H35.5234V31.9209H42.1949V38.5545Z" stroke="#1242E0" stroke-width="3" stroke-linejoin="round"/>
<path d="M48.0327 35.2563H62.3991" stroke="#1242E0" stroke-width="3" stroke-linejoin="round"/>
<path d="M42.1949 52.3142H35.5234V45.6807H42.1949V52.3142Z" stroke="#1242E0" stroke-width="3" stroke-linejoin="round"/>
<path d="M48.0327 48.9785H62.3991" stroke="#1242E0" stroke-width="3" stroke-linejoin="round"/>
<path d="M42.1949 66.074H35.5234V59.4404H42.1949V66.074Z" stroke="#1242E0" stroke-width="3" stroke-linejoin="round"/>
<path d="M48.0327 62.7383H59.2908H48.0327Z" fill="#1242E0"/>
<path d="M48.0327 62.7383H59.2908" stroke="#1242E0" stroke-width="3" stroke-linejoin="round"/>
</svg>
