<svg width="100" height="100" viewBox="0 0 100 100" fill="none" xmlns="http://www.w3.org/2000/svg">
<rect width="100" height="100" rx="8" fill="#FAFAFA"/>
<path d="M89.5625 81.25C89.5625 81.6644 89.3979 82.0618 89.1049 82.3549C88.8118 82.6479 88.4144 82.8125 88 82.8125H13C12.5856 82.8125 12.1882 82.6479 11.8951 82.3549C11.6021 82.0618 11.4375 81.6644 11.4375 81.25V18.75C11.4375 18.3356 11.6021 17.9382 11.8951 17.6451C12.1882 17.3521 12.5856 17.1875 13 17.1875C13.4144 17.1875 13.8118 17.3521 14.1049 17.6451C14.3979 17.9382 14.5625 18.3356 14.5625 18.75V24.3516L38 47.7891L49.3945 36.3945C49.5396 36.2493 49.712 36.134 49.9017 36.0554C50.0913 35.9767 50.2947 35.9363 50.5 35.9363C50.7053 35.9363 50.9087 35.9767 51.0983 36.0554C51.288 36.134 51.4604 36.2493 51.6055 36.3945L77.0625 61.8516V50C77.0625 49.5856 77.2271 49.1882 77.5201 48.8951C77.8132 48.6021 78.2106 48.4375 78.625 48.4375C79.0394 48.4375 79.4368 48.6021 79.7299 48.8951C80.0229 49.1882 80.1875 49.5856 80.1875 50V65.625C80.1868 65.7273 80.1763 65.8293 80.1562 65.9297C80.1456 65.9746 80.1325 66.0189 80.1172 66.0625C80.1044 66.1171 80.0874 66.1707 80.0664 66.2227C80.0443 66.2754 80.0182 66.3263 79.9883 66.375C79.9688 66.4141 79.9492 66.4531 79.9258 66.4922C79.8099 66.6627 79.6627 66.8099 79.4922 66.9258L79.3711 66.9883C79.3233 67.0174 79.2737 67.0434 79.2227 67.0664C79.1707 67.0874 79.1171 67.1044 79.0625 67.1172C79.0189 67.1325 78.9746 67.1456 78.9297 67.1562C78.8293 67.1763 78.7273 67.1868 78.625 67.1875H63C62.5856 67.1875 62.1882 67.0229 61.8951 66.7299C61.6021 66.4368 61.4375 66.0394 61.4375 65.625C61.4375 65.2106 61.6021 64.8132 61.8951 64.5201C62.1882 64.2271 62.5856 64.0625 63 64.0625H74.8516L50.5 39.7109L39.1055 51.1055C38.9604 51.2507 38.788 51.366 38.5983 51.4446C38.4087 51.5233 38.2053 51.5637 38 51.5637C37.7947 51.5637 37.5913 51.5233 37.4017 51.4446C37.212 51.366 37.0396 51.2507 36.8945 51.1055L14.5625 28.7734V79.6875H88C88.4144 79.6875 88.8118 79.8521 89.1049 80.1451C89.3979 80.4382 89.5625 80.8356 89.5625 81.25Z" fill="#1242E0"/>
</svg>
