<svg width="77" height="545" viewBox="0 0 77 545" fill="none" xmlns="http://www.w3.org/2000/svg">
<g clip-path="url(#clip0_8458_27364)">
<path d="M38.0977 1.88867V544.143" stroke="#A4B7F4" stroke-width="20" stroke-miterlimit="10"/>
<path d="M38.8518 75.4033C59.4504 75.4033 76.1488 58.7134 76.1488 38.1255C76.1488 17.5375 59.4504 0.847656 38.8518 0.847656C18.2532 0.847656 1.55469 17.5375 1.55469 38.1255C1.55469 58.7134 18.2532 75.4033 38.8518 75.4033Z" fill="white" stroke="#A4B7F4" stroke-width="2.55" stroke-miterlimit="10"/>
<path d="M43.4092 66.4189C45.0332 66.4189 46.3497 65.1031 46.3497 63.48C46.3497 61.8568 45.0332 60.541 43.4092 60.541C41.7852 60.541 40.4688 61.8568 40.4688 63.48C40.4688 65.1031 41.7852 66.4189 43.4092 66.4189Z" fill="#2451E5"/>
<path d="M15.3828 28.515L22.1927 42.4349L34.1015 42.7355L47.4673 32.5561L44.2461 18.8633L30.192 28.7355L15.3828 28.515Z" fill="#DAE2FB"/>
<path d="M34.1009 42.7355L47.4666 32.5561L44.2455 18.8633L30.1914 28.7355L34.1009 42.7355Z" fill="#7F9AF0"/>
<path d="M29.1495 19.1037L44.2461 18.8633L30.192 28.7355L15.3828 28.515L29.1495 19.1037Z" fill="#2451E5"/>
<path d="M25.6294 7.52734L23.9453 16.6781L29.5923 21.0732L39.6901 20.9262L43.0249 13.1648L32.7065 12.9176L25.6294 7.52734Z" fill="#DAE2FB"/>
<path d="M29.5938 21.0735L39.6916 20.9266L43.0263 13.1651L32.708 12.918L29.5938 21.0735Z" fill="#7F9AF0"/>
<path d="M35.6398 7.89471L43.0244 13.1648L32.7061 12.9176L25.6289 7.52734L35.6398 7.89471Z" fill="#2451E5"/>
<path d="M61.1605 17.3054H55.186C54.4375 17.3054 53.8027 17.8464 53.6824 18.5878L47.1465 58.7645C46.9795 59.7865 46.0973 60.5412 45.0548 60.5412H23.2486C22.2863 60.5412 21.4442 59.8933 21.197 58.9582L16.6125 41.4381C16.4788 40.9238 16.8665 40.4228 17.3944 40.4228H47.1064L51.5906 15.5487C51.7243 14.8206 52.3525 14.293 53.0943 14.293H61.1605C61.9892 14.293 62.6641 14.9676 62.6641 15.7958C62.6641 16.6241 61.9892 17.2987 61.1605 17.2987V17.3054Z" fill="#5B7DEC"/>
<path d="M25.2412 66.4189C26.8652 66.4189 28.1817 65.1031 28.1817 63.48C28.1817 61.8568 26.8652 60.541 25.2412 60.541C23.6173 60.541 22.3008 61.8568 22.3008 63.48C22.3008 65.1031 23.6173 66.4189 25.2412 66.4189Z" fill="#2451E5"/>
<path d="M38.1525 189.208C58.7512 189.208 75.4496 172.518 75.4496 151.93C75.4496 131.342 58.7512 114.652 38.1525 114.652C17.5539 114.652 0.855469 131.342 0.855469 151.93C0.855469 172.518 17.5539 189.208 38.1525 189.208Z" fill="white" stroke="#A4B7F4" stroke-width="2.55" stroke-miterlimit="10"/>
<path d="M53.6641 173.946V126.489C53.6641 124.888 52.3655 123.59 50.7637 123.59H23.8785C22.2767 123.59 20.9782 124.888 20.9782 126.489V173.946C20.9782 175.547 22.2767 176.845 23.8785 176.845H50.7637C52.3655 176.845 53.6641 175.547 53.6641 173.946Z" fill="#2451E5"/>
<path d="M50.1398 126.93H24.6914V170.152H50.1398V126.93Z" fill="white"/>
<path d="M41.7665 131.611H28.5879C28.3516 131.611 28.1602 131.803 28.1602 132.039V133.401C28.1602 133.638 28.3516 133.829 28.5879 133.829H41.7665C42.0027 133.829 42.1942 133.638 42.1942 133.401V132.039C42.1942 131.803 42.0027 131.611 41.7665 131.611Z" fill="#7F9AF0"/>
<path d="M44.8151 134.183C45.6234 134.183 46.2787 133.528 46.2787 132.721C46.2787 131.913 45.6234 131.258 44.8151 131.258C44.0068 131.258 43.3516 131.913 43.3516 132.721C43.3516 133.528 44.0068 134.183 44.8151 134.183Z" fill="#7F9AF0"/>
<path d="M41.7665 137.029H28.5879C28.3516 137.029 28.1602 137.221 28.1602 137.457V138.819C28.1602 139.055 28.3516 139.247 28.5879 139.247H41.7665C42.0027 139.247 42.1942 139.055 42.1942 138.819V137.457C42.1942 137.221 42.0027 137.029 41.7665 137.029Z" fill="#7F9AF0"/>
<path d="M44.8151 139.601C45.6234 139.601 46.2787 138.946 46.2787 138.139C46.2787 137.331 45.6234 136.676 44.8151 136.676C44.0068 136.676 43.3516 137.331 43.3516 138.139C43.3516 138.946 44.0068 139.601 44.8151 139.601Z" fill="#7F9AF0"/>
<path d="M41.7665 141.912H28.5879C28.3516 141.912 28.1602 142.103 28.1602 142.34V143.702C28.1602 143.938 28.3516 144.13 28.5879 144.13H41.7665C42.0027 144.13 42.1942 143.938 42.1942 143.702V142.34C42.1942 142.103 42.0027 141.912 41.7665 141.912Z" fill="#7F9AF0"/>
<path d="M44.8151 144.482C45.6234 144.482 46.2787 143.827 46.2787 143.019C46.2787 142.212 45.6234 141.557 44.8151 141.557C44.0068 141.557 43.3516 142.212 43.3516 143.019C43.3516 143.827 44.0068 144.482 44.8151 144.482Z" fill="#7F9AF0"/>
<path d="M41.7665 147.303H28.5879C28.3516 147.303 28.1602 147.494 28.1602 147.73V149.093C28.1602 149.329 28.3516 149.52 28.5879 149.52H41.7665C42.0027 149.52 42.1942 149.329 42.1942 149.093V147.73C42.1942 147.494 42.0027 147.303 41.7665 147.303Z" fill="#7F9AF0"/>
<path d="M45.2349 154.436H29.2027C28.6269 154.436 28.1602 154.902 28.1602 155.478V163.646C28.1602 164.222 28.6269 164.688 29.2027 164.688H45.2349C45.8107 164.688 46.2774 164.222 46.2774 163.646V155.478C46.2774 154.902 45.8107 154.436 45.2349 154.436Z" fill="#5B7DEC"/>
<path d="M44.8151 149.873C45.6234 149.873 46.2787 149.218 46.2787 148.41C46.2787 147.602 45.6234 146.947 44.8151 146.947C44.0068 146.947 43.3516 147.602 43.3516 148.41C43.3516 149.218 44.0068 149.873 44.8151 149.873Z" fill="#7F9AF0"/>
<path d="M47.7018 173.432C45.2158 170.653 46.0244 170.987 43.5384 168.209C40.2304 164.515 41.7273 163.807 41.6939 160.467C41.6739 158.691 37.0761 147.603 37.0761 147.603C35.3853 144.163 38.9139 142.774 40.0032 145.799L44.9084 155.785C44.0129 153.574 44.2869 152.699 45.2559 152.285C46.3786 151.811 47.2474 151.691 48.6642 155.13C48.6642 155.13 47.3276 152.639 49.3725 151.797C51.4175 150.956 52.9078 154.589 52.9078 154.589C52.9078 154.589 51.765 152.138 53.8367 151.684C55.9084 151.23 57.0177 155.151 57.0177 155.151C58.488 158.831 58.0202 164.435 60.0651 169.231L47.6885 173.425L47.7018 173.432Z" fill="#DAE2FB" stroke="#4C80E5" stroke-width="0.49" stroke-miterlimit="10"/>
<path d="M46.9669 174.387L48.5844 178.025C48.8722 178.673 49.6304 178.964 50.278 178.676L62.834 173.1C63.4816 172.812 63.7733 172.054 63.4855 171.407L61.868 167.769C61.5802 167.122 60.822 166.83 60.1744 167.118L47.6184 172.695C46.9708 172.982 46.6791 173.74 46.9669 174.387Z" fill="#5B7DEC"/>
<path d="M36.7329 174.954C37.5929 174.954 38.29 174.258 38.29 173.398C38.29 172.539 37.5929 171.842 36.7329 171.842C35.8729 171.842 35.1758 172.539 35.1758 173.398C35.1758 174.258 35.8729 174.954 36.7329 174.954Z" fill="white"/>
<path d="M38.1447 307.52C58.7433 307.52 75.4418 290.831 75.4418 270.243C75.4418 249.655 58.7433 232.965 38.1447 232.965C17.5461 232.965 0.847656 249.655 0.847656 270.243C0.847656 290.831 17.5461 307.52 38.1447 307.52Z" fill="white" stroke="#A4B7F4" stroke-width="2.55" stroke-miterlimit="10"/>
<path d="M39.6398 292.385C52.3289 292.385 62.6155 282.103 62.6155 269.421C62.6155 256.738 52.3289 246.457 39.6398 246.457C26.9506 246.457 16.6641 256.738 16.6641 269.421C16.6641 282.103 26.9506 292.385 39.6398 292.385Z" fill="#B6C5F6" stroke="#2451E5" stroke-width="1.92" stroke-miterlimit="10"/>
<path d="M39.6398 288.804C50.3506 288.804 59.0335 280.126 59.0335 269.421C59.0335 258.715 50.3506 250.037 39.6398 250.037C28.9289 250.037 20.2461 258.715 20.2461 269.421C20.2461 280.126 28.9289 288.804 39.6398 288.804Z" fill="#EDF1FD"/>
<path d="M39.625 250.291V254.993" stroke="#58595B" stroke-width="1.92" stroke-linecap="round" stroke-linejoin="round"/>
<path d="M21.2539 270.717H25.3572" stroke="#58595B" stroke-width="1.92" stroke-linecap="round" stroke-linejoin="round"/>
<path d="M54.0664 270.717H58.1764" stroke="#58595B" stroke-width="1.92" stroke-linecap="round" stroke-linejoin="round"/>
<path d="M38.9177 270.711C39.7481 270.711 40.4214 270.038 40.4214 269.208C40.4214 268.378 39.7481 267.705 38.9177 267.705C38.0873 267.705 37.4141 268.378 37.4141 269.208C37.4141 270.038 38.0873 270.711 38.9177 270.711Z" fill="#58595B"/>
<path d="M38.918 269.207V277.87" stroke="#58595B" stroke-width="1.92" stroke-linecap="round" stroke-linejoin="round"/>
<path d="M36.7461 275.326L38.918 277.497L41.0833 275.326V277.17L38.918 279.334L36.7461 277.17V275.326Z" fill="#58595B"/>
<path d="M38.918 269.208L49.8177 259.576" stroke="#58595B" stroke-width="1.92" stroke-linecap="round" stroke-linejoin="round"/>
<path d="M49.3424 262.883L49.5295 259.823L46.4688 259.636L47.8454 258.414L50.9129 258.601L50.7257 261.667L49.3424 262.883Z" fill="#58595B"/>
<path d="M42.7427 297.347C42.7427 297.347 36.8016 299.311 32.0968 298.202C29.564 297.608 22.126 289.96 17.0136 281.37C11.9146 273.014 8.92734 263.543 9.55553 261.078C10.7451 256.396 15.2293 252.034 15.2293 252.034L17.9893 250.164C18.7445 249.65 20.1546 250.491 20.609 251.233L25.7414 259.655C26.2026 260.41 25.8885 261.419 25.0665 261.846L23.2955 262.761L18.4036 265.433C16.8198 267.878 28.7354 288.177 32.3107 288.344L36.9352 285.244L38.5659 284.095C39.3277 283.561 40.3636 283.748 40.8247 284.51L45.9304 292.952C46.3781 293.7 46.4784 295.337 45.6697 295.771L42.736 297.354L42.7427 297.347Z" fill="#5B7DEC"/>
<path d="M38.2971 425.831C58.8957 425.831 75.5942 409.141 75.5942 388.553C75.5942 367.965 58.8957 351.275 38.2971 351.275C17.6985 351.275 1 367.965 1 388.553C1 409.141 17.6985 425.831 38.2971 425.831Z" fill="white" stroke="#A4B7F4" stroke-width="2.55" stroke-miterlimit="10"/>
<path d="M37.231 368.002L13.264 373.572C12.4084 373.77 11.8761 374.625 12.0751 375.48L20.0711 409.85C20.2701 410.706 21.1249 411.238 21.9805 411.039L45.9475 405.469C46.8031 405.27 47.3354 404.416 47.1365 403.56L39.1404 369.19C38.9414 368.335 38.0866 367.803 37.231 368.002Z" fill="#B6C5F6"/>
<path d="M37.8679 369.569L13.543 375.223L20.2222 403.933L44.5472 398.28L37.8679 369.569Z" fill="white"/>
<path d="M29.3573 371.955L22.0797 373.645L21.4648 369.25L27.9673 367.74L29.3573 371.955Z" fill="#B6C5F6"/>
<path d="M18.3633 379.208L36.0061 375.113" stroke="#BCBEC0" stroke-width="1.49" stroke-linecap="round" stroke-linejoin="round"/>
<path d="M19.332 383.357L36.9681 379.256" stroke="#BCBEC0" stroke-width="1.49" stroke-linecap="round" stroke-linejoin="round"/>
<path d="M20.3555 387.752L37.9916 383.65" stroke="#BCBEC0" stroke-width="1.49" stroke-linecap="round" stroke-linejoin="round"/>
<path d="M62.8281 411.009C60.3822 402.219 52.3226 395.773 42.7461 395.773C33.1695 395.773 25.1167 402.226 22.6641 411.009H62.8214H62.8281Z" fill="white" stroke="#A4B7F4" stroke-width="1.92" stroke-miterlimit="10"/>
<path d="M25.6035 405.934C24.708 407.376 23.9929 408.939 23.5117 410.589H62.1654C61.6843 408.933 60.9759 407.376 60.0737 405.934H25.6035Z" fill="#5B7DEC"/>
<path d="M35.9703 407.262L35.2819 397.777L31.7734 399.634L32.9964 407.262H35.9703Z" fill="#5B7DEC"/>
<path d="M49.7305 407.262L50.4255 397.777L53.934 399.634L52.711 407.262H49.7305Z" fill="#5B7DEC"/>
<path d="M34.7332 408.124C35.2093 408.124 35.5953 407.738 35.5953 407.262C35.5953 406.786 35.2093 406.4 34.7332 406.4C34.2571 406.4 33.8711 406.786 33.8711 407.262C33.8711 407.738 34.2571 408.124 34.7332 408.124Z" fill="white"/>
<path d="M50.9676 408.124C51.4437 408.124 51.8296 407.738 51.8296 407.262C51.8296 406.786 51.4437 406.4 50.9676 406.4C50.4914 406.4 50.1055 406.786 50.1055 407.262C50.1055 407.738 50.4914 408.124 50.9676 408.124Z" fill="white"/>
<path d="M42.7526 395.112C50.2487 395.112 56.3255 389.039 56.3255 381.546C56.3255 374.054 50.2487 367.98 42.7526 367.98C35.2565 367.98 29.1797 374.054 29.1797 381.546C29.1797 389.039 35.2565 395.112 42.7526 395.112Z" fill="white" stroke="#85A1E8" stroke-width="1.28" stroke-miterlimit="10"/>
<path d="M31.166 371.867L29.4217 377.665C27.1095 380.958 35.5098 376.403 42.9345 376.403C50.3592 376.403 57.9643 380.958 56.4473 377.304L54.957 371.867H31.1593H31.166Z" fill="#2451E5"/>
<path d="M54.9618 371.868C54.9618 365.082 48.3658 361.268 42.8457 361.268C37.3257 361.268 31.1641 365.502 31.1641 371.868H54.9618Z" fill="#2451E5"/>
<path d="M38.2854 544.143C58.884 544.143 75.5824 527.454 75.5824 506.866C75.5824 486.278 58.884 469.588 38.2854 469.588C17.6868 469.588 0.988281 486.278 0.988281 506.866C0.988281 527.454 17.6868 544.143 38.2854 544.143Z" fill="white" stroke="#A4B7F4" stroke-width="2.55" stroke-miterlimit="10"/>
<path d="M47.9141 516.21L48.2081 514.847C48.2348 514.6 48.4621 514.427 48.7026 514.467L50.0259 514.667C50.2731 514.701 50.4402 514.941 50.3867 515.181L50.3266 515.495C50.2998 515.649 50.1929 515.769 50.0459 515.823L49.2373 516.11C49.1237 516.15 49.0301 516.237 48.9833 516.35L48.8096 516.758" fill="#5B7DEC"/>
<path d="M48.7772 530.089H46.0239C45.5427 530.089 45.1484 529.796 45.1484 529.442V527.11L49.6527 526.863V529.448C49.6527 529.809 49.2651 530.096 48.7772 530.096V530.089Z" fill="#2451E5"/>
<path d="M28.2934 530.089H31.0468C31.5279 530.089 31.9222 529.796 31.9222 529.442V527.11L27.418 526.863V529.448C27.418 529.809 27.8056 530.096 28.2934 530.096V530.089Z" fill="#2451E5"/>
<path d="M48.6153 516.771C47.7733 515.495 46.7775 512.971 45.5612 511.555C45.1269 511.047 44.5054 510.74 43.8371 510.68C39.4464 510.285 35.4835 510.305 31.5205 510.76C29.5758 511.368 28.6469 514.407 27.3438 516.778H48.6153V516.771Z" fill="#DAE2FB" stroke="#4C80E5" stroke-width="0.49" stroke-miterlimit="10"/>
<path d="M49.0314 516.625C49.2987 516.625 50.9628 517.447 51.3571 519.25C51.6912 520.8 51.5642 523.912 51.4774 526.344C51.1365 527.913 43.7052 527.586 37.8243 527.566C31.4822 527.666 25.5211 527.546 25.3006 526.344C25.0533 523.698 25.08 521.22 25.3006 519.083C25.4543 517.587 26.6238 516.672 26.8644 516.658L49.0314 516.625Z" fill="#B6C5F6"/>
<path d="M44.2383 520.452L48.7158 518.682C49.1636 518.775 49.3574 519.984 48.8628 520.552C48.3683 521.12 45.9625 521.44 45.9625 521.44C45.1472 521.641 44.7061 521.019 44.2383 520.458V520.452Z" fill="white"/>
<path d="M32.2555 520.452L27.778 518.682C27.3302 518.775 27.1364 519.984 27.6309 520.552C28.1255 521.12 30.5313 521.44 30.5313 521.44C31.3466 521.641 31.7877 521.019 32.2555 520.458V520.452Z" fill="white"/>
<path d="M25.5156 524.673C26.3844 525.033 27.9081 525.294 29.953 525.347C30.882 524.506 31.8042 523.517 32.8066 523.531H43.9269C45.2034 523.49 46.012 524.406 46.9743 525.347C48.5515 525.508 50.4294 525.1 51.6055 524.673" stroke="white" stroke-width="0.33" stroke-linecap="round" stroke-linejoin="round"/>
<path d="M20.8151 520.133C23.5418 516.786 26.8498 510.401 26.8498 510.401L27.5983 510.761C29.7501 507.021 31.9956 503.701 31.9956 503.701L35.4038 505.571C35.4038 505.571 33.1851 508.864 30.8595 512.645L31.4676 512.999C31.4676 512.999 27.2441 520.239 25.8139 524.668C24.8315 527.714 23.1809 532.823 18.2422 529.764C13.2969 526.698 18.8571 522.537 20.8151 520.139V520.133Z" fill="#2451E5"/>
<path d="M41.6723 507.481C50.2092 507.481 57.1298 500.564 57.1298 492.032C57.1298 483.499 50.2092 476.582 41.6723 476.582C33.1354 476.582 26.2148 483.499 26.2148 492.032C26.2148 500.564 33.1354 507.481 41.6723 507.481Z" fill="#5B7DEC"/>
<path d="M41.6718 504.737C48.6917 504.737 54.3826 499.049 54.3826 492.032C54.3826 485.016 48.6917 479.328 41.6718 479.328C34.6518 479.328 28.9609 485.016 28.9609 492.032C28.9609 499.049 34.6518 504.737 41.6718 504.737Z" fill="#A4B7F4"/>
<path d="M42.0319 481.023C38.5634 481.023 35.4826 482.673 33.5312 485.232C34.9814 484.49 36.6254 484.076 38.3696 484.076C44.2706 484.076 49.0622 488.858 49.0622 494.763C49.0622 497.201 48.2469 499.439 46.8769 501.235C50.352 499.472 52.7311 495.865 52.7311 491.71C52.7311 485.813 47.9462 481.023 42.0385 481.023H42.0319Z" fill="white"/>
</g>
<defs>
<clipPath id="clip0_8458_27364">
<rect width="77" height="545" fill="white"/>
</clipPath>
</defs>
</svg>
