<svg xmlns="http://www.w3.org/2000/svg" width="98" height="98" fill="none"><g clip-path="url(#a)"><path fill="url(#b)" d="M49.004.082C21.977.082.066 21.992.066 49.019c0 27.027 21.911 48.937 48.938 48.937 27.029 0 48.938-21.91 48.938-48.937 0-27.028-21.91-48.937-48.938-48.937Zm0 95.427c-25.677 0-46.49-20.814-46.49-46.49 0-25.676 20.813-46.49 46.49-46.49 25.677 0 46.49 20.814 46.49 46.49 0 25.676-20.813 46.49-46.49 46.49Z"/><path fill="#333" d="M95.845 49.02c0 25.868-20.974 46.84-46.841 46.84-25.868 0-46.84-20.972-46.84-46.84 0-25.869 20.972-46.84 46.84-46.84 25.867 0 46.841 20.971 46.841 46.84Z"/><path fill="url(#c)" d="M95.495 49.018c0 25.676-20.815 46.49-46.491 46.49-25.677 0-46.49-20.814-46.49-46.49 0-25.676 20.813-46.49 46.49-46.49 25.676 0 46.49 20.814 46.49 46.49Z"/><path fill="url(#d)" d="M80.172 49.02c0 17.213-13.954 31.167-31.168 31.167S17.835 66.233 17.835 49.02c0-17.214 13.955-31.168 31.169-31.168S80.172 31.806 80.172 49.02Z"/><path fill="#000" d="m50.252 17.009 3.238-8.582v8.582h2.459V4.719h-3.695l-3.362 8.8h.032l-3.361-8.8h-3.696v12.29h2.46V8.427l3.237 8.582h2.688ZM84 22.517l-4.202 6.126 6.599-3.245 1.79 2.146L77.8 32.759l-2.099-2.54 4.026-6.07-.024-.03-6.696 2.865-2.123-2.523 7.003-9.273 1.79 2.147-4.385 5.905 6.787-3.027L84 22.517Z"/><path fill="#333" d="M27.238 20.17c-.99-.96-2.517-1.25-3.953-.36.275-.71.163-1.434.018-1.836-.62-1.126-.836-1.268-1.342-1.695-1.65-1.383-3.387-.202-4.628 1.276l-5.997 7.148 9.428 7.91 6.324-7.536c1.446-1.722 1.67-3.43.15-4.906ZM15.04 23.618l3.603-4.293c.418-.497 1.362-.477 1.967.033.667.56.669 1.352.221 1.887l-3.562 4.243-2.229-1.87Zm9.939.714-3.756 4.476-2.351-1.977 3.783-4.51c.428-.51 1.382-.658 2.025-.118.725.609.796 1.536.299 2.13Z"/><path fill="url(#e)" d="m50.278 16.532 3.238-8.581v8.581h2.46V4.242h-3.697l-3.36 8.8h.031l-3.361-8.8h-3.696v12.29h2.46V7.951l3.237 8.581h2.688Z"/><path fill="url(#f)" d="m84.023 21.693-4.2 6.126 6.6-3.247 1.788 2.148-10.385 5.215-2.098-2.542 4.026-6.07-.023-.03-6.7 2.867-2.12-2.525 7.004-9.272 1.79 2.147-4.385 5.905 6.784-3.026 1.92 2.304Z"/><path fill="url(#g)" d="M26.798 19.929c-.988-.961-2.517-1.25-3.95-.362a2.736 2.736 0 0 0 .015-1.834c-.62-1.128-.834-1.268-1.344-1.696-1.65-1.384-3.385-.202-4.624 1.277l-6 7.147 9.43 7.91 6.323-7.537c1.444-1.722 1.669-3.429.15-4.905Zm-12.196 3.447 3.602-4.293c.416-.497 1.36-.477 1.967.031.667.56.67 1.354.219 1.887l-3.56 4.244-2.228-1.87Zm9.94.713-3.756 4.476-2.355-1.977 3.785-4.51c.428-.51 1.38-.658 2.023-.118.729.61.8 1.535.303 2.13Z"/><path fill="url(#h)" d="M18.873 49.019c0-16.642 13.49-30.132 30.131-30.132 16.642 0 30.131 13.49 30.131 30.132 0 16.64-13.489 30.13-30.131 30.13-16.64 0-30.131-13.49-30.131-30.13Z"/><path fill="url(#i)" d="M19.739 49.02c0-16.163 13.102-29.266 29.265-29.266S78.271 32.857 78.271 49.02c0 16.163-13.104 29.266-29.267 29.266S19.739 65.183 19.739 49.02Z"/><path fill="url(#j)" d="M19.693 49.018h29.31V19.707c-16.188 0-29.31 13.122-29.31 29.31Z"/><path fill="url(#k)" d="M49.004 49.02v29.31c16.188 0 29.31-13.124 29.31-29.31h-29.31Z"/><path fill="url(#l)" d="M78.557 48.499H49.523V19.465h-1.039v29.034H19.45v1.04h29.034v29.034h1.04V49.538h29.033v-1.04Z"/><path fill="url(#m)" d="M49.523 20.286c15.462.275 27.94 12.751 28.216 28.212h.518C77.98 32.75 65.272 20.04 49.523 19.766v.52Z"/><path fill="#C2D7E8" d="M20.219 48.494c.274-15.482 12.77-27.976 28.251-28.252v-.52C32.7 19.999 19.976 32.726 19.7 48.495h.52Z"/><path fill="url(#n)" d="M48.484 77.752C33.022 77.478 20.545 65.001 20.27 49.54h-.519c.277 15.748 12.985 28.459 28.733 28.733v-.52Z"/><path fill="#12404F" d="M77.74 49.54C77.462 65 64.985 77.477 49.523 77.751v.52c15.748-.274 28.458-12.985 28.733-28.733h-.518Z"/><path fill="url(#o)" d="M47.929 19.723v28.204H19.725v.557h28.759V19.723h-.555Z"/><path fill="url(#p)" d="M47.88 77.997V50.132H19.959v-.55h28.473v28.415h-.55Z"/><path fill="url(#q)" d="M50.119 77.997V50.132h27.865v-.55H49.57v28.415h.548Z"/><path fill="url(#r)" d="M50.119 19.973v27.865h27.865v.548H49.57V19.973h.548Z"/></g><defs><radialGradient id="k" cx="0" cy="0" r="1" gradientTransform="translate(9.974 .618) scale(116.059)" gradientUnits="userSpaceOnUse"><stop offset=".169" stop-color="#fff"/><stop offset=".196" stop-color="#E0EFF7"/><stop offset=".241" stop-color="#B2D9EC"/><stop offset=".287" stop-color="#8BC5E2"/><stop offset=".335" stop-color="#6BB5DA"/><stop offset=".384" stop-color="#52A9D4"/><stop offset=".436" stop-color="#41A0CF"/><stop offset=".491" stop-color="#369BCD"/><stop offset=".556" stop-color="#39C"/><stop offset=".606" stop-color="#3396C8"/><stop offset=".655" stop-color="#328EBC"/><stop offset=".705" stop-color="#3180A8"/><stop offset=".754" stop-color="#2F6D8C"/><stop offset=".803" stop-color="#2D5468"/><stop offset=".851" stop-color="#2A373D"/><stop offset=".871" stop-color="#292929"/></radialGradient><radialGradient id="e" cx="0" cy="0" r="1" gradientTransform="translate(-13.031 -3.763) scale(167.065)" gradientUnits="userSpaceOnUse"><stop stop-color="#fff"/><stop offset=".31" stop-color="#FDFDFD"/><stop offset=".451" stop-color="#F6F6F6"/><stop offset=".557" stop-color="#E9E9E9"/><stop offset=".646" stop-color="#D7D7D7"/><stop offset=".724" stop-color="#BFBFBF"/><stop offset=".794" stop-color="#A2A2A2"/><stop offset=".859" stop-color="gray"/><stop offset=".92" stop-color="#575757"/><stop offset=".975" stop-color="#2B2B2B"/><stop offset="1" stop-color="#141414"/></radialGradient><radialGradient id="f" cx="0" cy="0" r="1" gradientTransform="translate(-13.039 -3.763) scale(167.079)" gradientUnits="userSpaceOnUse"><stop stop-color="#fff"/><stop offset=".31" stop-color="#FDFDFD"/><stop offset=".451" stop-color="#F6F6F6"/><stop offset=".557" stop-color="#E9E9E9"/><stop offset=".646" stop-color="#D7D7D7"/><stop offset=".724" stop-color="#BFBFBF"/><stop offset=".794" stop-color="#A2A2A2"/><stop offset=".859" stop-color="gray"/><stop offset=".92" stop-color="#575757"/><stop offset=".975" stop-color="#2B2B2B"/><stop offset="1" stop-color="#141414"/></radialGradient><radialGradient id="g" cx="0" cy="0" r="1" gradientTransform="translate(-13.048 -3.812) scale(167.207)" gradientUnits="userSpaceOnUse"><stop stop-color="#fff"/><stop offset=".31" stop-color="#FDFDFD"/><stop offset=".451" stop-color="#F6F6F6"/><stop offset=".557" stop-color="#E9E9E9"/><stop offset=".646" stop-color="#D7D7D7"/><stop offset=".724" stop-color="#BFBFBF"/><stop offset=".794" stop-color="#A2A2A2"/><stop offset=".859" stop-color="gray"/><stop offset=".92" stop-color="#575757"/><stop offset=".975" stop-color="#2B2B2B"/><stop offset="1" stop-color="#141414"/></radialGradient><radialGradient id="h" cx="0" cy="0" r="1" gradientTransform="translate(16.89 19.399) scale(45.0624)" gradientUnits="userSpaceOnUse"><stop stop-color="#E6E6E6"/><stop offset=".104" stop-color="#D6D6D6"/><stop offset=".307" stop-color="#ADADAD"/><stop offset=".588" stop-color="#6C6C6C"/><stop offset=".933" stop-color="#121212"/><stop offset="1"/></radialGradient><radialGradient id="i" cx="0" cy="0" r="1" gradientTransform="translate(29.215 25.46) scale(65.5337)" gradientUnits="userSpaceOnUse"><stop stop-color="#fff"/><stop offset=".344" stop-color="#FDFDFD"/><stop offset=".481" stop-color="#F6F6F6"/><stop offset=".582" stop-color="#EAEAEA"/><stop offset=".665" stop-color="#D8D8D8"/><stop offset=".737" stop-color="#C2C2C2"/><stop offset=".802" stop-color="#A6A6A6"/><stop offset=".86" stop-color="#848484"/><stop offset=".913" stop-color="#5F5F5F"/><stop offset=".949" stop-color="#404040"/><stop offset=".957" stop-color="#404040"/><stop offset="1"/></radialGradient><radialGradient id="j" cx="0" cy="0" r="1" gradientTransform="translate(9.974 .617) scale(116.061)" gradientUnits="userSpaceOnUse"><stop offset=".169" stop-color="#fff"/><stop offset=".196" stop-color="#E0EFF7"/><stop offset=".241" stop-color="#B2D9EC"/><stop offset=".287" stop-color="#8BC5E2"/><stop offset=".335" stop-color="#6BB5DA"/><stop offset=".384" stop-color="#52A9D4"/><stop offset=".436" stop-color="#41A0CF"/><stop offset=".491" stop-color="#369BCD"/><stop offset=".556" stop-color="#39C"/><stop offset=".606" stop-color="#3396C8"/><stop offset=".655" stop-color="#328EBC"/><stop offset=".705" stop-color="#3180A8"/><stop offset=".754" stop-color="#2F6D8C"/><stop offset=".803" stop-color="#2D5468"/><stop offset=".851" stop-color="#2A373D"/><stop offset=".871" stop-color="#292929"/></radialGradient><radialGradient id="c" cx="0" cy="0" r="1" gradientTransform="translate(-.544 3.318) scale(69.5276)" gradientUnits="userSpaceOnUse"><stop stop-color="#fff"/><stop offset=".306" stop-color="#A8A8A8"/><stop offset=".646" stop-color="#4F4F4F"/><stop offset=".885" stop-color="#161616"/><stop offset="1"/></radialGradient><radialGradient id="l" cx="0" cy="0" r="1" gradientTransform="translate(17.506 19.967) scale(44.1988)" gradientUnits="userSpaceOnUse"><stop stop-color="#E6E6E6"/><stop offset=".104" stop-color="#D6D6D6"/><stop offset=".307" stop-color="#ADADAD"/><stop offset=".588" stop-color="#6C6C6C"/><stop offset=".933" stop-color="#121212"/><stop offset="1"/></radialGradient><linearGradient id="b" x1="-7.098" x2="96.738" y1="-5.194" y2="95.146" gradientUnits="userSpaceOnUse"><stop stop-color="#DFF4FF"/><stop offset=".098" stop-color="#D6EAF5"/><stop offset=".268" stop-color="#BFD0D9"/><stop offset=".488" stop-color="#98A5AC"/><stop offset=".747" stop-color="#646B6E"/><stop offset="1" stop-color="#2B2B2B"/></linearGradient><linearGradient id="d" x1="84.735" x2="18.602" y1="83.548" y2="19.642" gradientUnits="userSpaceOnUse"><stop stop-color="#DFF4FF"/><stop offset=".086" stop-color="#D6EAF5"/><stop offset=".233" stop-color="#BED0D9"/><stop offset=".424" stop-color="#96A4AC"/><stop offset=".652" stop-color="#5F686D"/><stop offset=".907" stop-color="#1A1D1E"/><stop offset="1"/></linearGradient><linearGradient id="m" x1="43.208" x2="86.311" y1="8.931" y2="50.582" gradientUnits="userSpaceOnUse"><stop stop-color="#F0F4FF"/><stop offset=".109" stop-color="#EBEFF9"/><stop offset=".247" stop-color="#DCE0EA"/><stop offset=".403" stop-color="#C4C7CF"/><stop offset=".57" stop-color="#A2A4AB"/><stop offset=".747" stop-color="#76777C"/><stop offset=".929" stop-color="#414243"/><stop offset="1" stop-color="#2B2B2B"/></linearGradient><linearGradient id="n" x1="8.223" x2="51.326" y1="44.098" y2="85.75" gradientUnits="userSpaceOnUse"><stop stop-color="#F0F4FF"/><stop offset=".109" stop-color="#EBEFF9"/><stop offset=".247" stop-color="#DCE0EA"/><stop offset=".403" stop-color="#C4C7CF"/><stop offset=".57" stop-color="#A2A4AB"/><stop offset=".747" stop-color="#76777C"/><stop offset=".929" stop-color="#414243"/><stop offset="1" stop-color="#2B2B2B"/></linearGradient><linearGradient id="o" x1="29.075" x2="51.426" y1="29.244" y2="50.842" gradientUnits="userSpaceOnUse"><stop stop-color="#C2D7E8"/><stop offset=".134" stop-color="#BACFE1"/><stop offset=".343" stop-color="#A4BACD"/><stop offset=".6" stop-color="#8098AC"/><stop offset=".894" stop-color="#4E697F"/><stop offset="1" stop-color="#3A566D"/></linearGradient><linearGradient id="p" x1="17.882" x2="60.551" y1="34.535" y2="75.768" gradientUnits="userSpaceOnUse"><stop stop-color="#F0F4FF"/><stop offset=".097" stop-color="#E8EBF6"/><stop offset=".257" stop-color="#D1D4DD"/><stop offset=".459" stop-color="#ABAEB5"/><stop offset=".695" stop-color="#78797D"/><stop offset=".958" stop-color="#363637"/><stop offset="1" stop-color="#2B2B2B"/></linearGradient><linearGradient id="q" x1="49.332" x2="64.299" y1="49.83" y2="64.293" gradientUnits="userSpaceOnUse"><stop stop-color="#D9DEF0"/><stop offset=".123" stop-color="#D4DAEC"/><stop offset=".263" stop-color="#C7CFE2"/><stop offset=".411" stop-color="#B0BCD1"/><stop offset=".566" stop-color="#90A1B8"/><stop offset=".725" stop-color="#677F99"/><stop offset=".885" stop-color="#355674"/><stop offset=".972" stop-color="#173D5D"/></linearGradient><linearGradient id="r" x1="34.021" x2="76.644" y1="18.888" y2="60.076" gradientUnits="userSpaceOnUse"><stop stop-color="#F0F4FF"/><stop offset=".109" stop-color="#EBEFF9"/><stop offset=".247" stop-color="#DCE0EA"/><stop offset=".403" stop-color="#C4C7CF"/><stop offset=".57" stop-color="#A2A4AB"/><stop offset=".747" stop-color="#76777C"/><stop offset=".929" stop-color="#414243"/><stop offset="1" stop-color="#2B2B2B"/></linearGradient><clipPath id="a"><path fill="#fff" d="M0 0h98v98H0z"/></clipPath></defs></svg>