<svg width="152" height="152" viewBox="0 0 152 152" fill="none" xmlns="http://www.w3.org/2000/svg">
<path fill-rule="evenodd" clip-rule="evenodd" d="M89.0574 35.5947C74.0772 34.0212 58.9796 33.9045 43.9768 35.2464L33.9574 36.1394C29.937 36.4999 26.1553 38.2048 23.2228 40.9787C20.2903 43.7526 18.3781 47.4338 17.7948 51.428C15.4122 67.7236 15.4122 84.2791 17.7948 100.575C18.3794 104.569 20.2929 108.251 23.2265 111.025C26.16 113.798 29.9426 115.503 33.9638 115.863L43.9831 116.75C58.9857 118.094 74.0833 117.98 89.0638 116.408L92.9144 116.003C96.7368 115.602 100.331 113.989 103.171 111.4C106.012 108.811 107.95 105.382 108.703 101.613L128.001 111.861C128.694 112.229 129.467 112.419 130.252 112.416C131.036 112.412 131.807 112.214 132.497 111.84C133.186 111.465 133.772 110.926 134.202 110.27C134.632 109.614 134.893 108.861 134.961 108.08L135.12 106.281C136.886 86.1311 136.886 65.8653 135.12 45.7154L134.961 43.9167C134.893 43.1348 134.631 42.3822 134.2 41.7261C133.769 41.07 133.183 40.5309 132.493 40.157C131.802 39.7831 131.03 39.586 130.246 39.5834C129.461 39.5808 128.687 39.7727 127.995 40.142L108.703 50.3894C107.95 46.6206 106.012 43.1913 103.171 40.6025C100.331 38.0137 96.7368 36.401 92.9144 36L89.0574 35.5947ZM44.8254 44.7084C59.2149 43.422 73.6953 43.5344 88.0631 45.044L91.9138 45.4494C93.7952 45.6486 95.5569 46.468 96.9214 47.7786C98.2859 49.0892 99.1756 50.8165 99.4504 52.6884C101.718 68.148 101.718 83.8484 99.4504 99.3144C99.1756 101.186 98.2859 102.914 96.9214 104.224C95.5569 105.535 93.7952 106.354 91.9138 106.553L88.0631 106.959C73.6953 108.468 59.2149 108.581 44.8254 107.294L34.8061 106.395C32.9125 106.226 31.131 105.424 29.7488 104.119C28.3666 102.814 27.4642 101.081 27.1871 99.2004C24.9377 83.8162 24.9377 68.1866 27.1871 52.8024C27.4618 50.92 28.3633 49.1852 29.7458 47.8785C31.1284 46.5718 32.9112 45.7695 34.8061 45.6014L44.8254 44.7084ZM109.945 60.4847C110.888 70.808 110.888 81.1947 109.945 91.518L126.076 100.087C127.224 84.0505 127.224 67.9523 126.076 51.9157L109.945 60.4847Z" fill="#1242E0"/>
</svg>
