<svg width="336" height="117" viewBox="0 0 336 117" fill="none" xmlns="http://www.w3.org/2000/svg">
<path d="M9.98486 56.1178C9.98486 56.1178 12.998 53.7846 24.9468 52.8125C24.9468 52.8125 19.7517 58.4509 15.4917 59.2286C11.3356 59.9091 9.98486 56.1178 9.98486 56.1178Z" fill="#1242E0" fill-opacity="0.75"/>
<path d="M330.523 58.9381C325.536 53.5913 334.368 37.7455 329.173 32.0099C323.977 26.3715 299.56 16.6501 299.56 16.6501L303.093 10.0396C194.827 -8.62541 158.149 4.01235 148.486 6.34548C138.823 8.67861 100.899 27.9269 100.899 27.9269C6.14024 34.5374 4.58171 53.6885 4.58171 53.6885C-1.96414 57.3827 0.425614 70.9926 0.425614 70.9926C0.425614 70.9926 0.425614 78.2836 2.71146 87.3244C4.99731 96.3653 33.8822 97.3375 33.8822 97.3375C33.8822 97.3375 26.609 58.9381 62.4553 58.6464C98.3016 58.3548 96.3274 96.3653 96.3274 96.3653H249.272C249.272 96.3653 243.869 60.2019 280.131 60.2019C316.289 60.2019 311.509 93.4489 311.509 93.4489L330.835 87.6161C338.108 75.3672 335.511 64.2848 330.523 58.9381ZM326.991 46.6891C323.562 50.7721 312.652 47.5641 304.548 44.2588C296.443 40.8563 301.327 40.9535 301.327 40.9535C319.198 41.148 329.069 36.0929 329.069 36.0929C329.069 36.0929 330.419 42.6062 326.991 46.6891ZM290.833 21.7053L298.625 14.8031L297.067 18.3028C324.497 28.0241 328.549 34.2458 328.549 34.2458C328.549 34.2458 294.989 25.4966 292.183 24.1356C289.378 22.7746 290.833 21.7053 290.833 21.7053ZM275.247 24.5244C277.741 28.1213 285.845 31.3294 278.156 31.4266C270.364 31.5238 132.589 39.6898 132.589 39.6898L133.628 37.7455L269.429 29.9684C269.429 29.9684 272.546 30.3573 271.195 27.9269C269.844 25.5938 266.416 22.483 274.52 19.761C282.624 16.9418 274.52 16.2613 274.52 16.2613C274.52 16.2613 176.228 -11.9307 108.276 39.0093C109.419 37.7455 155.24 -14.5554 284.183 16.2613C284.079 16.2613 272.754 20.8303 275.247 24.5244ZM257.792 42.8978C257.792 43.6755 257.168 44.2588 256.337 44.2588H243.349C242.518 44.2588 241.895 43.6755 241.895 42.8978C241.895 42.1201 242.518 41.5368 243.349 41.5368H256.337C257.168 41.634 257.792 42.2173 257.792 42.8978ZM190.879 84.8941C190.567 84.0192 181.735 60.6879 193.788 39.0093C193.684 38.9121 187.242 68.8538 190.879 84.8941ZM181.631 44.2588C181.631 45.0365 181.008 45.6198 180.177 45.6198H167.293C166.462 45.6198 165.838 45.0365 165.838 44.2588C165.838 43.4811 166.462 42.8978 167.293 42.8978H180.281C181.008 42.8978 181.631 43.4811 181.631 44.2588ZM133.732 26.5659C156.071 14.5114 192.125 11.2062 192.125 11.2062L186.515 32.496L135.603 35.5096C137.057 32.4959 133.732 26.5659 133.732 26.5659ZM202.516 32.496L204.698 11.0118C218.62 9.45633 248.648 12.956 248.648 12.956L247.817 29.6768L202.516 32.496ZM250.622 28.8991L251.246 13.8309L261.013 14.8031L267.247 28.8991H250.622ZM131.031 37.1622L119.913 36.0929C119.913 36.0929 129.576 34.8291 131.55 32.8848C131.55 32.8848 133.421 35.4124 131.031 37.1622ZM212.386 1.97086C256.753 1.77644 273.481 8.97026 273.481 8.97026C225.894 1.19317 172.903 6.05385 161.474 8.97026C150.045 11.8867 148.486 8.97026 148.486 8.97026C148.486 8.97026 168.02 2.16529 212.386 1.97086ZM101.211 29.2879C105.367 26.8576 146.616 7.90092 145.577 8.67863C144.538 9.45634 148.486 12.0811 148.486 12.0811C142.46 13.9282 113.991 29.8712 105.367 31.7182C96.743 33.5653 101.211 29.2879 101.211 29.2879ZM103.289 41.634C103.081 42.6062 98.5094 62.4378 101.003 78.5752C101.003 78.5752 95.4962 58.0632 103.289 41.634ZM89.9894 35.0235L83.2357 44.2588C83.2357 44.2588 41.5709 41.7313 27.0246 45.4254C33.3626 43.7727 75.1314 32.982 89.9894 35.0235ZM40.8436 49.3139C44.0646 49.8 13.9329 64.7709 11.6471 61.6601C9.36121 58.6464 6.55585 56.7022 6.55585 56.7022C11.8549 49.6056 37.6226 48.8279 40.8436 49.3139ZM3.12707 75.6588C3.12707 75.6588 7.80268 73.909 9.98463 76.7282C12.1666 79.5474 13.2056 82.6582 13.2056 82.6582H5.72463L3.12707 75.6588ZM328.341 86.0607L314.211 89.852C314.211 89.852 316.6 56.3133 280.235 58.1604C243.869 59.9102 246.258 94.3238 246.258 94.3238H98.925C98.925 94.3238 98.7172 56.7021 62.9748 57.3826C27.3363 58.0631 31.8041 93.1573 31.5963 95.296C31.3885 97.4347 3.75049 93.1573 5.82853 84.8941L26.9207 85.0885C26.9207 85.0885 28.2714 56.1189 64.0138 54.4662C99.6523 52.8136 100.691 91.6991 100.691 91.6991L241.998 87.8105C241.998 87.8105 247.194 59.4241 274.208 55.5356C301.223 51.647 312.133 67.0068 315.25 77.8947L328.757 76.8254C328.757 76.8254 330.315 67.3956 333.432 67.104C333.432 67.0068 334.264 82.8526 328.341 86.0607Z" fill="#1242E0" fill-opacity="0.75"/>
<path d="M281.585 70.1172C270.156 70.1172 260.909 78.7692 260.909 89.4627C260.909 100.156 270.156 108.808 281.585 108.808C293.014 108.808 302.366 100.156 302.366 89.4627C302.366 78.7692 293.014 70.1172 281.585 70.1172ZM288.339 74.2974L281.585 84.9909L275.975 74.2974C280.962 70.3116 288.339 74.2974 288.339 74.2974ZM283.975 89.4627C283.975 90.9209 282.728 91.9903 281.17 91.9903C279.611 91.9903 278.364 90.8237 278.364 89.4627C278.364 88.0045 279.611 86.9352 281.17 86.9352C282.728 86.9352 283.975 88.0045 283.975 89.4627ZM269.325 77.311L276.39 87.8101L263.714 87.5184C262.259 81.5884 269.325 77.311 269.325 77.311ZM264.545 92.9624L277.741 92.6707L270.987 102.781C264.857 100.837 264.545 92.9624 264.545 92.9624ZM275.455 105.406L281.897 94.615L287.715 105.211C282.832 109.197 275.455 105.406 275.455 105.406ZM292.599 102.878L285.534 92.3791L298.21 92.6707C299.664 98.6008 292.599 102.878 292.599 102.878ZM286.053 87.5184L294.261 78.4776C300.08 81.1023 299.249 88.9766 299.249 88.9766L286.053 87.5184Z" fill="#1242E0" fill-opacity="0.75"/>
<path d="M281.17 63.1172C265.273 63.1172 252.389 75.1717 252.389 89.9481C252.389 104.822 265.273 116.779 281.17 116.779C297.067 116.779 309.951 104.725 309.951 89.9481C309.951 75.1717 297.067 63.1172 281.17 63.1172ZM281.585 110.655C269.013 110.655 258.831 101.128 258.831 89.3649C258.831 77.602 269.013 68.0751 281.585 68.0751C294.157 68.0751 304.34 77.602 304.34 89.3649C304.34 101.128 294.157 110.655 281.585 110.655Z" fill="#1242E0" fill-opacity="0.75"/>
<path d="M65.4686 70.1172C54.0393 70.1172 44.792 78.7692 44.792 89.4627C44.792 100.156 54.0393 108.808 65.4686 108.808C76.8978 108.808 86.249 100.156 86.249 89.4627C86.249 78.7692 76.8978 70.1172 65.4686 70.1172ZM72.2222 74.2974L65.4686 84.9909L59.8578 74.2974C64.8451 70.3116 72.2222 74.2974 72.2222 74.2974ZM67.8583 89.4627C67.8583 90.9209 66.6115 91.9903 65.0529 91.9903C63.4944 91.9903 62.2476 90.8237 62.2476 89.4627C62.2476 88.0045 63.4944 86.9352 65.0529 86.9352C66.6115 86.9352 67.8583 88.0045 67.8583 89.4627ZM53.2081 77.311L60.2734 87.8101L47.5974 87.5184C46.1427 81.5884 53.2081 77.311 53.2081 77.311ZM48.4286 92.9624L61.6242 92.6707L54.8705 102.781C48.7403 100.837 48.4286 92.9624 48.4286 92.9624ZM59.3383 105.406L65.7803 94.615L71.5988 105.211C66.7154 109.197 59.3383 105.406 59.3383 105.406ZM76.4822 102.878L69.4168 92.3791L82.0929 92.6707C83.5476 98.6008 76.4822 102.878 76.4822 102.878ZM69.9364 87.5184L78.1446 78.4776C83.9632 81.1023 83.1319 88.9766 83.1319 88.9766L69.9364 87.5184Z" fill="#1242E0" fill-opacity="0.75"/>
<path d="M65.0529 63.1172C49.1559 63.1172 36.272 75.1717 36.272 89.9481C36.272 104.822 49.1559 116.779 65.0529 116.779C80.95 116.779 93.8339 104.725 93.8339 89.9481C93.8339 75.1717 80.95 63.1172 65.0529 63.1172ZM65.4685 110.655C52.8963 110.655 42.7139 101.128 42.7139 89.3649C42.7139 77.602 52.8963 68.0751 65.4685 68.0751C78.0407 68.0751 88.2231 77.602 88.2231 89.3649C88.2231 101.128 78.0407 110.655 65.4685 110.655Z" fill="#1242E0" fill-opacity="0.75"/>
</svg>
