<svg width="58" height="96" viewBox="0 0 58 96" fill="none" xmlns="http://www.w3.org/2000/svg">
<path opacity="0.22" d="M40.8013 46.0769C40.2885 47.3077 40.2885 48.6923 40.8013 49.9231L57.1154 89.0769C58.4877 92.3704 56.0679 96 52.5 96L40 96L23.3333 96C21.3148 96 19.4943 94.7863 18.7179 92.9231L0.801277 49.9231C0.288456 48.6923 0.288456 47.3077 0.801278 46.0769L18.7179 3.07692C19.4943 1.21369 21.3148 4.24743e-06 23.3333 4.42389e-06L40 5.88094e-06L52.5 6.97372e-06C56.0679 7.28564e-06 58.4877 3.62965 57.1154 6.92309L40.8013 46.0769Z" fill="#C4C4C4"/>
</svg>
