<svg width="138" height="107" viewBox="0 0 138 107" fill="none" xmlns="http://www.w3.org/2000/svg">
<g opacity="0.79">
<path d="M124.932 43.0284L126.129 37.4361C126.242 36.4275 127.168 35.7125 128.176 35.863L133.626 36.6759C134.634 36.8265 135.319 37.7899 135.116 38.7984L134.86 40.0855C134.74 40.7027 134.296 41.2145 133.708 41.4252L130.389 42.6069C129.915 42.7725 129.531 43.1338 129.335 43.6004L128.613 45.2788" fill="#EED3F4"/>
<path d="M124.932 43.0284L126.129 37.4361C126.242 36.4275 127.168 35.7125 128.176 35.863L133.626 36.6759C134.634 36.8265 135.319 37.7899 135.116 38.7984L134.86 40.0855C134.74 40.7027 134.296 41.2145 133.708 41.4252L130.389 42.6069C129.915 42.7725 129.531 43.1338 129.335 43.6004L128.613 45.2788" stroke="white" stroke-miterlimit="10"/>
</g>
<path opacity="0.79" d="M136.365 57.3736C134.755 49.7943 130.291 46.3245 129.193 46.3245H125.949C122.464 41.1161 118.362 30.6391 113.326 24.7608C111.535 22.6759 108.984 21.3964 106.251 21.1555C94.525 20.1018 83.5362 19.7706 72.7957 20.1771L58.4951 92.41C61.0542 92.3874 77.9514 92.3573 80.5631 92.3196C104.814 92.41 135.47 93.7873 136.87 87.194C137.231 76.9804 137.75 63.8841 136.365 57.3736Z" fill="#EED3F4" stroke="white" stroke-miterlimit="10"/>
<path d="M106.74 62.0097L125.135 54.7314C126.972 55.1153 127.762 60.0904 125.745 62.4161C123.72 64.7418 113.815 66.0515 113.815 66.0515C110.451 66.8719 108.644 64.3279 106.74 62.0097Z" fill="white"/>
<path d="M74.3472 46.3323H128.968" stroke="white" stroke-width="2.34" stroke-linecap="round" stroke-linejoin="round"/>
<path opacity="0.79" d="M125.385 104.709H114.065C112.085 104.709 110.474 103.512 110.474 102.029V92.4177L128.967 91.4092V102.029C128.967 103.504 127.364 104.709 125.377 104.709H125.385Z" fill="#EED3F4" stroke="white" stroke-miterlimit="10"/>
<path d="M50.6611 8.17406L7.06445 61.4767C3.37213 65.991 4.03851 72.6439 8.55287 76.3362L37.8696 100.315C42.3839 104.007 49.0368 103.34 52.7291 98.8261L96.3257 45.5235C100.018 41.0092 99.3517 34.3564 94.8373 30.664L65.5206 6.68565C61.0062 2.99332 54.3534 3.65971 50.6611 8.17406Z" fill="url(#paint0_linear_0_7413)"/>
<path opacity="0.79" d="M69.8436 10.4219L12.8902 80.0549L21.7516 87.3028L78.705 17.6697L69.8436 10.4219Z" fill="white" stroke="white" stroke-miterlimit="10"/>
<defs>
<linearGradient id="paint0_linear_0_7413" x1="23.2112" y1="88.3254" x2="80.1789" y2="18.6748" gradientUnits="userSpaceOnUse">
<stop stop-color="#93278F" stop-opacity="0.7"/>
<stop offset="0.11" stop-color="#8D308B" stop-opacity="0.82"/>
<stop offset="0.26" stop-color="#883889" stop-opacity="0.92"/>
<stop offset="0.47" stop-color="#853C87" stop-opacity="0.98"/>
<stop offset="1" stop-color="#853E87"/>
</linearGradient>
</defs>
</svg>
