<svg width="116" height="108" viewBox="0 0 116 108" fill="none" xmlns="http://www.w3.org/2000/svg">
<g opacity="0.79">
<path d="M103.021 47.5036L104.177 42.1028C104.286 41.1287 105.18 40.4382 106.154 40.5836L111.417 41.3686C112.391 41.514 113.052 42.4444 112.856 43.4184L112.609 44.6614C112.492 45.2575 112.064 45.7518 111.497 45.9553L108.291 47.0965C107.833 47.2564 107.462 47.6053 107.273 48.056L106.575 49.677" fill="#D2F7D2"/>
<path d="M103.021 47.5036L104.177 42.1028C104.286 41.1287 105.18 40.4382 106.154 40.5836L111.417 41.3686C112.391 41.514 113.052 42.4444 112.856 43.4184L112.609 44.6614C112.492 45.2575 112.064 45.7518 111.497 45.9553L108.291 47.0965C107.833 47.2564 107.462 47.6053 107.273 48.056L106.575 49.677" stroke="white" stroke-miterlimit="10"/>
</g>
<path opacity="0.79" d="M114.064 61.3658C112.508 54.046 108.198 50.695 107.136 50.695H104.004C100.638 45.6649 96.6765 35.5466 91.8136 29.8696C90.0836 27.8561 87.6194 26.6204 84.9808 26.3878C73.6558 25.3701 63.0432 25.0503 52.6704 25.4428L49.036 95.2026C51.5074 95.1808 57.6497 95.1517 60.172 95.1154C83.5924 95.2026 113.199 96.5328 114.551 90.1653C114.9 80.3013 115.401 67.6534 114.064 61.3658Z" fill="#D2F7D2" stroke="white" stroke-miterlimit="10"/>
<path d="M85.4529 65.8364L103.218 58.8074C104.992 59.1781 105.755 63.9828 103.807 66.2289C101.852 68.475 92.2856 69.7398 92.2856 69.7398C89.0364 70.5321 87.2919 68.0752 85.4529 65.8364Z" fill="white"/>
<path d="M54.1689 50.6956H106.919" stroke="white" stroke-width="2.34" stroke-linecap="round" stroke-linejoin="round"/>
<path opacity="0.79" d="M103.459 107.079H92.5261C90.6144 107.079 89.0588 105.924 89.0588 104.492V95.2091L106.919 94.2351V104.492C106.919 105.916 105.37 107.079 103.451 107.079H103.459Z" fill="#D2F7D2" stroke="white" stroke-miterlimit="10"/>
<path d="M77.2563 7.03952L50.9573 10.5649C48.922 10.8412 47.0757 11.9097 45.8255 13.5452L1.76129 71.1805C-0.848253 74.5968 -0.186781 79.4816 3.23688 82.0766L30.9169 103.055C34.2679 105.592 39.029 105.003 41.6604 101.724L88.9374 42.7517C90.3694 40.9636 90.9436 38.6375 90.493 36.3841L85.8918 13.2181C85.0922 9.19839 81.3123 6.49435 77.249 7.03952H77.2563ZM75.8606 23.1547C73.1639 23.7508 70.816 21.4029 71.4121 18.7061C71.7101 17.3468 72.8077 16.2492 74.167 15.9512C76.8638 15.3552 79.2116 17.703 78.6156 20.3998C78.3175 21.7591 77.2199 22.8567 75.8606 23.1547Z" fill="url(#paint0_linear_0_7395)"/>
<path opacity="0.72" d="M76.1425 10.1428L52.6785 13.2902C51.4427 13.4574 50.3233 14.1043 49.5601 15.1002L12.4377 63.6565C10.8531 65.7282 11.2529 68.6939 13.3318 70.2713L38.2933 89.185C40.3286 90.726 43.2143 90.3698 44.8135 88.3781L84.6035 38.746C85.4758 37.6629 85.8175 36.2454 85.5485 34.8789L81.3834 13.8935C80.8964 11.4512 78.5994 9.80839 76.1353 10.1428H76.1425ZM73.533 23.4158C71.345 23.9028 69.4333 21.9911 69.9203 19.8032C70.1675 18.6983 71.0543 17.8115 72.1592 17.5643C74.3471 17.0773 76.2588 18.989 75.7718 21.177C75.5247 22.2819 74.6379 23.1687 73.533 23.4158Z" fill="#D2F9DF" stroke="white" stroke-miterlimit="10"/>
<path d="M75.0118 20.8935C67.6193 3.41175 91.1488 -6.0015 97.8726 10.8115" stroke="#009245" stroke-width="3" stroke-linecap="round" stroke-linejoin="round"/>
<path d="M29.695 60.5458C28.0159 59.2519 27.02 57.7036 26.7075 55.8937C26.3949 54.091 26.8311 52.4118 28.0159 50.8781C29.1862 49.3589 30.6472 48.5593 32.399 48.4794C34.1581 48.3921 35.9826 49.0827 37.8871 50.551C39.6607 51.9103 40.7147 53.4804 41.0563 55.2613C41.398 57.0421 40.9836 58.6849 39.8206 60.2041C37.1965 63.6132 33.8238 63.7296 29.695 60.553V60.5458ZM32.2391 57.5873C33.344 58.4378 34.3326 58.9175 35.2049 59.0266C36.0771 59.1356 36.7168 58.9175 37.1384 58.3724C38.2651 56.9113 37.6763 55.2976 35.3866 53.5385C33.1696 51.8376 31.5704 51.6341 30.5745 52.9279C29.4842 54.3454 30.0439 55.9009 32.2464 57.5946L32.2391 57.5873ZM52.9337 70.3951L50.4332 73.6516L37.0802 39.117L39.5735 35.8823L52.941 70.4024L52.9337 70.3951ZM51.7998 59.0556C50.1207 57.7618 49.1248 56.2135 48.8123 54.4035C48.4997 52.6008 48.9358 50.9217 50.1207 49.388C51.2837 47.8688 52.752 47.0692 54.5038 46.9892C56.2629 46.902 58.0874 47.5926 59.9773 49.0463C61.7509 50.4056 62.8049 51.983 63.1539 53.7639C63.5028 55.5447 63.0884 57.1948 61.9254 58.714C59.3013 62.1231 55.9285 62.2394 51.7998 59.0629V59.0556ZM54.3221 56.0826C55.427 56.9331 56.4156 57.4129 57.2806 57.5292C58.1456 57.6382 58.7925 57.4201 59.2141 56.8677C60.3408 55.4066 59.752 53.7929 57.4623 52.0339C55.2525 50.3329 53.6461 50.1294 52.6503 51.4233C51.5599 52.8407 52.1196 54.3963 54.3221 56.0899V56.0826Z" fill="#009245"/>
<defs>
<linearGradient id="paint0_linear_0_7395" x1="0.162127" y1="55.7994" x2="90.6456" y2="55.7994" gradientUnits="userSpaceOnUse">
<stop stop-color="#51B649"/>
<stop offset="1" stop-color="#A1CE57" stop-opacity="0.5"/>
</linearGradient>
</defs>
</svg>
