<svg width="136" height="96" viewBox="0 0 136 96" fill="none" xmlns="http://www.w3.org/2000/svg">
<g opacity="0.79">
<path d="M122.24 33.0661L123.45 27.4135C123.564 26.3941 124.5 25.6713 125.519 25.8235L131.027 26.6451C132.047 26.7973 132.739 27.7711 132.534 28.7905L132.275 30.0914C132.153 30.7153 131.704 31.2326 131.111 31.4456L127.756 32.64C127.277 32.8074 126.889 33.1726 126.691 33.6443L125.961 35.3408" fill="#D1EBFB"/>
<path d="M122.24 33.0661L123.45 27.4135C123.564 26.3941 124.5 25.6713 125.519 25.8235L131.027 26.6451C132.047 26.7973 132.739 27.7711 132.534 28.7905L132.275 30.0914C132.153 30.7153 131.704 31.2326 131.111 31.4456L127.756 32.64C127.277 32.8074 126.889 33.1726 126.691 33.6443L125.961 35.3408" stroke="white" stroke-miterlimit="10"/>
</g>
<path opacity="0.79" d="M133.803 47.5661C132.175 39.9051 127.663 36.3979 126.553 36.3979H123.274C119.751 31.1333 115.605 20.5433 110.516 14.6016C108.705 12.4942 106.126 11.2009 103.364 10.9574C91.5113 9.89236 69.753 9.55762 58.8967 9.96844L69.5476 82.9803C72.1342 82.9575 74.7589 82.9271 77.3988 82.8891C101.911 82.9803 132.898 84.3726 134.313 77.7082C134.678 67.3844 135.203 54.1468 133.803 47.5661Z" fill="#D1EBFB" stroke="white" stroke-miterlimit="10"/>
<path d="M103.858 52.2456L122.451 44.8889C124.307 45.2769 125.106 50.3057 123.067 52.6565C121.021 55.0073 111.009 56.331 111.009 56.331C107.608 57.1603 105.782 54.5888 103.858 52.2456Z" fill="white"/>
<path d="M71.1145 36.406H126.324" stroke="white" stroke-width="2.34" stroke-linecap="round" stroke-linejoin="round"/>
<path opacity="0.79" d="M122.705 95.4115H111.263C109.262 95.4115 107.634 94.2018 107.634 92.7031V83.7487L126.326 81.9685V92.7031C126.326 94.1942 124.706 95.4115 122.697 95.4115H122.705Z" fill="#D1EBFB" stroke="white" stroke-miterlimit="10"/>
<path d="M56.4932 4.30894L65.516 22.8035C66.6191 25.0706 68.7721 26.653 71.2675 27.0258L91.6183 30.0765C97.9023 31.0199 100.375 38.757 95.8102 43.1771L81.013 57.4721C79.1948 59.2219 78.3579 61.7629 78.7764 64.2507L82.1618 84.5482C83.2041 90.8171 76.6081 95.5643 71.0012 92.5821L52.8338 82.9202C50.6047 81.7334 47.9344 81.7258 45.6977 82.8898L27.439 92.3767C21.8017 95.3057 15.2514 90.4975 16.3545 84.2439L19.9225 63.9844C20.3638 61.4967 19.5498 58.9557 17.7467 57.1907L3.07129 42.7435C-1.45534 38.2853 1.08566 30.571 7.3773 29.6885L27.7509 26.8204C30.2463 26.4704 32.4145 24.9108 33.5405 22.6513L42.7307 4.24047C45.5684 -1.44255 53.6935 -1.40451 56.4779 4.30133L56.4932 4.30894Z" fill="url(#paint0_linear_0_7380)"/>
<path opacity="0.79" d="M50.4164 13.1106L59.949 32.655C60.1924 33.1571 60.6717 33.5071 61.2195 33.5908L82.7191 36.8165C84.1113 37.0219 84.6591 38.7412 83.6472 39.715L68.0056 54.8241C67.6024 55.2121 67.4198 55.7751 67.5111 56.3228L71.0868 77.7692C71.315 79.1538 69.8543 80.2113 68.6142 79.5494L49.4122 69.3397C48.9177 69.0811 48.3243 69.0735 47.8298 69.3397L28.5364 79.3668C27.2888 80.0135 25.8357 78.9484 26.0791 77.5637L29.8526 56.1478C29.9515 55.6001 29.7689 55.0371 29.3733 54.6415L13.8762 39.3955C12.872 38.4065 13.435 36.7023 14.8272 36.5045L36.3572 33.4766C36.9126 33.4006 37.3919 33.0506 37.6429 32.5561L47.3581 13.103C47.9895 11.8477 49.785 11.8553 50.4012 13.1182L50.4164 13.1106Z" fill="#D1EBFB" stroke="white" stroke-miterlimit="10"/>
<defs>
<linearGradient id="paint0_linear_0_7380" x1="0.773738" y1="46.7452" x2="98.1534" y2="46.7452" gradientUnits="userSpaceOnUse">
<stop stop-color="#6CF6FE"/>
<stop offset="1" stop-color="#335AF9"/>
</linearGradient>
</defs>
</svg>
