<svg width="80" height="74" viewBox="0 0 80 74" fill="none" xmlns="http://www.w3.org/2000/svg">
<path d="M42.739 31.0659C45.0424 33.3694 45.1806 37.101 46.3587 39.9375C47.5762 42.8794 50.0705 45.6369 50.0705 48.7696C50.0705 51.9023 47.5762 54.6599 46.3587 57.6017C45.1872 60.4383 45.049 64.1633 42.739 66.4733C40.4289 68.7834 36.7039 68.915 33.8674 70.093C30.9255 71.3106 28.168 73.8049 25.0353 73.8049C21.9026 73.8049 19.145 71.3106 16.2032 70.093C13.3666 68.9216 9.6416 68.7834 7.33157 66.4733C5.02811 64.1699 4.88991 60.4383 3.71185 57.6017C2.5338 54.7652 0 51.9023 0 48.7696C0 45.6369 2.49431 42.8794 3.71185 39.9375C4.88332 37.101 5.02153 33.376 7.33157 31.0659C9.63502 28.7625 13.3666 28.6243 16.2032 27.4462C19.145 26.2287 21.9026 23.7344 25.0353 23.7344C28.168 23.7344 30.9255 26.2287 33.8674 27.4462C36.7039 28.6177 40.4289 28.7559 42.739 31.0659Z" fill="url(#paint0_linear_9_119)"/>
<path d="M79.9957 15.6268C80.0681 17.7394 78.4886 19.5625 77.7975 21.425C77.0736 23.3533 77.0407 25.762 75.6586 27.2428C74.2765 28.7236 71.8744 28.9277 70.0053 29.7832C68.1954 30.6059 66.4909 32.3104 64.3783 32.3894C62.2657 32.4684 60.4426 30.8823 58.5801 30.1913C56.7176 29.5002 54.2431 29.4344 52.7623 28.0523C51.2815 26.6703 51.0775 24.2681 50.2219 22.399C49.3992 20.5891 47.6947 18.8846 47.6157 16.772C47.5433 14.6594 49.1228 12.8364 49.8138 10.9739C50.5378 9.04555 50.5707 6.63679 51.9528 5.156C53.3348 3.67521 55.737 3.47119 57.6061 2.61562C59.4094 1.78638 61.1205 0.0818201 63.2265 0.00284452C65.3325 -0.0761311 67.1621 1.50996 69.0247 2.201C70.8872 2.89203 73.3617 2.95785 74.8425 4.33992C76.3233 5.72199 76.5273 8.12417 77.3829 9.99326C78.2056 11.8031 79.9101 13.5077 79.9891 15.6203L79.9957 15.6268Z" fill="url(#paint1_linear_9_119)"/>
<g filter="url(#filter0_b_9_119)">
<path d="M73.6166 60.1427L67.5091 54.0353C76.4597 41.8336 75.4264 24.5906 64.3896 13.5603C52.2076 1.37833 32.4571 1.37833 20.2752 13.5603C8.09318 25.7423 8.09318 45.4928 20.2752 57.6682C30.9895 68.3825 47.5678 69.6659 59.6906 61.5248L65.9625 67.7968C68.0751 69.9094 71.504 69.9094 73.6166 67.7968C75.7292 65.6842 75.7292 62.2553 73.6166 60.1427Z" fill="url(#paint2_linear_9_119)"/>
<path d="M66.7028 53.4438L66.1953 54.1357L66.802 54.7424L72.9095 60.8499C74.6316 62.5719 74.6316 65.3676 72.9095 67.0897C71.1874 68.8118 68.3917 68.8118 66.6696 67.0897L60.3977 60.8177L59.816 60.236L59.1331 60.6946C47.3992 68.5745 31.352 67.3308 20.9823 56.9611L20.9821 56.9609C9.19098 45.1762 9.1907 26.059 20.9823 14.2674C32.7737 2.47596 51.891 2.47596 63.6825 14.2674L63.6827 14.2676C74.3646 24.9432 75.3661 41.6337 66.7028 53.4438Z" stroke="url(#paint3_linear_9_119)" stroke-width="2"/>
</g>
<defs>
<filter id="filter0_b_9_119" x="-6.86133" y="-13.5762" width="100.062" height="100.958" filterUnits="userSpaceOnUse" color-interpolation-filters="sRGB">
<feFlood flood-opacity="0" result="BackgroundImageFix"/>
<feGaussianBlur in="BackgroundImageFix" stdDeviation="9"/>
<feComposite in2="SourceAlpha" operator="in" result="effect1_backgroundBlur_9_119"/>
<feBlend mode="normal" in="SourceGraphic" in2="effect1_backgroundBlur_9_119" result="shape"/>
</filter>
<linearGradient id="paint0_linear_9_119" x1="50" y1="-1.19434" x2="-4.49999" y2="111.806" gradientUnits="userSpaceOnUse">
<stop stop-color="#103999"/>
<stop offset="0.576744" stop-color="#00A2FF"/>
</linearGradient>
<linearGradient id="paint1_linear_9_119" x1="86.5" y1="1.30566" x2="44" y2="34.3057" gradientUnits="userSpaceOnUse">
<stop stop-color="#A400BF"/>
<stop offset="1" stop-color="#2400FF"/>
</linearGradient>
<linearGradient id="paint2_linear_9_119" x1="14.7554" y1="65.714" x2="72.3728" y2="8.89051" gradientUnits="userSpaceOnUse">
<stop stop-color="white" stop-opacity="0.2"/>
<stop offset="1" stop-color="white" stop-opacity="0.49"/>
</linearGradient>
<linearGradient id="paint3_linear_9_119" x1="15.6608" y1="9.53261" x2="70.0042" y2="66.8376" gradientUnits="userSpaceOnUse">
<stop stop-color="white" stop-opacity="0.66"/>
<stop offset="0.479543" stop-color="white" stop-opacity="0.66"/>
<stop offset="1" stop-color="white" stop-opacity="0.66"/>
</linearGradient>
</defs>
</svg>
