<svg width="93" height="121" viewBox="0 0 93 121" fill="none" xmlns="http://www.w3.org/2000/svg">
<g opacity="0.79">
<path d="M79.8475 52.4945L81.0563 46.8459C81.1703 45.8272 82.1054 45.105 83.1241 45.257L88.6283 46.0781C89.647 46.2302 90.3388 47.2033 90.1335 48.222L89.875 49.522C89.7534 50.1454 89.3049 50.6623 88.7119 50.8752L85.3592 52.0688C84.8803 52.236 84.4926 52.6009 84.2949 53.0723L83.5651 54.7676" fill="#F9E5D2"/>
<path d="M79.8475 52.4945L81.0563 46.8459C81.1703 45.8272 82.1054 45.105 83.1241 45.257L88.6282 46.0781C89.647 46.2302 90.3388 47.2033 90.1335 48.222L89.875 49.522C89.7534 50.1454 89.3049 50.6623 88.7119 50.8752L85.3592 52.0688C84.8803 52.236 84.4926 52.6009 84.2949 53.0723L83.5651 54.7676" stroke="white" stroke-miterlimit="10"/>
</g>
<path opacity="0.79" d="M91.396 66.9846C89.7691 59.329 85.2609 55.8243 84.151 55.8243H80.8743C77.3544 50.5634 73.2112 39.9809 68.1252 34.0435C66.3158 31.9376 63.7386 30.6452 60.9789 30.4019C49.1344 29.3376 38.035 29.0031 27.1864 29.4136V102.374C29.7712 102.351 32.394 102.32 35.032 102.282C59.5269 102.374 90.4914 103.765 91.9054 97.1052C92.2703 86.7888 92.7949 73.5606 91.396 66.9846Z" fill="#F9E5D2" stroke="white" stroke-miterlimit="10"/>
<path d="M61.4727 71.6608L80.0529 64.3093C81.9079 64.697 82.7062 69.7222 80.6687 72.0714C78.6237 74.4205 68.619 75.7433 68.619 75.7433C65.2207 76.572 63.3961 74.0024 61.4727 71.6608Z" fill="white"/>
<path d="M28.7531 55.832H83.9235" stroke="white" stroke-width="2.34" stroke-linecap="round" stroke-linejoin="round"/>
<path opacity="0.79" d="M80.3041 114.796H68.8702C66.8707 114.796 65.2438 113.587 65.2438 112.089V103.141L83.9229 101.362V112.089C83.9229 113.579 82.3036 114.796 80.2965 114.796H80.3041Z" fill="#F9E5D2" stroke="white" stroke-miterlimit="10"/>
<path d="M22.9303 100.754C24.4964 92.0952 24.0935 77.4454 24.0935 77.4454L25.7812 77.3466C25.9332 68.5582 26.6707 60.4161 26.6707 60.4161L34.5923 60.4009C34.5923 60.4009 33.8853 68.4594 33.4596 77.5062L34.8888 77.5366C34.8888 77.5366 34.4935 94.6192 36.3029 103.917C37.5497 110.318 39.6403 121.053 27.8262 120.467C15.9817 119.874 21.8051 106.973 22.9303 100.762V100.754Z" fill="url(#paint0_linear_0_7362)"/>
<path d="M31.5672 62.9781C48.9581 62.9781 63.0562 48.88 63.0562 31.489C63.0562 14.0981 48.9581 0 31.5672 0C14.1762 0 0.078125 14.0981 0.078125 31.489C0.078125 48.88 14.1762 62.9781 31.5672 62.9781Z" fill="url(#paint1_linear_0_7362)"/>
<path d="M31.5666 55.0559C44.5825 55.0559 55.134 44.5044 55.134 31.4885C55.134 18.4726 44.5825 7.92114 31.5666 7.92114C18.5507 7.92114 7.99927 18.4726 7.99927 31.4885C7.99927 44.5044 18.5507 55.0559 31.5666 55.0559Z" fill="url(#paint2_linear_0_7362)" stroke="white" stroke-miterlimit="10"/>
<defs>
<linearGradient id="paint0_linear_0_7362" x1="28.7175" y1="120.487" x2="30.1045" y2="60.2919" gradientUnits="userSpaceOnUse">
<stop stop-color="#FAAA40"/>
<stop offset="0.34" stop-color="#F9AC40"/>
<stop offset="0.55" stop-color="#F9B540"/>
<stop offset="0.73" stop-color="#F8C341"/>
<stop offset="0.88" stop-color="#F7D842"/>
<stop offset="1" stop-color="#F6ED44"/>
</linearGradient>
<linearGradient id="paint1_linear_0_7362" x1="30.8418" y1="62.9704" x2="32.2928" y2="0.00143709" gradientUnits="userSpaceOnUse">
<stop stop-color="#FAAA40"/>
<stop offset="1" stop-color="#F6ED44" stop-opacity="0.1"/>
</linearGradient>
<linearGradient id="paint2_linear_0_7362" x1="8.00557" y1="30.9463" x2="55.1278" y2="32.0321" gradientUnits="userSpaceOnUse">
<stop stop-color="#FAAA40"/>
<stop offset="1" stop-color="#F6ED44" stop-opacity="0.1"/>
</linearGradient>
</defs>
</svg>
