<svg width="281" height="192" viewBox="0 0 281 192" fill="none" xmlns="http://www.w3.org/2000/svg">
<path d="M139.319 105.24C139.487 105.23 139.656 105.219 139.824 105.209C141.293 105.218 142.705 105.51 144.006 106.062L139.125 65.6113L135.656 106.203C136.787 105.66 138.008 105.339 139.319 105.24Z" fill="black"/>
<path fill-rule="evenodd" clip-rule="evenodd" d="M149.221 118.128C148.26 120.672 146.394 122.594 143.907 123.725C141.42 124.799 138.763 124.912 136.219 123.894C133.675 122.933 131.753 121.124 130.623 118.637C129.718 116.602 129.492 114.454 130.001 112.362C130.076 111.872 130.208 111.382 130.397 110.893C130.849 109.724 131.471 108.707 132.262 107.84C133.091 106.898 134.09 106.125 135.258 105.522C135.409 105.447 135.56 105.372 135.71 105.296C137.067 104.731 138.48 104.448 139.893 104.448C141.099 104.448 142.268 104.674 143.398 105.127C145.207 105.805 146.677 106.879 147.807 108.349C148.26 108.989 148.655 109.687 148.995 110.44C150.125 112.928 150.182 115.584 149.221 118.128ZM143.794 113.154C143.756 113.041 143.7 112.928 143.624 112.814C143.172 111.797 142.381 111.006 141.307 110.61C141.005 110.497 140.685 110.403 140.346 110.327C139.554 110.271 138.819 110.384 138.085 110.666C137.067 111.175 136.332 111.967 135.88 113.041C135.484 114.058 135.541 115.189 135.993 116.206C136.031 116.319 136.087 116.432 136.163 116.545C136.238 116.658 136.313 116.79 136.389 116.941C136.841 117.619 137.519 118.128 138.311 118.411C139.385 118.863 140.459 118.807 141.533 118.354C142.55 117.902 143.342 117.054 143.737 116.037C144.077 115.076 144.133 114.115 143.794 113.154Z" fill="black"/>
<path d="M280.721 156.116C280.721 156.305 280.721 156.493 280.721 156.682H194.515C186.771 156.682 179.874 161.204 176.539 168.157C174.617 172.283 171.96 176.071 168.568 179.463C160.937 187.094 151.158 191.164 140.361 191.164C129.507 191.164 119.784 187.094 112.096 179.463C108.761 176.071 106.048 172.283 104.126 168.157C100.847 161.204 93.8941 156.682 86.2062 156.682H0C0 156.493 0 156.305 0 156.116C0 152.668 0.113061 149.22 0.339175 145.771H280.382C280.608 149.22 280.721 152.668 280.721 156.116Z" fill="#1242E0"/>
<path d="M67.6338 70.7014L41.1218 44.1895C19.754 67.2531 6.24363 97.7221 5 131.357H42.535C43.7221 108.067 52.9928 86.9251 67.6338 70.7014Z" fill="#258574"/>
<path d="M205.593 63.4659L232.105 36.954C209.041 15.5861 178.572 2.1323 144.938 0.888672V38.3672C168.227 39.5543 189.369 48.825 205.593 63.4659Z" fill="#EB6E02"/>
<path d="M145.496 38.3672V0.888672C108.05 2.1323 74.0089 15.5861 48.3516 36.954L77.9174 63.4659C96.0099 48.825 119.587 39.5543 145.496 38.3672Z" fill="#EB6E02"/>
<path d="M238.692 131.357H276.171C274.927 97.7221 261.474 67.2531 240.106 44.1895L213.594 70.7014C228.178 86.9251 237.505 108.067 238.692 131.357Z" fill="#D90201"/>
<path d="M140.401 61.8262C179.915 61.8262 212.193 92.5213 214.85 131.356H221.746C219.146 88.6773 183.702 54.9297 140.401 54.9297C97.0438 54.9297 61.6568 88.6773 59 131.356H65.953C68.5534 92.5213 100.888 61.8262 140.401 61.8262Z" fill="#1242E0"/>
</svg>
