<svg width="101" height="100" viewBox="0 0 101 100" fill="none" xmlns="http://www.w3.org/2000/svg">
<rect x="0.5" width="100" height="100" rx="8" fill="#FAFAFA"/>
<path d="M73.3497 40.8532L70.0697 45.7866C71.6515 48.9414 72.4259 52.4395 72.3235 55.9672C72.2212 59.4949 71.2452 62.9421 69.4831 65.9999H32.5231C30.2328 62.0269 29.2838 57.4216 29.8168 52.8668C30.3497 48.312 32.3362 44.0501 35.4817 40.7131C38.6272 37.376 42.7643 35.1414 47.2797 34.3404C51.7951 33.5395 56.4484 34.2149 60.5497 36.2666L65.4831 32.9866C60.4604 29.7658 54.5026 28.3226 48.5628 28.8877C42.6229 29.4529 37.0442 31.9938 32.719 36.1039C28.3938 40.2141 25.572 45.6561 24.705 51.5594C23.8379 57.4627 24.9757 63.4863 27.9364 68.6666C28.4018 69.4727 29.07 70.1429 29.8746 70.6107C30.6793 71.0785 31.5923 71.3276 32.5231 71.3333H69.4564C70.3962 71.337 71.3203 71.0923 72.1351 70.624C72.9499 70.1557 73.6265 69.4805 74.0964 68.6666C76.5534 64.4104 77.7864 59.558 77.6594 54.6451C77.5323 49.7323 76.0501 44.9501 73.3764 40.8266L73.3497 40.8532ZM47.2431 59.0933C47.7384 59.5891 48.3266 59.9825 48.974 60.2509C49.6215 60.5193 50.3155 60.6574 51.0164 60.6574C51.7173 60.6574 52.4113 60.5193 53.0587 60.2509C53.7062 59.9825 54.2944 59.5891 54.7897 59.0933L69.8831 36.4533L47.2431 51.5466C46.7472 52.0419 46.3538 52.6301 46.0854 53.2776C45.817 53.925 45.6789 54.619 45.6789 55.3199C45.6789 56.0208 45.817 56.7148 46.0854 57.3623C46.3538 58.0097 46.7472 58.5979 47.2431 59.0933Z" fill="#1242E0"/>
</svg>
