<svg width="30" height="69" fill="none" xmlns="http://www.w3.org/2000/svg"><path d="M6.976 33.23c-3.498-3.903-4.87-8.372-5.345-13.197a16.55 16.55 0 0 1 .54-6.089C3.444 9.362 5.978 5.476 9.525 2.302 11.65.408 14.136-.548 17.06.327c.409.13.834.259 1.193.47.932.534 1.177 1.57.54 2.493-.295.42-.769.729-1.177 1.117-1.128 0-1.684-1.376-2.959-.988-1.193.357-2.223.907-3.073 1.765-3.122 3.142-5.557 6.72-6.244 11.14-.686 4.421.425 8.566 2.648 12.42.098.178.31.291.49.421.082.049.18.065.393.13.588-.713 1.21-1.458 1.847-2.186 1.586-1.798 3.383-3.368 5.59-4.405 4.135-1.943 7.928-1.036 10.739 2.559a14.318 14.318 0 0 1 2.68 5.505c.67 2.688.082 5.181-1.569 7.351-1.781 2.348-4.217 3.32-7.191 2.77-2.6-.487-5.002-1.49-7.258-2.835-1.03-.615-2.043-1.214-3.253-1.943-1.536 2.947-1.487 6.105-1.814 9.133-.408 3.66.817 9.084 2.615 12.662.9-.696 1.063-1.83 1.7-2.59.621-.73 1.275-1.458 2.027-2.04.572-.438 1.259-.195 1.765.307.507.486.736 1.085.376 1.749-.408.76-.931 1.457-1.29 2.25-1.325 2.85-2.534 5.732-2.845 8.906-.033.324-.065.648-.147.955-.213.794-.703 1.36-1.52 1.522-.834.162-1.488-.259-1.929-.955-.883-1.36-1.667-2.785-2.599-4.113-1.438-2.04-3.024-3.967-5.214-5.295a3.909 3.909 0 0 1-.768-.599c-.817-.745-1.03-1.57-.589-2.283.442-.728 1.308-1.085 2.289-.793.719.21 1.389.599 2.06.955.539.275 1.062.6 2.01 1.15-.997-4.275-2.125-8.112-1.766-12.128.344-3.935.997-7.756 2.158-11.675Zm4.61-.843c2.451 1.96 4.789 3.498 7.502 4.42.915.308 1.88.584 2.844.68 2.174.227 3.465-.614 4.38-2.606.621-1.344.703-2.753.164-4.08-.49-1.183-1.079-2.38-1.847-3.385-1.896-2.477-4.152-2.947-6.882-1.473-2.647 1.409-4.642 3.497-6.162 6.444Z" fill="#33557C" fill-opacity=".7"/></svg>