<svg width="101" height="100" viewBox="0 0 101 100" fill="none" xmlns="http://www.w3.org/2000/svg">
<rect x="0.5" width="100" height="100" rx="8" fill="#FAFAFA"/>
<path d="M68.5915 8.43644C68.02 8.6705 67.2467 9.30582 66.8432 9.80739C66.1371 10.6768 66.1035 11.078 66.1035 17.565V24.4197L67.2467 25.5566C68.3562 26.6601 68.4907 26.6935 70.9114 26.6935C72.3235 26.6935 73.5339 26.7938 73.6348 26.961C73.702 27.0948 73.5003 28.8335 73.1305 30.8398C72.7606 32.8461 72.5253 34.518 72.5925 34.6183C72.6598 34.6852 75.6521 32.913 79.2496 30.7061L85.7386 26.6935H88.2266C90.6138 26.6935 90.7483 26.6601 91.8578 25.5566L93.0009 24.4197V17.6653C93.0009 10.4427 92.8664 9.70707 91.1853 8.60362C90.1431 7.90143 70.1045 7.76768 68.5915 8.43644ZM90.2439 11.0446C90.5129 11.3121 90.6474 13.2515 90.6474 17.4981C90.6474 21.7447 90.5129 23.6841 90.2439 23.9516C90.0086 24.1857 88.8318 24.3529 87.2852 24.3529H84.7636L80.4264 27.0279C78.0392 28.5326 76.0556 29.6695 75.9547 29.5692C75.8874 29.5023 75.9547 28.566 76.1564 27.496C76.7952 24.1188 77.0306 24.3529 72.8951 24.3529C70.508 24.3529 69.1295 24.2191 68.8605 23.9516C68.5915 23.6841 68.457 21.7447 68.457 17.4981C68.457 13.2515 68.5915 11.3121 68.8605 11.0446C69.4321 10.4761 89.6724 10.4761 90.2439 11.0446Z" fill="#1242E0"/>
<path d="M71.4824 14.8233V15.9937H79.5516H87.6209V14.8233V13.653H79.5516H71.4824V14.8233Z" fill="#1242E0"/>
<path d="M71.4824 20.1734V21.3438H76.8619H82.2414V20.1734V19.0031H76.8619H71.4824V20.1734Z" fill="#1242E0"/>
<path d="M85.2676 20.1734C85.2676 21.2769 85.3348 21.3438 86.4443 21.3438C87.5539 21.3438 87.6211 21.2769 87.6211 20.1734C87.6211 19.07 87.5539 19.0031 86.4443 19.0031C85.3348 19.0031 85.2676 19.07 85.2676 20.1734Z" fill="#1242E0"/>
<path d="M43.9119 12.8172C30.2614 15.2916 18.5611 25.6239 14.6609 38.6312C14.1902 40.1694 13.7532 41.4066 13.6523 41.4066C13.5514 41.4066 12.9462 40.5372 12.341 39.4672C11.7022 38.4306 11.1643 37.5278 11.097 37.4609C11.0298 37.3272 10.2565 37.7284 9.31508 38.3303C8.97886 38.5644 9.38232 39.4338 11.1643 42.3763C12.4083 44.416 13.5514 46.0879 13.7195 46.0879C13.9213 46.0879 15.6696 45.1182 17.6869 43.9144L21.318 41.7075L20.7801 40.7378C20.4775 40.1694 20.1077 39.7347 19.9396 39.7347C19.8051 39.7347 18.9981 40.1694 18.124 40.7044C17.2498 41.2728 16.4765 41.6407 16.4093 41.5738C16.1403 41.3063 17.7878 36.8256 19.099 34.1506C24.0078 24.2864 33.7581 17.0973 44.8869 15.1579C49.5603 14.3219 54.2674 14.556 60.252 15.8266C61.2271 16.0273 61.3279 15.9604 61.6978 14.9572C61.8995 14.3554 62.034 13.8538 61.9668 13.7869C61.9331 13.7535 60.3529 13.3857 58.4701 13.0178C54.4691 12.1819 47.8792 12.115 43.9119 12.8172Z" fill="#1242E0"/>
<path d="M46.8373 22.2132C39.8104 23.8851 34.3973 29.8371 33.4559 36.9593C33.2541 38.4641 33.1533 42.0753 33.2205 44.9844C33.355 51.137 33.6912 52.1401 36.112 53.277C37.0534 53.7117 37.5913 54.2133 37.7258 54.7817C38.4319 57.4233 40.7518 60.834 42.87 62.3052C44.114 63.1412 44.6855 64.1443 43.9795 64.1443C42.7355 64.1443 33.6912 65.9834 32.6153 66.4515C30.1946 67.5216 28.4798 69.6616 27.3031 72.9719C27.1014 73.5404 26.6979 73.2729 24.4116 70.9991C22.9323 69.5278 21.7219 68.1569 21.7219 67.8894C21.7219 67.6553 22.9995 66.1506 24.5797 64.5121L27.4376 61.5696L22.4615 56.6542L17.5191 51.7389L13.7871 55.5508C10.6939 58.694 9.95425 59.6637 9.44993 61.1349C8.74387 63.2749 8.87836 66.7525 9.78615 68.4913C10.0887 69.1266 15.0648 74.3429 20.8141 80.0942C32.4808 91.764 32.8507 92.0315 36.8853 91.9981C39.8776 91.9981 41.357 91.1621 46.0976 86.9155L49.9978 83.438L48.8883 82.3011L47.8124 81.1976H62.4714H77.1305L75.315 75.7138C72.5243 67.4212 71.5493 66.5853 62.9085 65.0137C60.3533 64.5456 58.1342 64.1443 57.9661 64.1443C57.8316 64.1443 57.6972 63.8434 57.6972 63.4756C57.6972 63.1078 57.8316 62.8068 57.9997 62.8068C58.1679 62.8068 59.1429 62.0377 60.1515 61.1349C61.8662 59.5968 62.1016 59.463 63.7154 59.463C64.6905 59.463 65.9009 59.229 66.4388 58.9615C68.3553 57.9583 68.4561 57.4233 68.4561 46.9907C68.4561 41.7744 68.3216 36.6584 68.1199 35.6887C67.9518 34.6856 67.2457 32.7462 66.5397 31.3752C63.043 24.2195 54.6712 20.3073 46.8373 22.2132ZM55.848 25.022C58.1679 25.8245 59.8826 26.928 61.7654 28.9008C64.8922 32.1777 66.1026 35.5215 66.1026 41.0388C66.1026 43.7472 66.0353 44.1151 65.5646 43.9479C65.262 43.8475 64.8922 43.7472 64.7241 43.7472C64.556 43.7472 64.4215 43.3794 64.4215 42.9113C64.4215 42.1422 64.287 42.0753 62.8413 42.0753C59.3782 42.0753 55.5117 40.4369 52.6203 37.7953L50.8047 36.1234L48.8546 37.929C47.7787 38.9322 46.2994 40.0356 45.5933 40.4034C43.7777 41.3397 40.7182 42.0753 38.8017 42.0753C37.2887 42.0753 37.1879 42.1422 37.1879 42.9113C37.1879 43.3794 37.1206 43.7472 37.0534 43.7472C36.9861 43.7472 36.6499 43.8475 36.3473 43.9479C35.8094 44.1485 35.7758 43.7807 35.9103 39.7013C36.0111 35.4212 36.0784 35.1203 37.1543 32.8799C40.5837 25.858 48.5184 22.5142 55.848 25.022ZM52.5194 40.9385C54.7721 42.6103 56.3187 43.346 59.311 44.0482L61.8999 44.6501L61.8662 49.1307C61.8326 52.7086 61.6981 53.9458 61.1938 55.2833L60.5214 56.9552L55.7471 57.0555L50.9728 57.1558V58.2927V59.463H54.5703C58.067 59.463 58.1342 59.463 57.5627 60.0983C56.3523 61.4024 53.6625 62.2718 50.8047 62.3052C48.552 62.3052 47.8124 62.1715 46.2321 61.369C43.7441 60.1652 41.5251 57.7577 40.5837 55.3502C39.9785 53.7452 39.8776 52.7086 39.8776 48.9635V44.5497L41.9285 44.1485C44.2821 43.7138 47.5098 42.276 49.4598 40.8047C50.1995 40.2363 50.8383 39.7681 50.8719 39.7681C50.9392 39.7347 51.6789 40.2697 52.5194 40.9385ZM37.1879 48.8298C37.1879 51.1704 37.1879 51.2039 36.5154 50.602C35.6749 49.8664 35.6077 47.8935 36.4146 47.0241C36.7172 46.6898 37.0198 46.4223 37.087 46.4223C37.1206 46.4223 37.1879 47.4923 37.1879 48.8298ZM65.6655 47.5926C66.2035 48.696 66.2035 48.8298 65.6655 49.9332C64.7913 51.7389 64.4215 51.3711 64.4215 48.7629C64.4215 46.1548 64.7913 45.7869 65.6655 47.5926ZM66.1026 54.7483C66.1026 55.7514 65.9009 56.2196 65.3629 56.5874C64.6232 57.1224 63.4128 57.323 63.4128 56.9218C63.4128 55.9521 64.3206 53.9792 64.8922 53.7786C66.0353 53.3105 66.1026 53.3773 66.1026 54.7483ZM20.9822 58.5602L24.109 61.6699L23.2348 62.4724L22.3607 63.2749L19.2002 60.1318L16.0062 56.9886L16.7458 56.2196C17.1493 55.7849 17.5528 55.4505 17.6536 55.4505C17.7881 55.4505 19.2675 56.8549 20.9822 58.5602ZM17.5191 61.8037L20.5115 64.7796L19.9399 65.9834C19.2339 67.4212 19.2002 68.5581 19.8391 69.7619C20.108 70.2635 22.7978 73.1057 25.8237 76.0816C31.2032 81.3983 31.3713 81.532 32.7834 81.532C33.5567 81.532 34.6662 81.298 35.2378 80.997L36.2801 80.462L39.306 83.4714C41.357 85.5111 42.2648 86.648 42.1303 87.0158C42.0294 87.2833 41.2897 87.9187 40.5501 88.4202C38.5664 89.7243 35.7758 89.9249 33.7248 88.8883C31.5058 87.7849 12.913 69.1934 12.0052 67.1537C11.1646 65.3481 11.131 63.5424 11.8371 61.8706C12.3078 60.7337 13.8544 58.7943 14.3251 58.7943C14.4259 58.7943 15.8717 60.1318 17.5191 61.8037ZM53.091 66.5519C52.0151 67.6219 51.04 68.4913 50.8383 68.4913C50.5357 68.4913 46.9382 65.114 46.9382 64.8131C46.9382 64.7128 48.7538 64.6459 50.9728 64.6459H54.9738L53.091 66.5519ZM47.9805 69.3606L50.9056 72.2697L53.7298 69.2938L56.5876 66.3512L61.7654 67.2541C67.6492 68.2906 69.4984 69.0263 70.6752 70.7985C71.4485 71.9688 73.4994 77.486 73.4994 78.4223C73.4994 78.7567 70.8096 78.857 59.4791 78.857H45.4252L42.7355 76.182L40.0457 73.5069L36.8517 76.3491C35.1033 77.9207 33.4222 79.1914 33.1533 79.1914C32.8507 79.1914 31.8084 78.3889 30.8334 77.3857L29.0514 75.5801L29.5894 73.9751C30.9342 69.9625 32.4808 68.6919 37.087 67.8225C41.9285 66.8528 43.6769 66.5519 44.4166 66.5184C44.82 66.485 46.1649 67.555 47.9805 69.3606ZM43.1389 80.2614L46.2658 83.3377L45.5261 84.1067C45.1226 84.5414 44.6519 84.8758 44.4502 84.8758C43.9459 84.8758 38.1965 79.1245 38.1965 78.6229C38.1965 78.2551 39.4405 77.1851 39.8776 77.1851C39.9449 77.1851 41.4242 78.556 43.1389 80.2614Z" fill="#1242E0"/>
<path d="M82.1747 37.4604L79.9556 41.2055L80.9307 41.8073C81.4686 42.1417 81.9729 42.4092 82.0738 42.4092C82.1411 42.4092 82.679 41.5733 83.2506 40.5701C83.8221 39.567 84.4273 38.7979 84.5954 38.8983C84.7636 38.9986 85.2343 40.4698 85.6377 42.1752C86.7809 46.7227 86.7136 53.9453 85.5032 58.5597C84.5282 62.2713 82.3092 67.0864 80.2246 70.1627L78.8125 72.2358L79.5858 73.0383C79.9893 73.473 80.4263 73.8408 80.5272 73.8408C80.9643 73.8408 84.2928 68.5576 85.4024 66.1167C88.9663 58.3925 89.9077 48.9965 87.8904 41.1386C87.4533 39.4667 87.1843 38.0623 87.3524 38.0623C87.4869 38.0623 88.3275 38.497 89.2016 39.0654C90.0758 39.6004 90.8827 40.0686 91.0508 40.0686C91.1853 40.0686 91.5215 39.6339 91.8241 39.0989L92.3284 38.0957L88.6637 35.9223C86.6464 34.7185 84.8644 33.7154 84.7299 33.7154C84.5618 33.7154 83.4187 35.4207 82.1747 37.4604Z" fill="#1242E0"/>
</svg>
