<svg width="55" height="64" viewBox="0 0 55 64" fill="none" xmlns="http://www.w3.org/2000/svg">
<path fill-rule="evenodd" clip-rule="evenodd" d="M34.8042 0.0800781C34.9407 0.0800781 35.0745 0.0915927 35.2047 0.113703L35.6332 0.116231C36.2802 0.116231 36.8986 0.379453 37.3489 0.84564L53.4149 17.5808C53.8367 18.0216 54.0749 18.6147 54.0749 19.2267V48.3714C54.1253 56.3283 47.9222 62.7947 39.9526 63.0801H14.1379C6.39905 62.9137 0.192512 56.6602 0.00115966 49.0001L0 14.3207C0.187109 6.45258 6.68202 0.116231 14.4899 0.116231L34.4037 0.113703C34.5339 0.0915927 34.6677 0.0800781 34.8042 0.0800781ZM32.4238 4.87198L14.4994 4.87325C9.24447 4.87325 4.8807 9.12919 4.75702 14.3778V48.3714C4.64285 53.7658 8.89245 58.2057 14.2362 58.3231H39.8701C45.1631 58.1328 49.3524 53.7658 49.3178 48.3872L49.3176 22.2256L42.9482 22.2287C37.1415 22.2129 32.4257 17.4812 32.4257 11.684L32.4238 4.87198ZM25.816 22.7834C26.4725 22.7834 27.0671 23.0498 27.4976 23.4803L27.5009 23.4824L34.9409 30.9541C35.8669 31.8864 35.8638 33.3896 34.9346 34.3157C34.0022 35.2417 32.4958 35.2417 31.5698 34.3093L28.1932 30.9182L28.1945 44.32C28.1945 45.6329 27.1289 46.6985 25.816 46.6985C24.5031 46.6985 23.4375 45.6329 23.4375 44.32L23.4362 30.9182L20.0641 34.3093C19.6011 34.7787 18.9891 35.0102 18.3802 35.0102C17.7744 35.0102 17.1655 34.7787 16.7025 34.3157C15.7733 33.3896 15.767 31.8864 16.6962 30.9541L24.1298 23.4824L24.2359 23.3846C24.2818 23.3438 24.3292 23.3047 24.3782 23.2675L24.1298 23.4824C24.2183 23.3936 24.3135 23.3136 24.4141 23.2424C24.8057 22.9537 25.2911 22.7834 25.816 22.7834ZM37.1808 7.53908L37.1827 11.684C37.1827 14.8681 39.7706 17.4622 42.9546 17.4717L46.7107 17.4686L37.1808 7.53908Z" fill="#1242E0"/>
</svg>
