<svg width="34" height="34" viewBox="0 0 34 34" fill="none" xmlns="http://www.w3.org/2000/svg">
<path d="M20.8392 19.6053L27.5669 16.9476C29.0728 16.3526 29.5148 16.524 30.2175 17.0503C30.6149 17.3478 30.7601 17.709 30.7962 18.1553C30.8713 19.0839 30.6935 19.686 30.0978 20.0869C26.486 22.5158 22.6362 24.3256 17.8096 26.3096C15.4636 27.2737 11.9942 26.6376 8.87754 25.5659L4.70333 25.5496C4.50464 25.55 4.30783 25.5112 4.12412 25.4355C3.94041 25.3598 3.77341 25.2487 3.63265 25.1084C3.49189 24.9682 3.38013 24.8016 3.30375 24.6182C3.22737 24.4348 3.18787 24.2381 3.1875 24.0394V19.8163C3.1875 18.9763 3.86396 18.3005 4.70333 18.3005H9.18425C10.8892 16.1812 16.0792 16.8874 19.7526 17.012C20.7442 17.046 21.1154 18.0668 20.8392 19.6053ZM20.8392 19.6053C19.8843 21.4377 17.4569 20.9525 15.1725 21.0354" stroke="#62666D" stroke-width="1.5" stroke-linecap="round" stroke-linejoin="round"/>
<path d="M22.7633 11.5191L23.6374 10.645L24.5108 11.5184M20.3231 11.5184L21.1972 10.645L22.0705 11.5184M17.9148 7.92783H24.7976L26.7285 9.72345L24.7976 11.5191L24.5108 11.5184M22.7633 11.5191L22.0705 11.5184ZM20.3231 11.5184L17.9155 11.5191ZM14.8661 9.72345C14.8661 10.3355 14.3702 10.832 13.7575 10.832C13.1455 10.832 12.6483 10.3362 12.6483 9.72345C12.6483 9.11145 13.1441 8.61491 13.7568 8.61491C14.3688 8.61491 14.8661 9.11145 14.8661 9.72345ZM17.9155 11.5191L16.1694 13.2637C15.5319 13.9012 14.5062 13.9012 13.8695 13.2637L11.4781 10.8745C10.8406 10.237 10.8406 9.21133 11.4781 8.57383L13.8687 6.1832C14.5062 5.5457 15.5319 5.5457 16.1687 6.1832L17.9148 7.92783" stroke="#62666D" stroke-linecap="round" stroke-linejoin="round"/>
</svg>
