<svg width="34" height="34" viewBox="0 0 34 34" fill="none" xmlns="http://www.w3.org/2000/svg">
<path opacity="0.5" d="M17.9662 6.55811L16.1362 4.72811C14.5912 3.18311 13.8192 2.41011 12.8162 2.12311C11.8132 1.83511 10.7482 2.08111 8.61925 2.57311L7.39125 2.85611C5.59925 3.26911 4.70325 3.47611 4.08925 4.08911C3.47625 4.70311 3.26925 5.59911 2.85625 7.39111L2.57225 8.61911C2.08125 10.7491 1.83525 11.8131 2.12225 12.8161C2.41025 13.8191 3.18325 14.5911 4.72825 16.1361L6.55825 17.9661C9.24825 20.6571 19.3305 31.5001 21.0005 31.5001C22.6715 31.5001 24.2772 29.6551 26.9662 26.9661C29.6572 24.2771 31.0002 22.9331 31.0002 21.2621C31.0002 19.5921 20.6552 9.24711 17.9662 6.55811Z" fill="#0D45FF"/>
<path d="M10.0222 10.2931C10.2133 10.1086 10.3656 9.88789 10.4704 9.64388C10.5753 9.39987 10.6304 9.13743 10.6327 8.87187C10.635 8.60631 10.5844 8.34295 10.4839 8.09716C10.3833 7.85137 10.2348 7.62806 10.047 7.44028C9.85924 7.25249 9.63594 7.10399 9.39014 7.00343C9.14435 6.90286 8.88099 6.85226 8.61543 6.85457C8.34988 6.85688 8.08744 6.91205 7.84343 7.01687C7.59942 7.12168 7.37873 7.27405 7.19424 7.46507C6.82992 7.84227 6.62833 8.34748 6.63289 8.87187C6.63744 9.39626 6.84778 9.89789 7.2186 10.2687C7.58942 10.6395 8.09104 10.8499 8.61543 10.8544C9.13983 10.859 9.64503 10.6574 10.0222 10.2931Z" fill="white"/>
<path d="M13.6005 15.0014C13.3719 14.7728 13.2776 14.5229 13.3177 14.2519C13.1315 14.1552 12.9688 14.0374 12.8298 13.8983C12.6129 13.6815 12.488 13.4505 12.455 13.2054C12.4244 12.9579 12.501 12.7422 12.6848 12.5584C12.7084 12.5348 12.7461 12.5018 12.7979 12.4594C13.0124 12.3014 13.2587 12.2295 13.5369 12.2437C13.8174 12.2602 14.1214 12.3356 14.449 12.47L14.6364 12.226L15.1844 12.5831C15.0218 12.7834 14.8898 12.9508 14.7884 13.0851C14.5386 13.3916 14.3736 13.599 14.2935 13.7074C14.1898 13.8441 14.1202 13.949 14.0849 14.0221C14.0519 14.0975 14.0436 14.1623 14.0601 14.2165C14.0766 14.2707 14.1214 14.3344 14.1945 14.4074L14.2616 14.4746L13.9965 14.8034L13.6677 15.0686L13.6005 15.0014ZM13.2151 12.8836C13.1727 12.926 13.1633 12.9897 13.1868 13.0745C13.2128 13.157 13.2693 13.2419 13.3566 13.3291C13.4249 13.3975 13.5204 13.467 13.6429 13.5377C13.6712 13.4953 13.716 13.434 13.7773 13.3538L14.0036 13.0498C13.8315 12.9626 13.6689 12.9013 13.5157 12.8659C13.3648 12.8282 13.2646 12.8341 13.2151 12.8836ZM14.2237 14.4367L14.4111 14.6241C14.7175 14.9305 14.9379 15.0165 15.0723 14.8822C15.1147 14.8397 15.1854 14.7148 15.2844 14.5074C15.3857 14.3023 15.4494 14.1633 15.4753 14.0902L16.1152 14.2776C16.0657 14.4167 15.9785 14.5958 15.8536 14.815C15.7334 15.0342 15.6085 15.2086 15.4788 15.3382C15.2266 15.5905 14.9579 15.7059 14.6727 15.6847C14.3899 15.6612 14.1047 15.5056 13.8171 15.218L13.6298 15.0307L14.2237 14.4367ZM15.896 13.1321C16.0139 13.1321 16.0728 13.1321 16.0728 13.1321C16.3651 13.1321 16.5407 13.1333 16.5996 13.1356L16.5996 13.8356H16.3663C16.0551 13.8356 15.8996 13.8356 15.8996 13.8356L15.896 13.1321ZM15.8529 17.2538C15.5889 16.9898 15.4734 16.7211 15.5064 16.4477C15.5418 16.1719 15.7126 15.8785 16.0191 15.5673C16.6955 14.872 17.2058 14.2934 17.5499 13.8314L18.1475 14.2097C17.9707 14.443 17.7232 14.733 17.405 15.0794C17.0915 15.4259 16.7957 15.7382 16.5176 16.0164C16.4233 16.1106 16.3585 16.192 16.3231 16.2603C16.2901 16.3263 16.283 16.3899 16.3019 16.4512C16.3208 16.5125 16.3691 16.582 16.4469 16.6598L16.4645 16.6775L16.1994 17.0063L15.8706 17.2715L15.8529 17.2538ZM16.4264 16.6394L16.5113 16.7243C16.5891 16.802 16.6468 16.8574 16.6845 16.8904C16.7317 16.749 16.8059 16.6276 16.9073 16.5263C16.9285 16.5051 16.9627 16.4756 17.0098 16.4379C17.1748 16.3153 17.348 16.2293 17.5295 16.1798C17.7157 16.1303 17.8913 16.1197 18.0563 16.148C18.2237 16.1786 18.3627 16.2493 18.4735 16.3601C18.6032 16.4897 18.6762 16.6406 18.6927 16.8126C18.7139 16.9847 18.6892 17.1556 18.6185 17.3253C18.5478 17.495 18.4476 17.6447 18.318 17.7743C18.2614 17.8309 18.2178 17.8698 18.1871 17.891C18.0764 17.9735 17.9691 18.0359 17.8654 18.0784L18.1235 18.3365L17.8583 18.6653L17.5295 18.9304L17.3174 18.7183C17.0982 18.4991 16.9261 18.2587 16.8012 17.9971C16.5302 17.8627 16.2355 17.6364 15.9173 17.3182L15.8325 17.2334L16.4264 16.6394ZM18.8942 15.4232C19.2054 15.4232 19.3609 15.4232 19.3609 15.4232C19.3633 15.6565 19.3633 15.8899 19.3609 16.1232C19.3609 16.1232 19.2054 16.1232 18.8942 16.1232H18.6609L18.6609 15.4232H18.8942ZM17.381 16.8728C17.341 16.927 17.3162 17.0012 17.3068 17.0955C17.3021 17.1898 17.3186 17.2911 17.3563 17.3995C17.5166 17.475 17.678 17.4856 17.8407 17.4314C17.8501 17.4267 17.8631 17.416 17.8796 17.3995C17.9455 17.3336 17.9844 17.2499 17.9962 17.1485C18.0104 17.0448 17.9785 16.9541 17.9008 16.8763C17.8324 16.8079 17.7464 16.7761 17.6427 16.7808C17.539 16.7855 17.4518 16.8162 17.381 16.8728ZM20.6013 22.0022C20.3726 21.7735 20.2029 21.5991 20.0922 21.4789C19.9837 21.3564 19.8989 21.2432 19.8376 21.1395C19.5406 21.0075 19.2519 20.8013 18.9714 20.5208C18.5518 20.1012 18.3975 19.6758 18.5082 19.2445C18.322 19.2798 18.1476 19.2727 17.985 19.2232C17.8271 19.1738 17.675 19.0759 17.5289 18.9298L17.4794 18.8803L18.0734 18.2863L18.1229 18.3358C18.2313 18.4443 18.3409 18.5067 18.4517 18.5232C18.5648 18.5421 18.6897 18.5209 18.8264 18.4596C18.9679 18.3983 19.1352 18.2946 19.3285 18.1484L19.6467 18.6363C19.5383 18.7165 19.4475 18.7931 19.3744 18.8662C19.2472 18.9934 19.1753 19.1195 19.1588 19.2445C19.6514 19.1054 20.0957 19.0571 20.4917 19.0995C20.8877 19.1419 21.1952 19.2727 21.4144 19.4919C21.5535 19.631 21.6466 19.7854 21.6938 19.9551C21.7456 20.1248 21.748 20.2945 21.7008 20.4642C21.6584 20.6339 21.57 20.786 21.4357 20.9203C21.3013 21.0547 21.154 21.1525 20.9937 21.2138C21.0385 21.2538 21.1057 21.3186 21.1952 21.4082L21.2129 21.4259L20.9478 21.7547L20.619 22.0199L20.6013 22.0022ZM19.4487 19.8384C19.6585 20.0623 19.8718 20.2379 20.0886 20.3652C20.3055 20.4925 20.4952 20.5691 20.6578 20.595C20.8252 20.621 20.9407 20.6021 21.0043 20.5385C21.0491 20.4937 21.0644 20.4312 21.0503 20.3511C21.0385 20.2686 20.9902 20.1849 20.9053 20.1001C20.7545 19.9492 20.5471 19.8455 20.2831 19.7889C20.0238 19.7324 19.7292 19.73 19.3992 19.7819L19.4487 19.8384ZM21.1774 21.3904L21.1986 21.4116C21.3848 21.5931 21.5345 21.7027 21.6476 21.7404C21.7631 21.7805 21.868 21.7604 21.9623 21.6803C22.066 21.5907 22.1827 21.4505 22.3123 21.2596L22.7931 21.5848C22.6329 21.8111 22.4537 22.0232 22.2557 22.2212C22.2345 22.2519 22.2298 22.3014 22.2416 22.3697C22.2534 22.4381 22.2982 22.5111 22.3759 22.5889L22.3936 22.6066L22.1285 22.9354L21.7997 23.2006L21.782 23.1829C21.6901 23.091 21.6241 22.9849 21.584 22.8647C21.5463 22.7421 21.531 22.6137 21.538 22.4793C21.241 22.4887 20.9299 22.3308 20.6046 22.0055L20.5834 21.9843L21.1774 21.3904ZM23.2952 20.213L23.2952 20.9131L22.5916 20.9166L22.5916 20.2095L23.2952 20.213ZM22.3723 22.5852L22.4395 22.6524C22.6139 22.8268 22.8743 22.8634 23.2208 22.762C23.5626 22.6607 23.8407 22.6112 24.0552 22.6135C24.272 22.6182 24.4476 22.6878 24.582 22.8221C24.714 22.9541 24.787 23.112 24.8012 23.2959C24.8177 23.4774 24.7835 23.6624 24.6987 23.851C24.6162 24.0372 24.5018 24.2033 24.3557 24.3495C24.2119 24.4932 24.054 24.5993 23.8819 24.6677C23.7146 24.736 23.5484 24.7513 23.3834 24.7136C23.2892 24.6901 23.2031 24.6394 23.1253 24.5616C22.9415 24.3778 22.793 24.0454 22.6799 23.5646C22.3593 23.5882 22.0776 23.4785 21.8349 23.2358L21.7677 23.1686L22.3723 22.5852ZM23.4082 23.3383C23.4506 23.5127 23.4942 23.6624 23.539 23.7873C23.5885 23.9122 23.6345 23.9959 23.6769 24.0383C23.6957 24.0572 23.7134 24.0678 23.7299 24.0702C23.7629 24.0749 23.7971 24.069 23.8325 24.0525C23.8725 24.036 23.9102 24.0101 23.9456 23.9747C24.0352 23.8851 24.0917 23.7767 24.1153 23.6494C24.1436 23.5222 24.1177 23.4184 24.0375 23.3383C23.9409 23.2417 23.7311 23.2417 23.4082 23.3383Z" fill="white"/>
</svg>
