<svg width="72" height="72" viewBox="0 0 72 72" fill="none" xmlns="http://www.w3.org/2000/svg">
<path d="M32.5919 61.0312C32.5295 61.2731 32.3884 61.4872 32.1908 61.64C31.9932 61.7927 31.7504 61.8754 31.5007 61.875C31.4059 61.8754 31.3114 61.864 31.2194 61.8412L22.2194 59.5912C22.0942 59.5602 21.9753 59.5079 21.8679 59.4365L15.1179 54.9365C14.9949 54.8546 14.8892 54.7491 14.807 54.6263C14.7247 54.5035 14.6675 54.3657 14.6385 54.2207C14.6095 54.0758 14.6093 53.9266 14.638 53.7815C14.6667 53.6365 14.7237 53.4986 14.8057 53.3756C14.9713 53.1272 15.2288 52.9548 15.5215 52.8962C15.6664 52.8672 15.8157 52.8671 15.9607 52.8958C16.1057 52.9245 16.2436 52.9814 16.3666 53.0634L22.9535 57.4565L31.7819 59.6587C31.9254 59.6954 32.0601 59.7601 32.1785 59.849C32.2969 59.9379 32.3966 60.0493 32.4719 60.1768C32.5471 60.3043 32.5965 60.4454 32.6171 60.5921C32.6377 60.7387 32.6291 60.8879 32.5919 61.0312ZM69.9335 33.8203C69.7953 34.2407 69.575 34.6295 69.2853 34.9641C68.9956 35.2987 68.6423 35.5724 68.246 35.7694L61.4229 39.1837L45.8022 54.8044C45.6634 54.9392 45.492 55.036 45.3048 55.0853C45.1175 55.1345 44.9208 55.1347 44.7335 55.0856L26.7335 50.5856C26.5956 50.5522 26.4656 50.492 26.351 50.4084L10.6685 39.2175L3.76099 35.7609C3.36448 35.5628 3.01088 35.2885 2.72038 34.9537C2.42988 34.6189 2.20817 34.2302 2.06792 33.8097C1.92768 33.3892 1.87163 32.9452 1.90299 32.5031C1.93435 32.0609 2.05249 31.6293 2.25068 31.2328L9.23693 17.2603C9.43506 16.8638 9.70935 16.5102 10.0441 16.2197C10.3789 15.9292 10.7677 15.7075 11.1882 15.5672C11.6086 15.427 12.0526 15.3709 12.4948 15.4023C12.9369 15.4336 13.3686 15.5518 13.7651 15.75L20.3632 19.049L35.6913 14.6672C35.8937 14.6109 36.1076 14.6109 36.3101 14.6672L51.6382 19.049L58.2363 15.75C58.6328 15.5518 59.0644 15.4336 59.5066 15.4023C59.9487 15.3709 60.3927 15.427 60.8132 15.5672C61.2337 15.7075 61.6224 15.9292 61.9572 16.2197C62.292 16.5102 62.5663 16.8638 62.7644 17.2603L69.7507 31.2356C69.9503 31.6315 70.0692 32.0631 70.1006 32.5054C70.132 32.9476 70.0752 33.3917 69.9335 33.8119V33.8203ZM4.76506 33.75L10.7472 36.7397L18.7404 20.7534L12.761 17.7637C12.629 17.6974 12.4851 17.6578 12.3378 17.647C12.1904 17.6363 12.0424 17.6547 11.9021 17.7012C11.7619 17.7477 11.6322 17.8214 11.5204 17.918C11.4086 18.0146 11.317 18.1323 11.2507 18.2644L4.26443 32.2397C4.19812 32.3717 4.15847 32.5155 4.14774 32.6629C4.13702 32.8102 4.15542 32.9583 4.20191 33.0985C4.2484 33.2388 4.32206 33.3685 4.41868 33.4803C4.51531 33.592 4.63301 33.6837 4.76506 33.75ZM54.5632 42.8428L45.0626 35.2322C39.851 39.9459 33.0307 40.7194 27.4394 37.1475C27.0122 36.8766 26.6513 36.5132 26.3835 36.084C26.1156 35.6549 25.9477 35.171 25.892 34.6682C25.8364 34.1654 25.8945 33.6565 26.0621 33.1792C26.2296 32.7019 26.5024 32.2683 26.8601 31.9106L39.7132 19.4428C39.9241 19.238 40.2067 19.124 40.5007 19.125H43.7182L36.0007 16.92L21.0354 21.195L12.6879 37.8928L27.4816 48.4594L44.6547 52.754L54.5632 42.8428ZM59.3782 38.0278L51.056 21.375H40.9563L28.4435 33.5137C28.327 33.6305 28.2384 33.7721 28.1843 33.928C28.1302 34.0838 28.1121 34.2499 28.1313 34.4137C28.1492 34.5844 28.2053 34.7488 28.2954 34.8948C28.3855 35.0409 28.5072 35.1648 28.6516 35.2575C32.5751 37.7634 38.7204 38.475 44.2019 32.9512C44.3977 32.7543 44.6594 32.6367 44.9367 32.6211C45.214 32.6055 45.4872 32.6931 45.7038 32.8669L56.1691 41.2481L59.3782 38.0278ZM67.7341 32.2397L60.7507 18.2644C60.6844 18.1323 60.5927 18.0146 60.481 17.918C60.3692 17.8214 60.2395 17.7477 60.0992 17.7012C59.959 17.6547 59.8109 17.6363 59.6636 17.647C59.5162 17.6578 59.3724 17.6974 59.2404 17.7637L53.261 20.7534L61.2541 36.7397L67.2363 33.75C67.3683 33.6837 67.486 33.592 67.5827 33.4803C67.6793 33.3685 67.753 33.2388 67.7994 33.0985C67.8459 32.9583 67.8643 32.8102 67.8536 32.6629C67.8429 32.5155 67.8032 32.3717 67.7369 32.2397H67.7341Z" fill="#35353C"/>
</svg>
