<svg width="64" height="64" viewBox="0 0 64 64" fill="none" xmlns="http://www.w3.org/2000/svg">
<g clip-path="url(#clip0_7858_24962)">
<path d="M54.9459 15.9681C54.8153 14.1751 54.0422 12.4893 52.7685 11.2206C51.4948 9.95177 49.8061 9.18514 48.0126 9.06147L35.8526 8.20814C34.7904 8.14171 33.7262 8.29972 32.7292 8.67187C31.7322 9.04403 30.8247 9.622 30.0659 10.3681L10.3992 30.0748C9.00305 31.4719 8.21875 33.3663 8.21875 35.3415C8.21875 37.3167 9.00305 39.211 10.3992 40.6081L23.3859 53.6215C24.0793 54.3149 24.9024 54.865 25.8084 55.2402C26.7143 55.6155 27.6853 55.8087 28.6659 55.8087C29.6465 55.8087 30.6175 55.6155 31.5235 55.2402C32.4294 54.865 33.2526 54.3149 33.9459 53.6215L53.6259 33.9148C54.3809 33.1624 54.9648 32.2559 55.3375 31.2572C55.7103 30.2586 55.8632 29.1913 55.7859 28.1281L54.9459 15.9681ZM32.0392 51.7335C31.1397 52.6291 29.922 53.1319 28.6526 53.1319C27.3832 53.1319 26.1655 52.6291 25.2659 51.7335L12.2792 38.7468C11.8295 38.3021 11.4725 37.7727 11.2288 37.189C10.9851 36.6054 10.8596 35.9793 10.8596 35.3468C10.8596 34.7144 10.9851 34.0882 11.2288 33.5046C11.4725 32.921 11.8295 32.3915 12.2792 31.9468L15.3992 28.8268L35.1859 48.6135L32.0392 51.7335ZM51.7192 32.0535L37.0526 46.7201L17.2926 26.9335L31.9592 12.2668C32.4022 11.819 32.9297 11.4635 33.511 11.2209C34.0923 10.9783 34.716 10.8534 35.3459 10.8535C35.4526 10.8535 35.5592 10.8801 35.6659 10.8801L47.8259 11.7335C48.9761 11.8135 50.0591 12.3048 50.8768 13.1176C51.6945 13.9304 52.1923 15.0104 52.2792 16.1601L53.1326 28.3201C53.1746 29.0051 53.0716 29.6911 52.8304 30.3335C52.5891 30.9759 52.2151 31.5602 51.7326 32.0481L51.7192 32.0535Z" fill="#35353C"/>
<path d="M45.3338 20.9626C46.6033 20.9626 47.6325 19.9334 47.6325 18.6639C47.6325 17.3944 46.6033 16.3652 45.3338 16.3652C44.0643 16.3652 43.0352 17.3944 43.0352 18.6639C43.0352 19.9334 44.0643 20.9626 45.3338 20.9626Z" fill="#35353C"/>
<path d="M31.4992 4.07107C35.3883 0.18198 41.7523 0.18198 45.6414 4.07107C49.5305 7.96015 49.5305 14.3241 45.6414 18.2132" stroke="#35353C" stroke-width="2" stroke-linecap="round"/>
</g>
<defs>
<clipPath id="clip0_7858_24962">
<rect width="64" height="64" fill="white"/>
</clipPath>
</defs>
</svg>
