<svg width="73" height="72" viewBox="0 0 73 72" fill="none" xmlns="http://www.w3.org/2000/svg">
<path fill-rule="evenodd" clip-rule="evenodd" d="M52.7377 35.1615C49.1621 35.1615 46.2578 32.2344 46.2578 28.6613C46.2578 25.0745 49.1621 22.1611 52.7377 22.1611C56.3133 22.1611 59.2177 25.0745 59.2177 28.6613C59.2177 32.2344 56.3133 35.1615 52.7377 35.1615ZM52.7377 24.2225C50.2992 24.2225 48.3128 26.2152 48.3128 28.6613C48.3128 31.1075 50.2992 33.1001 52.7377 33.1001C55.1763 33.1001 57.1627 31.1075 57.1627 28.6613C57.1627 26.2152 55.1763 24.2225 52.7377 24.2225Z" fill="#35353C"/>
<path d="M18.6787 34.7079C18.5417 34.7079 18.4093 34.6805 18.2814 34.6255C15.884 33.6085 14.3359 31.2586 14.3359 28.6613C14.3359 25.0882 17.2403 22.1748 20.7885 22.1748C24.3504 22.1748 27.2547 25.0882 27.2547 28.6613C27.2547 29.2247 26.7889 29.6919 26.2272 29.6919C25.6518 29.6919 25.1998 29.2247 25.1998 28.6613C25.1998 26.2288 23.2133 24.2362 20.7885 24.2362C18.3636 24.2362 16.3909 26.2288 16.3909 28.6613C16.3909 30.434 17.4458 32.0282 19.076 32.729C19.6103 32.9489 19.8432 33.5536 19.624 34.0758C19.4596 34.4606 19.076 34.7079 18.6787 34.7079Z" fill="#35353C"/>
<path fill-rule="evenodd" clip-rule="evenodd" d="M64.4387 23.7962C64.4113 23.7962 64.3794 23.7916 64.3428 23.7824C61.5892 23.5351 61.2193 23.3289 61.0686 23.2465C61.0595 23.2373 61.0504 23.2327 61.0412 23.2327L57.1094 20.924C56.4929 20.5804 56.1779 19.9208 56.2874 19.2337C56.3833 18.5328 56.9039 17.9968 57.5889 17.8594C57.6163 17.8594 57.6437 17.8594 57.6711 17.8594L59.0685 17.6808C59.6302 17.612 60.1371 18.0243 60.2055 18.5878C60.274 19.1512 59.8768 19.6597 59.3151 19.7284L59.1644 19.7421L62.0002 21.405C62.3427 21.5012 63.5483 21.6386 64.5346 21.7348C65.0963 21.7898 65.5073 22.2845 65.4662 22.8479C65.4114 23.3839 64.9593 23.7962 64.4387 23.7962ZM45.6017 17.6945C45.5835 17.6945 45.5698 17.6945 45.5606 17.6945L36.3271 17.2273C36.3088 17.2273 36.2951 17.2227 36.286 17.2135C36.2677 17.2135 36.254 17.2135 36.2449 17.2135L26.6551 16.1141L22.1616 15.7843C21.8739 15.7568 21.6136 15.6194 21.4356 15.3995L18.4216 11.6616C18.0654 11.2081 18.1339 10.5622 18.5723 10.2049C19.0244 9.84755 19.6683 9.91626 20.0245 10.356L22.7507 13.7642L25.6687 13.9703L25.4632 10.4385C25.4358 9.87504 25.8742 9.38031 26.4359 9.35282C26.9976 9.32534 27.4908 9.75135 27.5182 10.3285L27.7374 14.1627L35.1215 15.0147L34.3954 10.6996C34.2995 10.1361 34.6831 9.61393 35.2311 9.51773C35.7928 9.42153 36.3271 9.79258 36.423 10.356L37.2449 15.2071L45.588 15.6331L49.1088 15.2896L49.9993 14.6024C50.4514 14.2589 51.0953 14.3413 51.4515 14.7948C51.794 15.2483 51.6981 15.8942 51.246 16.2378L50.1226 17.1036C49.9719 17.2273 49.7938 17.296 49.602 17.3097L45.7113 17.6808C45.6748 17.6899 45.6383 17.6945 45.6017 17.6945Z" fill="#35353C"/>
<path d="M44.1211 29.5965H29.7501C29.1884 29.5965 28.7227 29.143 28.7227 28.5658C28.7227 28.0024 29.1884 27.5352 29.7501 27.5352H44.1211C44.6964 27.5352 45.1485 28.0024 45.1485 28.5658C45.1485 29.143 44.6964 29.5965 44.1211 29.5965Z" fill="#35353C"/>
<path fill-rule="evenodd" clip-rule="evenodd" d="M63.3277 29.6508H61.6153C61.0536 29.6508 60.5878 29.1836 60.5878 28.6201C60.5878 28.0429 61.0536 27.5894 61.6153 27.5894H63.3277C63.8757 27.5894 65.4786 27.2046 66.2458 26.2701C66.6156 25.8166 66.7252 25.3082 66.6156 24.6623L65.6156 20.8144C65.4512 20.1685 64.9991 19.6325 64.3963 19.3439C61.9167 18.1896 46.9293 11.6344 46.2306 11.3183L46.0799 11.2634C39.0246 8.61107 37.5587 8.06137 29.7088 8.06137C24.6673 8.06137 17.8175 8.33622 13.7076 9.11954C14.2008 9.47685 14.6118 9.88912 14.694 10.48C14.7625 10.9061 14.6255 11.3183 14.3104 11.6482C13.2829 12.775 10.6252 17.1451 9.57034 18.9454C9.28264 20.5808 8.91275 23.3155 9.10455 24.25C9.29634 25.157 10.2279 26.009 10.5704 26.2701C10.8718 26.3801 11.7897 26.49 12.1733 26.49C12.2737 26.4534 12.3788 26.4351 12.4884 26.4351C13.05 26.4351 13.5158 26.9023 13.5158 27.4657C13.5158 27.8918 13.2555 28.2766 12.872 28.4415C12.735 28.4964 12.4199 28.6339 11.1321 28.4689C10.0087 28.3315 9.57034 28.1116 9.33744 27.9192C9.00865 27.6719 7.46059 26.4351 7.0907 24.6623C6.74821 22.9857 7.50169 18.8492 7.58389 18.382C7.60216 18.2629 7.64325 18.1529 7.70719 18.0522C8.04968 17.475 10.8444 12.7063 12.4062 10.7274C12.2418 10.6312 12.0637 10.5213 11.9404 10.4526C11.2143 10.0128 10.3923 9.53181 10.5156 8.62481C10.5841 8.04763 11.0088 7.66284 11.7486 7.4567C15.7078 6.37105 23.9002 6 29.7088 6C37.9423 6 39.6411 6.63215 46.806 9.33942L46.9704 9.40813C46.9886 9.40813 47.0069 9.41271 47.0252 9.42188C47.6553 9.71047 62.7113 16.2931 65.2594 17.475C66.4239 18.0247 67.2732 19.0416 67.602 20.2922L68.6021 24.1813C68.6112 24.1996 68.6158 24.2179 68.6158 24.2363C68.8624 25.4868 68.5884 26.6549 67.8212 27.5894C66.6019 29.0874 64.4237 29.6508 63.3277 29.6508Z" fill="#35353C"/>
<path d="M11.8723 19.1925C11.5435 19.1925 11.2147 19.0413 11.0229 18.739C10.6941 18.2717 10.8174 17.6258 11.2832 17.3097L14.2423 15.2896L13.7217 14.3414C13.4477 13.8466 13.6395 13.2145 14.1327 12.9396C14.6396 12.6785 15.2561 12.8572 15.5301 13.3657L16.489 15.1384C16.7356 15.5919 16.5986 16.1829 16.1603 16.4715L12.4476 19.0138C12.2696 19.1375 12.0641 19.1925 11.8723 19.1925Z" fill="#35353C"/>
<path fill-rule="evenodd" clip-rule="evenodd" d="M15.1329 65.3944C14.9274 65.3944 14.7219 65.3395 14.5301 65.202C14.078 64.8722 13.9547 64.2401 14.2835 63.7728L17.8865 58.6469C19.2154 56.7642 21.3799 55.6648 23.8322 55.6235C31.4218 55.5273 42.3952 52.6689 47.6559 51.2946C48.6559 51.0473 49.4505 50.8411 49.9848 50.7175C50.4643 50.5938 50.9301 50.3876 51.3548 50.0991L65.9038 38.7203C65.9312 38.702 65.9586 38.6836 65.986 38.6653C66.8902 38.0881 67.1916 36.8925 66.671 35.9993C66.397 35.5458 65.9586 35.216 65.438 35.106C64.9311 34.9823 64.3968 35.0648 63.9447 35.3534L49.3957 44.8769C49.3866 44.8861 49.3775 44.8907 49.3683 44.8907C48.9847 45.1243 48.56 45.2067 48.4504 45.2342C48.3865 45.2434 48.3271 45.248 48.2723 45.248C47.6011 45.2617 44.6556 45.2754 30.1066 45.248C28.4079 45.2342 27.0379 43.8325 27.0653 42.1422C27.079 40.4518 28.449 39.0913 30.134 39.0913C30.1432 39.0913 30.1523 39.0913 30.1614 39.0913L36.2578 39.1463L41.765 39.1875C42.4637 39.1875 43.1076 38.9127 43.5871 38.4179C44.0803 37.9232 44.3269 37.2773 44.3132 36.5765C44.2721 35.2297 43.1076 34.1303 41.7239 34.1166L26.8461 34.0204C26.5584 34.0204 26.2707 34.0616 25.9967 34.1715C25.9511 34.1807 25.9054 34.1898 25.8597 34.199C25.4761 34.2815 23.7363 35.051 17.8591 41.4138C14.6397 44.9044 11.7628 48.3675 11.7354 48.4087C11.7171 48.427 11.6989 48.4454 11.6806 48.4637L5.26916 55.1151C4.87187 55.5273 4.22799 55.5411 3.817 55.1425C3.40601 54.744 3.39231 54.0981 3.7896 53.6858L10.1736 47.0482C10.4613 46.7047 13.2424 43.379 16.3522 40.0258C22.2841 33.5943 24.3528 32.44 25.3665 32.2063C25.8597 32.0414 26.3666 31.959 26.8598 31.959L41.7376 32.0552C44.2173 32.0689 46.2996 34.0753 46.3681 36.5215C46.3955 37.772 45.9434 38.9676 45.0666 39.8609C44.1899 40.7679 43.0117 41.2489 41.7513 41.2489L36.2304 41.2077L30.134 41.1527C29.5723 41.1527 29.1202 41.6062 29.1202 42.1559C29.1065 42.7193 29.5586 43.1866 30.1203 43.1866C36.9153 43.2003 47.1216 43.2141 48.1354 43.1866C48.1902 43.1728 48.2724 43.1591 48.2997 43.1316L62.8351 33.6218C63.7529 33.0309 64.8489 32.8385 65.9175 33.0996C66.9724 33.347 67.8765 34.0066 68.4382 34.9548C69.5068 36.7688 68.9314 39.1875 67.1368 40.3694L52.5877 51.7481C52.5695 51.7573 52.5558 51.7711 52.5466 51.7894C51.9028 52.2291 51.2041 52.5452 50.4506 52.7239C49.9437 52.8338 49.1628 53.0399 48.1765 53.301C42.8336 54.689 31.6958 57.5887 23.8596 57.6849C22.0786 57.7124 20.5032 58.4957 19.5716 59.8287L15.9686 64.9547C15.7631 65.2433 15.448 65.3944 15.1329 65.3944Z" fill="#35353C"/>
</svg>
