<svg width="86" height="64" viewBox="0 0 86 64" fill="none" xmlns="http://www.w3.org/2000/svg">
<rect x="8.75" y="12.75" width="68.5" height="44.5" rx="12.25" fill="white" stroke="#35353B" stroke-width="3.5"/>
<path opacity="0.5" d="M26.6673 11.667V6.66699M59.334 11.667V6.66699M21.334 24.0003H64.6673" stroke="#35353B" stroke-width="3" stroke-linecap="round"/>
<path d="M28.6192 42.9999C28.1946 42.9999 27.8262 42.9305 27.5142 42.7919C27.2109 42.6532 26.9552 42.4365 26.7472 42.1419C26.2272 42.2979 25.7246 42.3759 25.2392 42.3759C24.4592 42.3759 23.8179 42.1895 23.3152 41.8169C22.8212 41.4355 22.5742 40.9199 22.5742 40.2699C22.5742 39.5159 22.8516 38.8789 23.4062 38.3589C23.9609 37.8389 24.7062 37.3882 25.6422 37.0069L25.5512 36.2269L27.0592 35.9019C27.2586 37.7565 27.3972 38.9785 27.4752 39.5679C27.5272 40.0012 27.5879 40.3219 27.6572 40.5299C27.7352 40.7379 27.8436 40.8809 27.9822 40.9589C28.1296 41.0282 28.3419 41.0629 28.6192 41.0629H28.8532L28.9572 42.0379L28.8532 42.9999H28.6192ZM24.0042 39.9059C23.9782 40.0879 24.0692 40.2439 24.2772 40.3739C24.4939 40.5039 24.7799 40.5689 25.1352 40.5689C25.4212 40.5689 25.7462 40.5169 26.1102 40.4129C26.0842 40.2829 26.0539 40.0879 26.0192 39.8279L25.8632 38.6969C25.3692 38.8529 24.9402 39.0479 24.5762 39.2819C24.2122 39.5072 24.0216 39.7152 24.0042 39.9059Z" fill="#35353B"/>
<path d="M28.7047 41.0629H28.9127C29.3461 41.0629 29.6624 41.0585 29.8617 41.0499C29.6017 40.6685 29.4717 40.2742 29.4717 39.8669C29.4717 39.7715 29.4891 39.6285 29.5237 39.4379C29.6364 38.8832 29.8444 38.3719 30.1477 37.9039C30.0351 37.8779 29.9007 37.8432 29.7447 37.7999L30.4597 36.0059C32.1671 36.5259 33.5017 37.0242 34.4637 37.5009C35.4257 37.9689 36.1017 38.4325 36.4917 38.8919C36.8817 39.3512 37.0767 39.8495 37.0767 40.3869C37.0767 40.7162 37.0031 41.1235 36.8557 41.6089C36.7171 42.0595 36.4137 42.3975 35.9457 42.6229C35.4777 42.8482 34.9187 42.9609 34.2687 42.9609C33.5494 42.9609 32.8517 42.8439 32.1757 42.6099C31.3871 42.8699 30.2994 42.9999 28.9127 42.9999H28.7047V41.0629ZM30.8757 39.6069C30.8757 40.0229 31.2571 40.4042 32.0197 40.7509C32.7391 40.5169 33.0987 40.1572 33.0987 39.6719C33.0987 39.4552 33.0381 39.2515 32.9167 39.0609C32.7954 38.8615 32.6351 38.7142 32.4357 38.6189L32.1237 38.5149C32.0977 38.5062 32.0544 38.5019 31.9937 38.5019C31.7164 38.5019 31.4607 38.6145 31.2267 38.8399C30.9927 39.0652 30.8757 39.3209 30.8757 39.6069ZM33.8917 41.2449C34.0997 41.2709 34.2947 41.2839 34.4767 41.2839C34.7887 41.2839 35.0444 41.2492 35.2437 41.1799C35.4517 41.1019 35.5817 40.9892 35.6337 40.8419C35.6597 40.7725 35.6727 40.7119 35.6727 40.6599C35.6727 40.2612 35.2177 39.8365 34.3077 39.3859C34.3164 39.5679 34.3077 39.7759 34.2817 40.0099C34.2037 40.4952 34.0737 40.9069 33.8917 41.2449Z" fill="#35353B"/>
<path d="M41.1308 42.9999C40.1775 42.9999 39.4885 42.7269 39.0638 42.1809C38.6478 41.6349 38.4398 40.8029 38.4398 39.6849C38.4311 38.6189 38.3965 37.5399 38.3358 36.4479C38.2838 35.3472 38.2058 34.4415 38.1018 33.7309L39.7138 33.3799C39.8005 34.0125 39.8698 34.8705 39.9218 35.9539C39.9738 37.0285 39.9998 38.0252 39.9998 38.9439V39.4379C39.9911 39.8799 40.0128 40.2135 40.0648 40.4389C40.1168 40.6642 40.2208 40.8245 40.3768 40.9199C40.5415 41.0152 40.7928 41.0629 41.1308 41.0629H41.1958L41.2998 42.0379L41.1958 42.9999H41.1308Z" fill="#35353B"/>
<path d="M41.1087 41.0629H41.3427C42.0187 41.0629 42.5733 40.6555 43.0067 39.8409C43.44 39.0349 43.856 38.4325 44.2547 38.0339C44.6533 37.6265 45.0997 37.4229 45.5937 37.4229C46.0617 37.4229 46.4733 37.5745 46.8287 37.8779C47.184 38.1725 47.4527 38.5582 47.6347 39.0349C47.8253 39.5029 47.9207 39.9969 47.9207 40.5169C47.9207 41.0195 47.8253 41.4875 47.6347 41.9209C47.444 42.3455 47.1667 42.6662 46.8027 42.8829C46.612 43.0042 46.378 43.0649 46.1007 43.0649C45.4333 43.0649 44.5493 42.7182 43.4487 42.0249C42.9113 42.6749 42.2007 42.9999 41.3167 42.9999H41.0697L41.1087 41.0629ZM44.2807 40.4909C44.688 40.7422 45.0563 40.9415 45.3857 41.0889C45.715 41.2275 45.9663 41.2969 46.1397 41.2969C46.2263 41.2969 46.287 41.2839 46.3217 41.2579C46.4083 41.1972 46.4733 41.1105 46.5167 40.9979C46.5687 40.8765 46.5947 40.7379 46.5947 40.5819C46.5947 40.2352 46.4993 39.9145 46.3087 39.6199C46.118 39.3165 45.8667 39.1649 45.5547 39.1649C45.1647 39.1649 44.74 39.6069 44.2807 40.4909Z" fill="#35353B"/>
<path d="M52.9208 42.9999C52.9295 42.7659 52.9338 42.4192 52.9338 41.9599C52.9338 40.5645 52.8601 39.3035 52.7128 38.1769C52.5221 36.7642 52.1971 35.5292 51.7378 34.4719L53.1808 33.6009C53.7181 34.6929 54.0865 36.1359 54.2858 37.9299C54.3898 38.9699 54.4418 40.1269 54.4418 41.4009C54.4418 41.7562 54.4331 42.2892 54.4158 42.9999H52.9208Z" fill="#35353B"/>
<path d="M55.8803 42.2589C56.227 41.7129 56.617 40.9675 57.0503 40.0229C57.4923 39.0782 57.904 38.0599 58.2853 36.9679C58.6667 35.8759 58.9353 34.8619 59.0913 33.9259H60.4953C60.608 34.8619 60.8507 35.8715 61.2233 36.9549C61.6047 38.0382 62.0207 39.0522 62.4713 39.9969C62.9307 40.9329 63.3423 41.6869 63.7063 42.2589L62.3413 43.2729C61.9167 42.6055 61.4703 41.7215 61.0023 40.6209C60.5343 39.5202 60.127 38.3589 59.7803 37.1369C59.425 38.3762 59.0177 39.5462 58.5583 40.6469C58.099 41.7476 57.6613 42.6229 57.2453 43.2729L55.8803 42.2589Z" fill="#35353B"/>
</svg>
